<mxfile host="app.diagrams.net" agent="Mozilla/5.0 (Windows NT 10.0; Win64; x64) AppleWebKit/537.36 (KHTML, like Gecko) Chrome/137.0.0.0 Safari/537.36 Edg/137.0.0.0" version="27.1.6" pages="5">
  <diagram name="Page-Contributors" id="_ocSnHtVCJIY9oDPfzE5">
    <mxGraphModel dx="1404" dy="772" grid="1" gridSize="10" guides="1" tooltips="1" connect="1" arrows="1" fold="1" page="1" pageScale="1" pageWidth="1600" pageHeight="900" math="0" shadow="0">
      <root>
        <mxCell id="0" />
        <mxCell id="1" parent="0" />
        <mxCell id="yeEXJO_MF2H7Z_WeDt-p-164" value="" style="verticalLabelPosition=bottom;verticalAlign=top;html=1;shape=mxgraph.basic.rect;fillColor2=none;strokeWidth=1;size=20;indent=5;strokeColor=#CCCCCC;" parent="1" vertex="1">
          <mxGeometry x="1240" y="160" width="320" height="600" as="geometry" />
        </mxCell>
        <mxCell id="yeEXJO_MF2H7Z_WeDt-p-113" value="Administration" style="rounded=1;whiteSpace=wrap;html=1;fillColor=#004494;fontColor=#ffffff;strokeColor=#314354;fontSize=14;" parent="1" vertex="1">
          <mxGeometry x="1110" y="100" width="120" height="30" as="geometry" />
        </mxCell>
        <mxCell id="yeEXJO_MF2H7Z_WeDt-p-78" value="" style="rounded=0;whiteSpace=wrap;html=1;fillColor=#002959;strokeColor=#002959;fontColor=#ffffff;" parent="1" vertex="1">
          <mxGeometry x="40" y="80" width="80" height="680" as="geometry" />
        </mxCell>
        <mxCell id="yeEXJO_MF2H7Z_WeDt-p-71" value="Inbox" style="whiteSpace=wrap;html=1;aspect=fixed;glass=0;shadow=0;strokeColor=#002959;" parent="1" vertex="1">
          <mxGeometry x="40" y="120" width="80" height="80" as="geometry" />
        </mxCell>
        <mxCell id="yeEXJO_MF2H7Z_WeDt-p-72" value="My&amp;nbsp;&lt;div&gt;requests&lt;/div&gt;" style="whiteSpace=wrap;html=1;aspect=fixed;fillColor=#002959;fontColor=#ffffff;strokeColor=#FFFFFF;" parent="1" vertex="1">
          <mxGeometry x="40" y="200" width="80" height="80" as="geometry" />
        </mxCell>
        <mxCell id="yeEXJO_MF2H7Z_WeDt-p-73" value="All JRC&lt;div&gt;requests&lt;/div&gt;" style="whiteSpace=wrap;html=1;aspect=fixed;fillColor=#002959;fontColor=#ffffff;strokeColor=#FFFFFF;" parent="1" vertex="1">
          <mxGeometry x="40" y="280" width="80" height="80" as="geometry" />
        </mxCell>
        <mxCell id="yeEXJO_MF2H7Z_WeDt-p-74" value="Collections" style="whiteSpace=wrap;html=1;aspect=fixed;fillColor=#002959;fontColor=#ffffff;strokeColor=#FFFFFF;" parent="1" vertex="1">
          <mxGeometry x="40" y="360" width="80" height="80" as="geometry" />
        </mxCell>
        <mxCell id="yeEXJO_MF2H7Z_WeDt-p-75" value="Search" style="whiteSpace=wrap;html=1;aspect=fixed;fillColor=#002959;fontColor=#ffffff;strokeColor=#FFFFFF;" parent="1" vertex="1">
          <mxGeometry x="40" y="440" width="80" height="80" as="geometry" />
        </mxCell>
        <mxCell id="yeEXJO_MF2H7Z_WeDt-p-76" value="Administration" style="whiteSpace=wrap;html=1;aspect=fixed;fillColor=#002959;fontColor=#ffffff;strokeColor=#FFFFFF;" parent="1" vertex="1">
          <mxGeometry x="40" y="520" width="80" height="80" as="geometry" />
        </mxCell>
        <mxCell id="yeEXJO_MF2H7Z_WeDt-p-114" value="Other actions" style="rounded=1;whiteSpace=wrap;html=1;fillColor=#004494;fontColor=#ffffff;strokeColor=#314354;glass=0;fontSize=14;" parent="1" vertex="1">
          <mxGeometry x="980" y="100" width="120" height="30" as="geometry" />
        </mxCell>
        <mxCell id="yeEXJO_MF2H7Z_WeDt-p-131" value="" style="verticalLabelPosition=bottom;verticalAlign=top;html=1;shape=mxgraph.basic.rect;fillColor2=none;strokeWidth=1;size=20;indent=5;fillColor=#002959;strokeColor=#FFFFFF;" parent="1" vertex="1">
          <mxGeometry x="40" y="30" width="1520" height="50" as="geometry" />
        </mxCell>
        <mxCell id="yeEXJO_MF2H7Z_WeDt-p-133" value="" style="verticalLabelPosition=bottom;verticalAlign=top;html=1;shape=mxgraph.basic.rect;fillColor2=none;strokeWidth=1;size=20;indent=5;strokeColor=#000000;" parent="1" vertex="1">
          <mxGeometry x="130" y="320" width="1100" height="440" as="geometry" />
        </mxCell>
        <mxCell id="yeEXJO_MF2H7Z_WeDt-p-139" value="" style="strokeWidth=1;shadow=0;dashed=0;align=center;html=1;shape=mxgraph.mockup.containers.topButton;rSize=5;resizeWidth=1;movable=1;deletable=1;resizable=1;rotatable=1;editable=1;locked=0;connectable=1;strokeColor=#000000;" parent="1" vertex="1">
          <mxGeometry x="130" y="313" width="1100" height="7" as="geometry" />
        </mxCell>
        <mxCell id="yeEXJO_MF2H7Z_WeDt-p-132" value="History log" style="verticalLabelPosition=middle;verticalAlign=middle;html=1;shape=mxgraph.basic.rect;fillColor2=none;strokeWidth=1;size=20;indent=5;rectStyle=rounded;bottom=0;absoluteCornerSize=0;labelPosition=center;align=center;" parent="1" vertex="1">
          <mxGeometry x="1023.9273214285715" y="280" width="98.21428571428572" height="40" as="geometry" />
        </mxCell>
        <mxCell id="yeEXJO_MF2H7Z_WeDt-p-128" value="Comments" style="verticalLabelPosition=middle;verticalAlign=middle;html=1;shape=mxgraph.basic.rect;fillColor2=none;strokeWidth=1;size=20;indent=5;rectStyle=rounded;bottom=0;absoluteCornerSize=0;labelPosition=center;align=center;" parent="1" vertex="1">
          <mxGeometry x="925.7130357142858" y="280" width="98.21428571428572" height="40" as="geometry" />
        </mxCell>
        <mxCell id="yeEXJO_MF2H7Z_WeDt-p-127" value="Datasets" style="verticalLabelPosition=middle;verticalAlign=middle;html=1;shape=mxgraph.basic.rect;fillColor2=none;strokeWidth=1;size=20;indent=5;rectStyle=rounded;bottom=0;absoluteCornerSize=0;labelPosition=center;align=center;" parent="1" vertex="1">
          <mxGeometry x="827.49875" y="280" width="98.21428571428572" height="40" as="geometry" />
        </mxCell>
        <mxCell id="yeEXJO_MF2H7Z_WeDt-p-126" value="Attachments" style="verticalLabelPosition=middle;verticalAlign=middle;html=1;shape=mxgraph.basic.rect;fillColor2=none;strokeWidth=1;size=20;indent=5;rectStyle=rounded;bottom=0;absoluteCornerSize=0;labelPosition=center;align=center;" parent="1" vertex="1">
          <mxGeometry x="729.2844642857144" y="280" width="98.21428571428572" height="40" as="geometry" />
        </mxCell>
        <mxCell id="yeEXJO_MF2H7Z_WeDt-p-125" value="Editorial review" style="verticalLabelPosition=middle;verticalAlign=middle;html=1;shape=mxgraph.basic.rect;fillColor2=none;strokeWidth=1;size=20;indent=5;rectStyle=rounded;bottom=0;absoluteCornerSize=0;labelPosition=center;align=center;" parent="1" vertex="1">
          <mxGeometry x="532.8601785714286" y="280" width="98.21428571428572" height="40" as="geometry" />
        </mxCell>
        <mxCell id="yeEXJO_MF2H7Z_WeDt-p-124" value="Contributors" style="verticalLabelPosition=middle;verticalAlign=middle;html=1;shape=mxgraph.basic.rect;fillColor2=none;strokeWidth=1;size=20;indent=5;rectStyle=rounded;bottom=0;absoluteCornerSize=0;labelPosition=center;align=center;fillColor=#bac8d3;strokeColor=#23445d;" parent="1" vertex="1">
          <mxGeometry x="434.64589285714294" y="280" width="98.21428571428572" height="40" as="geometry" />
        </mxCell>
        <mxCell id="yeEXJO_MF2H7Z_WeDt-p-123" value="Bibliographic" style="verticalLabelPosition=middle;verticalAlign=middle;html=1;shape=mxgraph.basic.rect;fillColor2=none;strokeWidth=1;size=20;indent=5;rectStyle=rounded;bottom=0;absoluteCornerSize=0;labelPosition=center;align=center;" parent="1" vertex="1">
          <mxGeometry x="336.43160714285716" y="280" width="98.21428571428572" height="40" as="geometry" />
        </mxCell>
        <mxCell id="yeEXJO_MF2H7Z_WeDt-p-122" value="Categories &amp;amp;&lt;div&gt;dissemination&lt;/div&gt;" style="verticalLabelPosition=middle;verticalAlign=middle;html=1;shape=mxgraph.basic.rect;fillColor2=none;strokeWidth=1;size=20;indent=5;rectStyle=rounded;bottom=0;absoluteCornerSize=0;labelPosition=center;align=center;" parent="1" vertex="1">
          <mxGeometry x="238.2173214285715" y="280" width="98.21428571428572" height="40" as="geometry" />
        </mxCell>
        <mxCell id="yeEXJO_MF2H7Z_WeDt-p-120" value="General" style="verticalLabelPosition=middle;verticalAlign=middle;html=1;shape=mxgraph.basic.rect;fillColor2=none;strokeWidth=1;size=20;indent=5;rectStyle=rounded;bottom=0;absoluteCornerSize=0;labelPosition=center;align=center;" parent="1" vertex="1">
          <mxGeometry x="140.00303571428572" y="280" width="98.21428571428572" height="40" as="geometry" />
        </mxCell>
        <mxCell id="yeEXJO_MF2H7Z_WeDt-p-141" value="Partners &amp;amp;&amp;nbsp;&lt;div&gt;Stakeholders&lt;/div&gt;" style="verticalLabelPosition=middle;verticalAlign=middle;html=1;shape=mxgraph.basic.rect;fillColor2=none;strokeWidth=1;size=20;indent=5;rectStyle=rounded;bottom=0;absoluteCornerSize=0;labelPosition=center;align=center;" parent="1" vertex="1">
          <mxGeometry x="631.0699999999999" y="280" width="98.21428571428572" height="40" as="geometry" />
        </mxCell>
        <mxCell id="yeEXJO_MF2H7Z_WeDt-p-142" value="&lt;font style=&quot;font-size: 14px;&quot;&gt;Type to search output&lt;/font&gt;" style="verticalLabelPosition=middle;verticalAlign=middle;html=1;shape=mxgraph.basic.rect;fillColor2=none;strokeWidth=1;size=20;indent=5;labelPosition=center;align=left;spacingLeft=50;fontSize=16;rectStyle=rounded;absoluteCornerSize=0;" parent="1" vertex="1">
          <mxGeometry x="200" y="40" width="720" height="30" as="geometry" />
        </mxCell>
        <mxCell id="yeEXJO_MF2H7Z_WeDt-p-143" value="BUDZINSKI RYSZARD (JRC.T.4)" style="text;strokeColor=none;align=center;fillColor=none;html=1;verticalAlign=middle;whiteSpace=wrap;rounded=0;fontColor=#FFFFFF;fontSize=15;" parent="1" vertex="1">
          <mxGeometry x="1230" y="40" width="250" height="30" as="geometry" />
        </mxCell>
        <mxCell id="yeEXJO_MF2H7Z_WeDt-p-144" value="" style="shape=image;html=1;verticalAlign=top;verticalLabelPosition=bottom;labelBackgroundColor=#ffffff;imageAspect=0;aspect=fixed;image=https://cdn4.iconfinder.com/data/icons/evil-icons-user-interface/64/magnifier-128.png" parent="1" vertex="1">
          <mxGeometry x="213.22" y="42.5" width="25" height="25" as="geometry" />
        </mxCell>
        <mxCell id="yeEXJO_MF2H7Z_WeDt-p-150" value="" style="shape=image;verticalLabelPosition=bottom;labelBackgroundColor=default;verticalAlign=top;aspect=fixed;imageAspect=0;image=data:image/png,iVBORw0KGgoAAAANSUhEUgAAAD8AAAAlCAYAAAD1EjEiAAAAAXNSR0IArs4c6QAAAARnQU1BAACxjwv8YQUAAAAJcEhZcwAADsMAAA7DAcdvqGQAAASySURBVGhD7ZlvSFtXGIcf1xVdhiWC2SoZXS1MmthhW9pJDQV1ox8iiH9AZhx0XYZf0sFKnGxE5jZMZ6eOweygRZf1Q1yxWDtQqVLT0uFKu7FOWk1poekKwW4p6Oh2UUpxH9R683oTo8VYTB8IJM97ueR3z73vOTlJwlQ5TYLynBSJxLPwicqz8IlK0rK6/aZsnPYSqvIyMaXrSEkW9SmFe3cD+M4P0fzNBa6K8tPC0sJvstD8eQWOXQZS1sliBB4p+Hs7qfp44Km7CDGH31F1iK6a3WTKUY6V+7doqa+n5rwsrB4xPfNW12F8ricIDpD+Gs6vv6P3PYOsrBqLhre6m+iq2oxeFpZDsh7rB7W0FcjC6rAOw+ufSfmY0louOrKiB38QxNfvo8UziPfcHe4l68l6ZQMpkS7r8xvYmbeVf8/9zKV/ZDG+RHnm8+m9WI01Xfp5Jm4M4PjwBzruisK2EgaPVVCYJryKyeEzmCs7CchCHIk0PhS6i6IGZ3yEhjKN4ADXz/Bm3RCBR7IwT0pOPq2l0saXCOEtOPcapQzDf+E4LVKqOX+U9uGH0qrQU1heImVc0Q5fbGFntFFHYexmSMoFuP/8W6owUrbuoEHKOKIZPjPPyEYpVwKdkT1VUobj9LQx3VNNW08H06Mzr1G3xjGztenRJtrCyxHRDF/28otSCXRkZC0+X7tefUkqgY4Ms3QabMmnPOQlyWwj6cgIGaXzF8DpaaM5d5x2s40ks42ay2nYY7wAmuFNBp1UCzDlV+OUUk2BA3vOemkXkKa3SLWQByM0HOideX/CTddtMOVUA9XYc3X4uz/i/dlDWw5043tgpNxTpD6DJprhYyItm7rT72LbJAuzU12DhcwY1v8puqiriBlCobDm6g8pYDDg3G8gA4Wxm6oivQQWb0fwROEB/dZ9eE81MdhYgaPYgq24hNZjTYz/GH2OVzOpTEgVNzTD+0OKVJFJNVJYXEJrowNvYwWOvUb0MYz4HOMTQ1ItxGAIe8RMBt3M3XAixBg6MrJURYrIXLwdQaTwp//6T6oVQmFsVDoNUrOxz3X4/S7Ktyj4Th0HjtN+WcFUOt/gnJ5SClODdM31iChoL2+Laxlr3B5xupsM3sJ7qoeOs7/iIxt7mYXCjeuBhwSuXaHL+wdXt23H8VYBjsrdmFLlGWZRbuHeVU+d9CqcnjaazeP4MT4+j7/bhtkljsmda9JB2s3zDTAa2uGx0HvRobG8Vbh60kP5F0NLWJNvxuWpo+Hxl5tn8vdOXnjnjNRhzIQPUJPrjr6iXAaatz0McbD/jpQE+lvZuaTgAHdwH/iElhtyqTuBryt68JUmQngIuAfou682CoFrQbVYAiF8N8O7+uTwBQ52h6m4E+G2n6W0ljG36tmfmqDv23qKvo9xIgXAgO3TQxx9W7UhMj5CTaWbFq1fhHEk4sgD0P0V9u4gk3Ofk/VYa5q57anSXtxItu3D+9OXeNXBp4K0161+cBYd+VmsrsN45VbWIwX/byP4Ll2h75ch+q7P6Mzc3Vj3vEFZQTZ5W/Thu7xTIU4faaD85FLunJUjpvCs0d3bmMNDAu/bh5GQ/9isMaJ3+zXOs/CJyv8z4pcE6Rc+QgAAAABJRU5ErkJggg==;" parent="1" vertex="1">
          <mxGeometry x="1480" y="36.5" width="63" height="37" as="geometry" />
        </mxCell>
        <mxCell id="yeEXJO_MF2H7Z_WeDt-p-151" value="&lt;font style=&quot;color: rgb(0, 0, 255);&quot;&gt;Back&lt;/font&gt; &amp;gt; Workflow request" style="verticalLabelPosition=middle;verticalAlign=middle;html=1;shape=mxgraph.basic.rect;fillColor2=none;strokeWidth=1;size=20;indent=5;labelPosition=center;align=left;spacingLeft=10;fontSize=14;fillColor=#eeeeee;strokeColor=#36393d;rectStyle=rounded;absoluteCornerSize=0;" parent="1" vertex="1">
          <mxGeometry x="140" y="100" width="260" height="40" as="geometry" />
        </mxCell>
        <mxCell id="yeEXJO_MF2H7Z_WeDt-p-152" value="Quick summary" style="text;html=1;align=center;verticalAlign=middle;resizable=0;points=[];autosize=1;strokeColor=none;fillColor=none;fontSize=15;fontStyle=1" parent="1" vertex="1">
          <mxGeometry x="1250" y="170" width="130" height="30" as="geometry" />
        </mxCell>
        <mxCell id="yeEXJO_MF2H7Z_WeDt-p-159" value="List Item" style="text;strokeColor=none;fillColor=none;align=left;verticalAlign=middle;spacingLeft=4;spacingRight=4;overflow=hidden;points=[[0,0.5],[1,0.5]];portConstraint=eastwest;rotatable=0;whiteSpace=wrap;html=1;" parent="1" vertex="1">
          <mxGeometry x="1250" y="210" width="80" height="30" as="geometry" />
        </mxCell>
        <mxCell id="yeEXJO_MF2H7Z_WeDt-p-161" value="List Item" style="text;strokeColor=none;fillColor=none;align=left;verticalAlign=middle;spacingLeft=4;spacingRight=4;overflow=hidden;points=[[0,0.5],[1,0.5]];portConstraint=eastwest;rotatable=0;whiteSpace=wrap;html=1;" parent="1" vertex="1">
          <mxGeometry x="1250" y="240" width="80" height="30" as="geometry" />
        </mxCell>
        <mxCell id="yeEXJO_MF2H7Z_WeDt-p-162" value="List Item" style="text;strokeColor=none;fillColor=none;align=left;verticalAlign=middle;spacingLeft=4;spacingRight=4;overflow=hidden;points=[[0,0.5],[1,0.5]];portConstraint=eastwest;rotatable=0;whiteSpace=wrap;html=1;" parent="1" vertex="1">
          <mxGeometry x="1250" y="270" width="80" height="30" as="geometry" />
        </mxCell>
        <mxCell id="yeEXJO_MF2H7Z_WeDt-p-163" value="List Item" style="text;strokeColor=none;fillColor=none;align=left;verticalAlign=middle;spacingLeft=4;spacingRight=4;overflow=hidden;points=[[0,0.5],[1,0.5]];portConstraint=eastwest;rotatable=0;whiteSpace=wrap;html=1;" parent="1" vertex="1">
          <mxGeometry x="1250" y="300" width="80" height="30" as="geometry" />
        </mxCell>
        <mxCell id="yeEXJO_MF2H7Z_WeDt-p-166" value="Missing for next workflow step" style="text;html=1;align=center;verticalAlign=middle;resizable=0;points=[];autosize=1;strokeColor=none;fillColor=none;fontSize=15;fontStyle=1" parent="1" vertex="1">
          <mxGeometry x="1250" y="350" width="220" height="30" as="geometry" />
        </mxCell>
        <mxCell id="yeEXJO_MF2H7Z_WeDt-p-167" value="" style="swimlane;fontStyle=0;childLayout=stackLayout;horizontal=1;startSize=0;horizontalStack=0;resizeParent=1;resizeParentMax=0;resizeLast=0;collapsible=0;marginBottom=0;whiteSpace=wrap;html=1;strokeColor=none;fillColor=none;" parent="1" vertex="1">
          <mxGeometry x="1250" y="400" width="300" height="120" as="geometry" />
        </mxCell>
        <mxCell id="yeEXJO_MF2H7Z_WeDt-p-168" value="Name" style="text;strokeColor=#DFDFDF;fillColor=#F7F7F7;align=left;verticalAlign=middle;spacingLeft=10;spacingRight=10;overflow=hidden;points=[[0,0.5],[1,0.5]];portConstraint=eastwest;rotatable=0;whiteSpace=wrap;html=1;shape=mxgraph.bootstrap.topButton;rSize=5;fontColor=#333333;" parent="yeEXJO_MF2H7Z_WeDt-p-167" vertex="1">
          <mxGeometry width="300" height="30" as="geometry" />
        </mxCell>
        <mxCell id="yeEXJO_MF2H7Z_WeDt-p-169" value="Cras justo odio" style="text;strokeColor=#DFDFDF;fillColor=#FFFFFF;align=left;verticalAlign=middle;spacingLeft=10;spacingRight=10;overflow=hidden;points=[[0,0.5],[1,0.5]];portConstraint=eastwest;rotatable=0;whiteSpace=wrap;html=1;rSize=5;fontColor=#333333;" parent="yeEXJO_MF2H7Z_WeDt-p-167" vertex="1">
          <mxGeometry y="30" width="300" height="30" as="geometry" />
        </mxCell>
        <mxCell id="yeEXJO_MF2H7Z_WeDt-p-170" value="Dapibus ac facilisis in" style="text;strokeColor=#DFDFDF;fillColor=#FFFFFF;align=left;verticalAlign=middle;spacingLeft=10;spacingRight=10;overflow=hidden;points=[[0,0.5],[1,0.5]];portConstraint=eastwest;rotatable=0;whiteSpace=wrap;html=1;rSize=5;fontColor=#333333;" parent="yeEXJO_MF2H7Z_WeDt-p-167" vertex="1">
          <mxGeometry y="60" width="300" height="30" as="geometry" />
        </mxCell>
        <mxCell id="yeEXJO_MF2H7Z_WeDt-p-171" value="Vestibulum at eros" style="text;strokeColor=#DFDFDF;fillColor=#FFFFFF;align=left;verticalAlign=middle;spacingLeft=10;spacingRight=10;overflow=hidden;points=[[0,0.5],[1,0.5]];portConstraint=eastwest;rotatable=0;whiteSpace=wrap;html=1;shape=mxgraph.bootstrap.bottomButton;rSize=5;fontColor=#333333;" parent="yeEXJO_MF2H7Z_WeDt-p-167" vertex="1">
          <mxGeometry y="90" width="300" height="30" as="geometry" />
        </mxCell>
        <mxCell id="yeEXJO_MF2H7Z_WeDt-p-175" value="i" style="ellipse;whiteSpace=wrap;html=1;aspect=fixed;" parent="1" vertex="1">
          <mxGeometry x="270" y="160" width="20" height="20" as="geometry" />
        </mxCell>
        <UserObject label="Manage contributors" link="data:page/id,dKuC8U5UuyInBoBZ48gH" id="yeEXJO_MF2H7Z_WeDt-p-176">
          <mxCell style="rounded=1;whiteSpace=wrap;html=1;fillColor=#004494;fontColor=#ffffff;strokeColor=#314354;glass=0;fontSize=14;" parent="1" vertex="1">
            <mxGeometry x="140" y="340" width="140" height="30" as="geometry" />
          </mxCell>
        </UserObject>
        <mxCell id="yeEXJO_MF2H7Z_WeDt-p-178" value="" style="swimlane;fontStyle=0;childLayout=stackLayout;horizontal=1;startSize=0;horizontalStack=0;resizeParent=1;resizeParentMax=0;resizeLast=0;collapsible=0;marginBottom=0;whiteSpace=wrap;html=1;strokeColor=none;fillColor=none;" parent="1" vertex="1">
          <mxGeometry x="150" y="450" width="60" height="200" as="geometry" />
        </mxCell>
        <mxCell id="yeEXJO_MF2H7Z_WeDt-p-179" value="Order" style="text;strokeColor=#DFDFDF;fillColor=#F7F7F7;align=left;verticalAlign=middle;spacingLeft=10;spacingRight=10;overflow=hidden;points=[[0,0.5],[1,0.5]];portConstraint=eastwest;rotatable=0;whiteSpace=wrap;html=1;shape=mxgraph.bootstrap.topButton;rSize=5;fontColor=#333333;fontStyle=1" parent="yeEXJO_MF2H7Z_WeDt-p-178" vertex="1">
          <mxGeometry width="60" height="50" as="geometry" />
        </mxCell>
        <mxCell id="yeEXJO_MF2H7Z_WeDt-p-180" value="1" style="text;strokeColor=#DFDFDF;fillColor=#FFFFFF;align=left;verticalAlign=middle;spacingLeft=10;spacingRight=10;overflow=hidden;points=[[0,0.5],[1,0.5]];portConstraint=eastwest;rotatable=0;whiteSpace=wrap;html=1;rSize=5;fontColor=#333333;" parent="yeEXJO_MF2H7Z_WeDt-p-178" vertex="1">
          <mxGeometry y="50" width="60" height="50" as="geometry" />
        </mxCell>
        <mxCell id="yeEXJO_MF2H7Z_WeDt-p-181" value="2" style="text;strokeColor=#DFDFDF;fillColor=#FFFFFF;align=left;verticalAlign=middle;spacingLeft=10;spacingRight=10;overflow=hidden;points=[[0,0.5],[1,0.5]];portConstraint=eastwest;rotatable=0;whiteSpace=wrap;html=1;rSize=5;fontColor=#333333;" parent="yeEXJO_MF2H7Z_WeDt-p-178" vertex="1">
          <mxGeometry y="100" width="60" height="50" as="geometry" />
        </mxCell>
        <mxCell id="yeEXJO_MF2H7Z_WeDt-p-182" value="3" style="text;strokeColor=#DFDFDF;fillColor=#FFFFFF;align=left;verticalAlign=middle;spacingLeft=10;spacingRight=10;overflow=hidden;points=[[0,0.5],[1,0.5]];portConstraint=eastwest;rotatable=0;whiteSpace=wrap;html=1;shape=mxgraph.bootstrap.bottomButton;rSize=5;fontColor=#333333;" parent="yeEXJO_MF2H7Z_WeDt-p-178" vertex="1">
          <mxGeometry y="150" width="60" height="50" as="geometry" />
        </mxCell>
        <mxCell id="yeEXJO_MF2H7Z_WeDt-p-183" value="" style="line;strokeWidth=2;html=1;" parent="1" vertex="1">
          <mxGeometry x="1250" y="200" width="300" height="10" as="geometry" />
        </mxCell>
        <mxCell id="yeEXJO_MF2H7Z_WeDt-p-184" value="" style="line;strokeWidth=2;html=1;" parent="1" vertex="1">
          <mxGeometry x="1250" y="380" width="300" height="10" as="geometry" />
        </mxCell>
        <mxCell id="yeEXJO_MF2H7Z_WeDt-p-185" value="" style="line;strokeWidth=1;html=1;" parent="1" vertex="1">
          <mxGeometry x="140" y="425" width="1060" height="10" as="geometry" />
        </mxCell>
        <mxCell id="yeEXJO_MF2H7Z_WeDt-p-186" value="Contributors" style="text;html=1;align=center;verticalAlign=middle;resizable=0;points=[];autosize=1;strokeColor=none;fillColor=none;fontSize=15;fontStyle=1" parent="1" vertex="1">
          <mxGeometry x="150" y="395" width="110" height="30" as="geometry" />
        </mxCell>
        <mxCell id="yeEXJO_MF2H7Z_WeDt-p-187" value="" style="swimlane;fontStyle=0;childLayout=stackLayout;horizontal=1;startSize=0;horizontalStack=0;resizeParent=1;resizeParentMax=0;resizeLast=0;collapsible=0;marginBottom=0;whiteSpace=wrap;html=1;strokeColor=none;fillColor=none;" parent="1" vertex="1">
          <mxGeometry x="210" y="450" width="200" height="200" as="geometry" />
        </mxCell>
        <mxCell id="yeEXJO_MF2H7Z_WeDt-p-188" value="Name" style="text;strokeColor=#DFDFDF;fillColor=#F7F7F7;align=left;verticalAlign=middle;spacingLeft=10;spacingRight=10;overflow=hidden;points=[[0,0.5],[1,0.5]];portConstraint=eastwest;rotatable=0;whiteSpace=wrap;html=1;shape=mxgraph.bootstrap.topButton;rSize=5;fontColor=#333333;fontStyle=1" parent="yeEXJO_MF2H7Z_WeDt-p-187" vertex="1">
          <mxGeometry width="200" height="50" as="geometry" />
        </mxCell>
        <mxCell id="yeEXJO_MF2H7Z_WeDt-p-189" value="Contributor 1" style="text;strokeColor=#DFDFDF;fillColor=#FFFFFF;align=left;verticalAlign=middle;spacingLeft=10;spacingRight=10;overflow=hidden;points=[[0,0.5],[1,0.5]];portConstraint=eastwest;rotatable=0;whiteSpace=wrap;html=1;rSize=5;fontColor=#333333;" parent="yeEXJO_MF2H7Z_WeDt-p-187" vertex="1">
          <mxGeometry y="50" width="200" height="50" as="geometry" />
        </mxCell>
        <mxCell id="yeEXJO_MF2H7Z_WeDt-p-190" value="Contributor 2" style="text;strokeColor=#DFDFDF;fillColor=#FFFFFF;align=left;verticalAlign=middle;spacingLeft=10;spacingRight=10;overflow=hidden;points=[[0,0.5],[1,0.5]];portConstraint=eastwest;rotatable=0;whiteSpace=wrap;html=1;rSize=5;fontColor=#333333;" parent="yeEXJO_MF2H7Z_WeDt-p-187" vertex="1">
          <mxGeometry y="100" width="200" height="50" as="geometry" />
        </mxCell>
        <mxCell id="yeEXJO_MF2H7Z_WeDt-p-191" value="Contributor 3" style="text;strokeColor=#DFDFDF;fillColor=#FFFFFF;align=left;verticalAlign=middle;spacingLeft=10;spacingRight=10;overflow=hidden;points=[[0,0.5],[1,0.5]];portConstraint=eastwest;rotatable=0;whiteSpace=wrap;html=1;shape=mxgraph.bootstrap.bottomButton;rSize=5;fontColor=#333333;" parent="yeEXJO_MF2H7Z_WeDt-p-187" vertex="1">
          <mxGeometry y="150" width="200" height="50" as="geometry" />
        </mxCell>
        <mxCell id="yeEXJO_MF2H7Z_WeDt-p-192" value="" style="swimlane;fontStyle=0;childLayout=stackLayout;horizontal=1;startSize=0;horizontalStack=0;resizeParent=1;resizeParentMax=0;resizeLast=0;collapsible=0;marginBottom=0;whiteSpace=wrap;html=1;strokeColor=none;fillColor=none;" parent="1" vertex="1">
          <mxGeometry x="410" y="450" width="110" height="200" as="geometry" />
        </mxCell>
        <mxCell id="yeEXJO_MF2H7Z_WeDt-p-193" value="Contract&amp;nbsp;&lt;div&gt;years&lt;/div&gt;" style="text;strokeColor=#DFDFDF;fillColor=#F7F7F7;align=left;verticalAlign=middle;spacingLeft=10;spacingRight=10;overflow=hidden;points=[[0,0.5],[1,0.5]];portConstraint=eastwest;rotatable=0;whiteSpace=wrap;html=1;shape=mxgraph.bootstrap.topButton;rSize=5;fontColor=#333333;fontStyle=1" parent="yeEXJO_MF2H7Z_WeDt-p-192" vertex="1">
          <mxGeometry width="110" height="50" as="geometry" />
        </mxCell>
        <mxCell id="yeEXJO_MF2H7Z_WeDt-p-194" value="2020 - 2024" style="text;strokeColor=#DFDFDF;fillColor=#FFFFFF;align=left;verticalAlign=middle;spacingLeft=10;spacingRight=10;overflow=hidden;points=[[0,0.5],[1,0.5]];portConstraint=eastwest;rotatable=0;whiteSpace=wrap;html=1;rSize=5;fontColor=#333333;" parent="yeEXJO_MF2H7Z_WeDt-p-192" vertex="1">
          <mxGeometry y="50" width="110" height="50" as="geometry" />
        </mxCell>
        <mxCell id="yeEXJO_MF2H7Z_WeDt-p-195" value="2022 - 2025" style="text;strokeColor=#DFDFDF;fillColor=#FFFFFF;align=left;verticalAlign=middle;spacingLeft=10;spacingRight=10;overflow=hidden;points=[[0,0.5],[1,0.5]];portConstraint=eastwest;rotatable=0;whiteSpace=wrap;html=1;rSize=5;fontColor=#333333;" parent="yeEXJO_MF2H7Z_WeDt-p-192" vertex="1">
          <mxGeometry y="100" width="110" height="50" as="geometry" />
        </mxCell>
        <mxCell id="yeEXJO_MF2H7Z_WeDt-p-196" value="-" style="text;strokeColor=#DFDFDF;fillColor=#FFFFFF;align=left;verticalAlign=middle;spacingLeft=10;spacingRight=10;overflow=hidden;points=[[0,0.5],[1,0.5]];portConstraint=eastwest;rotatable=0;whiteSpace=wrap;html=1;shape=mxgraph.bootstrap.bottomButton;rSize=5;fontColor=#333333;" parent="yeEXJO_MF2H7Z_WeDt-p-192" vertex="1">
          <mxGeometry y="150" width="110" height="50" as="geometry" />
        </mxCell>
        <mxCell id="yeEXJO_MF2H7Z_WeDt-p-197" value="" style="swimlane;fontStyle=0;childLayout=stackLayout;horizontal=1;startSize=0;horizontalStack=0;resizeParent=1;resizeParentMax=0;resizeLast=0;collapsible=0;marginBottom=0;whiteSpace=wrap;html=1;strokeColor=none;fillColor=none;" parent="1" vertex="1">
          <mxGeometry x="520" y="450" width="100" height="200" as="geometry" />
        </mxCell>
        <mxCell id="yeEXJO_MF2H7Z_WeDt-p-198" value="Contributor&lt;div&gt;type&lt;/div&gt;" style="text;strokeColor=#DFDFDF;fillColor=#F7F7F7;align=left;verticalAlign=middle;spacingLeft=10;spacingRight=10;overflow=hidden;points=[[0,0.5],[1,0.5]];portConstraint=eastwest;rotatable=0;whiteSpace=wrap;html=1;shape=mxgraph.bootstrap.topButton;rSize=5;fontColor=#333333;fontStyle=1" parent="yeEXJO_MF2H7Z_WeDt-p-197" vertex="1">
          <mxGeometry width="100" height="50" as="geometry" />
        </mxCell>
        <mxCell id="yeEXJO_MF2H7Z_WeDt-p-199" value="Internal&amp;nbsp;&lt;div&gt;contributor&lt;/div&gt;" style="text;strokeColor=#DFDFDF;fillColor=#FFFFFF;align=left;verticalAlign=middle;spacingLeft=10;spacingRight=10;overflow=hidden;points=[[0,0.5],[1,0.5]];portConstraint=eastwest;rotatable=0;whiteSpace=wrap;html=1;rSize=5;fontColor=#333333;" parent="yeEXJO_MF2H7Z_WeDt-p-197" vertex="1">
          <mxGeometry y="50" width="100" height="50" as="geometry" />
        </mxCell>
        <mxCell id="yeEXJO_MF2H7Z_WeDt-p-200" value="Internal&lt;div&gt;contributor&lt;/div&gt;" style="text;strokeColor=#DFDFDF;fillColor=#FFFFFF;align=left;verticalAlign=middle;spacingLeft=10;spacingRight=10;overflow=hidden;points=[[0,0.5],[1,0.5]];portConstraint=eastwest;rotatable=0;whiteSpace=wrap;html=1;rSize=5;fontColor=#333333;" parent="yeEXJO_MF2H7Z_WeDt-p-197" vertex="1">
          <mxGeometry y="100" width="100" height="50" as="geometry" />
        </mxCell>
        <mxCell id="yeEXJO_MF2H7Z_WeDt-p-201" value="External&lt;div&gt;contributor&lt;/div&gt;" style="text;strokeColor=#DFDFDF;fillColor=#FFFFFF;align=left;verticalAlign=middle;spacingLeft=10;spacingRight=10;overflow=hidden;points=[[0,0.5],[1,0.5]];portConstraint=eastwest;rotatable=0;whiteSpace=wrap;html=1;shape=mxgraph.bootstrap.bottomButton;rSize=5;fontColor=#333333;" parent="yeEXJO_MF2H7Z_WeDt-p-197" vertex="1">
          <mxGeometry y="150" width="100" height="50" as="geometry" />
        </mxCell>
        <mxCell id="yeEXJO_MF2H7Z_WeDt-p-202" value="" style="swimlane;fontStyle=0;childLayout=stackLayout;horizontal=1;startSize=0;horizontalStack=0;resizeParent=1;resizeParentMax=0;resizeLast=0;collapsible=0;marginBottom=0;whiteSpace=wrap;html=1;strokeColor=none;fillColor=none;" parent="1" vertex="1">
          <mxGeometry x="620" y="450" width="200" height="200" as="geometry" />
        </mxCell>
        <mxCell id="yeEXJO_MF2H7Z_WeDt-p-203" value="Entity / Affiliation" style="text;strokeColor=#DFDFDF;fillColor=#F7F7F7;align=left;verticalAlign=middle;spacingLeft=10;spacingRight=10;overflow=hidden;points=[[0,0.5],[1,0.5]];portConstraint=eastwest;rotatable=0;whiteSpace=wrap;html=1;shape=mxgraph.bootstrap.topButton;rSize=5;fontColor=#333333;fontStyle=1" parent="yeEXJO_MF2H7Z_WeDt-p-202" vertex="1">
          <mxGeometry width="200" height="50" as="geometry" />
        </mxCell>
        <mxCell id="yeEXJO_MF2H7Z_WeDt-p-204" value="JRC.B.5" style="text;strokeColor=#DFDFDF;fillColor=#FFFFFF;align=left;verticalAlign=middle;spacingLeft=10;spacingRight=10;overflow=hidden;points=[[0,0.5],[1,0.5]];portConstraint=eastwest;rotatable=0;whiteSpace=wrap;html=1;rSize=5;fontColor=#333333;" parent="yeEXJO_MF2H7Z_WeDt-p-202" vertex="1">
          <mxGeometry y="50" width="200" height="50" as="geometry" />
        </mxCell>
        <mxCell id="yeEXJO_MF2H7Z_WeDt-p-205" value="JRC.B.5" style="text;strokeColor=#DFDFDF;fillColor=#FFFFFF;align=left;verticalAlign=middle;spacingLeft=10;spacingRight=10;overflow=hidden;points=[[0,0.5],[1,0.5]];portConstraint=eastwest;rotatable=0;whiteSpace=wrap;html=1;rSize=5;fontColor=#333333;" parent="yeEXJO_MF2H7Z_WeDt-p-202" vertex="1">
          <mxGeometry y="100" width="200" height="50" as="geometry" />
        </mxCell>
        <mxCell id="yeEXJO_MF2H7Z_WeDt-p-206" value="European Commission, Joint Research Centre (Belgium)" style="text;strokeColor=#DFDFDF;fillColor=#FFFFFF;align=left;verticalAlign=middle;spacingLeft=10;spacingRight=10;overflow=hidden;points=[[0,0.5],[1,0.5]];portConstraint=eastwest;rotatable=0;whiteSpace=wrap;html=1;shape=mxgraph.bootstrap.bottomButton;rSize=5;fontColor=#333333;" parent="yeEXJO_MF2H7Z_WeDt-p-202" vertex="1">
          <mxGeometry y="150" width="200" height="50" as="geometry" />
        </mxCell>
        <mxCell id="yeEXJO_MF2H7Z_WeDt-p-207" value="" style="swimlane;fontStyle=0;childLayout=stackLayout;horizontal=1;startSize=0;horizontalStack=0;resizeParent=1;resizeParentMax=0;resizeLast=0;collapsible=0;marginBottom=0;whiteSpace=wrap;html=1;strokeColor=none;fillColor=none;" parent="1" vertex="1">
          <mxGeometry x="820" y="450" width="70" height="200" as="geometry" />
        </mxCell>
        <mxCell id="yeEXJO_MF2H7Z_WeDt-p-208" value="Role" style="text;strokeColor=#DFDFDF;fillColor=#F7F7F7;align=left;verticalAlign=middle;spacingLeft=10;spacingRight=10;overflow=hidden;points=[[0,0.5],[1,0.5]];portConstraint=eastwest;rotatable=0;whiteSpace=wrap;html=1;shape=mxgraph.bootstrap.topButton;rSize=5;fontColor=#333333;fontStyle=1" parent="yeEXJO_MF2H7Z_WeDt-p-207" vertex="1">
          <mxGeometry width="70" height="50" as="geometry" />
        </mxCell>
        <mxCell id="yeEXJO_MF2H7Z_WeDt-p-209" value="Author" style="text;strokeColor=#DFDFDF;fillColor=#FFFFFF;align=left;verticalAlign=middle;spacingLeft=10;spacingRight=10;overflow=hidden;points=[[0,0.5],[1,0.5]];portConstraint=eastwest;rotatable=0;whiteSpace=wrap;html=1;rSize=5;fontColor=#333333;" parent="yeEXJO_MF2H7Z_WeDt-p-207" vertex="1">
          <mxGeometry y="50" width="70" height="50" as="geometry" />
        </mxCell>
        <mxCell id="yeEXJO_MF2H7Z_WeDt-p-210" value="Author" style="text;strokeColor=#DFDFDF;fillColor=#FFFFFF;align=left;verticalAlign=middle;spacingLeft=10;spacingRight=10;overflow=hidden;points=[[0,0.5],[1,0.5]];portConstraint=eastwest;rotatable=0;whiteSpace=wrap;html=1;rSize=5;fontColor=#333333;" parent="yeEXJO_MF2H7Z_WeDt-p-207" vertex="1">
          <mxGeometry y="100" width="70" height="50" as="geometry" />
        </mxCell>
        <mxCell id="yeEXJO_MF2H7Z_WeDt-p-211" value="Authoe" style="text;strokeColor=#DFDFDF;fillColor=#FFFFFF;align=left;verticalAlign=middle;spacingLeft=10;spacingRight=10;overflow=hidden;points=[[0,0.5],[1,0.5]];portConstraint=eastwest;rotatable=0;whiteSpace=wrap;html=1;shape=mxgraph.bootstrap.bottomButton;rSize=5;fontColor=#333333;" parent="yeEXJO_MF2H7Z_WeDt-p-207" vertex="1">
          <mxGeometry y="150" width="70" height="50" as="geometry" />
        </mxCell>
        <mxCell id="yeEXJO_MF2H7Z_WeDt-p-212" value="" style="swimlane;fontStyle=0;childLayout=stackLayout;horizontal=1;startSize=0;horizontalStack=0;resizeParent=1;resizeParentMax=0;resizeLast=0;collapsible=0;marginBottom=0;whiteSpace=wrap;html=1;strokeColor=none;fillColor=none;" parent="1" vertex="1">
          <mxGeometry x="890" y="450" width="200" height="200" as="geometry" />
        </mxCell>
        <mxCell id="yeEXJO_MF2H7Z_WeDt-p-213" value="ORCID" style="text;strokeColor=#DFDFDF;fillColor=#F7F7F7;align=left;verticalAlign=middle;spacingLeft=10;spacingRight=10;overflow=hidden;points=[[0,0.5],[1,0.5]];portConstraint=eastwest;rotatable=0;whiteSpace=wrap;html=1;shape=mxgraph.bootstrap.topButton;rSize=5;fontColor=#333333;fontStyle=1" parent="yeEXJO_MF2H7Z_WeDt-p-212" vertex="1">
          <mxGeometry width="200" height="50" as="geometry" />
        </mxCell>
        <mxCell id="yeEXJO_MF2H7Z_WeDt-p-214" value="Contributor 1" style="text;strokeColor=#DFDFDF;fillColor=#FFFFFF;align=left;verticalAlign=middle;spacingLeft=10;spacingRight=10;overflow=hidden;points=[[0,0.5],[1,0.5]];portConstraint=eastwest;rotatable=0;whiteSpace=wrap;html=1;rSize=5;fontColor=#333333;" parent="yeEXJO_MF2H7Z_WeDt-p-212" vertex="1">
          <mxGeometry y="50" width="200" height="50" as="geometry" />
        </mxCell>
        <mxCell id="yeEXJO_MF2H7Z_WeDt-p-215" value="Contributor 2" style="text;strokeColor=#DFDFDF;fillColor=#FFFFFF;align=left;verticalAlign=middle;spacingLeft=10;spacingRight=10;overflow=hidden;points=[[0,0.5],[1,0.5]];portConstraint=eastwest;rotatable=0;whiteSpace=wrap;html=1;rSize=5;fontColor=#333333;" parent="yeEXJO_MF2H7Z_WeDt-p-212" vertex="1">
          <mxGeometry y="100" width="200" height="50" as="geometry" />
        </mxCell>
        <mxCell id="yeEXJO_MF2H7Z_WeDt-p-216" value="Contributor 3" style="text;strokeColor=#DFDFDF;fillColor=#FFFFFF;align=left;verticalAlign=middle;spacingLeft=10;spacingRight=10;overflow=hidden;points=[[0,0.5],[1,0.5]];portConstraint=eastwest;rotatable=0;whiteSpace=wrap;html=1;shape=mxgraph.bootstrap.bottomButton;rSize=5;fontColor=#333333;" parent="yeEXJO_MF2H7Z_WeDt-p-212" vertex="1">
          <mxGeometry y="150" width="200" height="50" as="geometry" />
        </mxCell>
        <mxCell id="yeEXJO_MF2H7Z_WeDt-p-217" value="" style="swimlane;fontStyle=0;childLayout=stackLayout;horizontal=1;startSize=0;horizontalStack=0;resizeParent=1;resizeParentMax=0;resizeLast=0;collapsible=0;marginBottom=0;whiteSpace=wrap;html=1;strokeColor=none;fillColor=none;" parent="1" vertex="1">
          <mxGeometry x="1090" y="450" width="70" height="200" as="geometry" />
        </mxCell>
        <mxCell id="yeEXJO_MF2H7Z_WeDt-p-218" value="Corresp." style="text;strokeColor=#DFDFDF;fillColor=#F7F7F7;align=left;verticalAlign=middle;spacingLeft=10;spacingRight=10;overflow=hidden;points=[[0,0.5],[1,0.5]];portConstraint=eastwest;rotatable=0;whiteSpace=wrap;html=1;shape=mxgraph.bootstrap.topButton;rSize=5;fontColor=#333333;fontStyle=1" parent="yeEXJO_MF2H7Z_WeDt-p-217" vertex="1">
          <mxGeometry width="70" height="50" as="geometry" />
        </mxCell>
        <mxCell id="yeEXJO_MF2H7Z_WeDt-p-219" value="" style="text;strokeColor=#DFDFDF;fillColor=#FFFFFF;align=left;verticalAlign=middle;spacingLeft=10;spacingRight=10;overflow=hidden;points=[[0,0.5],[1,0.5]];portConstraint=eastwest;rotatable=0;whiteSpace=wrap;html=1;rSize=5;fontColor=#333333;" parent="yeEXJO_MF2H7Z_WeDt-p-217" vertex="1">
          <mxGeometry y="50" width="70" height="50" as="geometry" />
        </mxCell>
        <mxCell id="yeEXJO_MF2H7Z_WeDt-p-220" value="" style="text;strokeColor=#DFDFDF;fillColor=#FFFFFF;align=left;verticalAlign=middle;spacingLeft=10;spacingRight=10;overflow=hidden;points=[[0,0.5],[1,0.5]];portConstraint=eastwest;rotatable=0;whiteSpace=wrap;html=1;rSize=5;fontColor=#333333;" parent="yeEXJO_MF2H7Z_WeDt-p-217" vertex="1">
          <mxGeometry y="100" width="70" height="50" as="geometry" />
        </mxCell>
        <mxCell id="yeEXJO_MF2H7Z_WeDt-p-221" value="" style="text;strokeColor=#DFDFDF;fillColor=#FFFFFF;align=left;verticalAlign=middle;spacingLeft=10;spacingRight=10;overflow=hidden;points=[[0,0.5],[1,0.5]];portConstraint=eastwest;rotatable=0;whiteSpace=wrap;html=1;shape=mxgraph.bootstrap.bottomButton;rSize=5;fontColor=#333333;" parent="yeEXJO_MF2H7Z_WeDt-p-217" vertex="1">
          <mxGeometry y="150" width="70" height="50" as="geometry" />
        </mxCell>
        <mxCell id="uDhKDmMqAi7ScEjl9Z7m-1" value="Validated by IPO" style="ellipse;whiteSpace=wrap;html=1;aspect=fixed;labelPosition=center;verticalLabelPosition=bottom;align=center;verticalAlign=top;" parent="1" vertex="1">
          <mxGeometry x="1070" y="190" width="20" height="20" as="geometry" />
        </mxCell>
        <mxCell id="yeEXJO_MF2H7Z_WeDt-p-84" value="" style="endArrow=none;html=1;rounded=0;" parent="1" source="yeEXJO_MF2H7Z_WeDt-p-85" target="yeEXJO_MF2H7Z_WeDt-p-82" edge="1">
          <mxGeometry width="50" height="50" relative="1" as="geometry">
            <mxPoint x="1170" y="210" as="sourcePoint" />
            <mxPoint x="170" y="210" as="targetPoint" />
          </mxGeometry>
        </mxCell>
        <mxCell id="yeEXJO_MF2H7Z_WeDt-p-82" value="Created" style="ellipse;whiteSpace=wrap;html=1;aspect=fixed;shadow=0;perimeterSpacing=0;fillColor=#002959;fontColor=default;strokeColor=#314354;labelPosition=center;verticalLabelPosition=bottom;align=center;verticalAlign=top;" parent="1" vertex="1">
          <mxGeometry x="170" y="190" width="20" height="20" as="geometry" />
        </mxCell>
        <mxCell id="yeEXJO_MF2H7Z_WeDt-p-86" value="" style="endArrow=none;html=1;rounded=0;" parent="1" source="yeEXJO_MF2H7Z_WeDt-p-87" target="yeEXJO_MF2H7Z_WeDt-p-85" edge="1">
          <mxGeometry width="50" height="50" relative="1" as="geometry">
            <mxPoint x="1170" y="210" as="sourcePoint" />
            <mxPoint x="250" y="210" as="targetPoint" />
          </mxGeometry>
        </mxCell>
        <mxCell id="yeEXJO_MF2H7Z_WeDt-p-85" value="Submitted" style="ellipse;whiteSpace=wrap;html=1;aspect=fixed;fillColor=#002959;fontColor=default;strokeColor=#314354;labelPosition=center;verticalLabelPosition=bottom;align=center;verticalAlign=top;" parent="1" vertex="1">
          <mxGeometry x="270" y="190" width="20" height="20" as="geometry" />
        </mxCell>
        <mxCell id="yeEXJO_MF2H7Z_WeDt-p-90" value="" style="endArrow=none;html=1;rounded=0;" parent="1" source="yeEXJO_MF2H7Z_WeDt-p-91" target="yeEXJO_MF2H7Z_WeDt-p-89" edge="1">
          <mxGeometry width="50" height="50" relative="1" as="geometry">
            <mxPoint x="1170" y="210" as="sourcePoint" />
            <mxPoint x="370" y="210" as="targetPoint" />
          </mxGeometry>
        </mxCell>
        <mxCell id="yeEXJO_MF2H7Z_WeDt-p-89" value="Review initiated" style="ellipse;whiteSpace=wrap;html=1;aspect=fixed;labelPosition=center;verticalLabelPosition=bottom;align=center;verticalAlign=top;" parent="1" vertex="1">
          <mxGeometry x="570" y="190" width="20" height="20" as="geometry" />
        </mxCell>
        <mxCell id="yeEXJO_MF2H7Z_WeDt-p-92" value="" style="endArrow=none;html=1;rounded=0;" parent="1" source="yeEXJO_MF2H7Z_WeDt-p-93" target="yeEXJO_MF2H7Z_WeDt-p-91" edge="1">
          <mxGeometry width="50" height="50" relative="1" as="geometry">
            <mxPoint x="1170" y="210" as="sourcePoint" />
            <mxPoint x="730" y="210" as="targetPoint" />
          </mxGeometry>
        </mxCell>
        <mxCell id="yeEXJO_MF2H7Z_WeDt-p-91" value="Review completed" style="ellipse;whiteSpace=wrap;html=1;aspect=fixed;labelPosition=center;verticalLabelPosition=bottom;align=center;verticalAlign=top;" parent="1" vertex="1">
          <mxGeometry x="670" y="190" width="20" height="20" as="geometry" />
        </mxCell>
        <mxCell id="yeEXJO_MF2H7Z_WeDt-p-94" value="" style="endArrow=none;html=1;rounded=0;" parent="1" source="yeEXJO_MF2H7Z_WeDt-p-95" target="yeEXJO_MF2H7Z_WeDt-p-93" edge="1">
          <mxGeometry width="50" height="50" relative="1" as="geometry">
            <mxPoint x="1170" y="210" as="sourcePoint" />
            <mxPoint x="850" y="210" as="targetPoint" />
          </mxGeometry>
        </mxCell>
        <mxCell id="yeEXJO_MF2H7Z_WeDt-p-93" value="Authorised by Director" style="ellipse;whiteSpace=wrap;html=1;aspect=fixed;labelPosition=center;verticalLabelPosition=bottom;align=center;verticalAlign=top;" parent="1" vertex="1">
          <mxGeometry x="770" y="190" width="20" height="20" as="geometry" />
        </mxCell>
        <mxCell id="yeEXJO_MF2H7Z_WeDt-p-96" value="" style="endArrow=none;html=1;rounded=0;" parent="1" source="yeEXJO_MF2H7Z_WeDt-p-97" target="yeEXJO_MF2H7Z_WeDt-p-87" edge="1">
          <mxGeometry width="50" height="50" relative="1" as="geometry">
            <mxPoint x="690" y="210" as="sourcePoint" />
            <mxPoint x="330" y="210" as="targetPoint" />
            <Array as="points" />
          </mxGeometry>
        </mxCell>
        <mxCell id="yeEXJO_MF2H7Z_WeDt-p-87" value="Approved by HoU" style="ellipse;whiteSpace=wrap;html=1;aspect=fixed;verticalAlign=top;labelPosition=center;verticalLabelPosition=bottom;align=center;" parent="1" vertex="1">
          <mxGeometry x="370" y="190" width="20" height="20" as="geometry" />
        </mxCell>
        <mxCell id="yeEXJO_MF2H7Z_WeDt-p-97" value="Validated by IPO" style="ellipse;whiteSpace=wrap;aspect=fixed;html=1;labelPosition=center;verticalLabelPosition=bottom;align=center;verticalAlign=top;" parent="1" vertex="1">
          <mxGeometry x="470" y="190" width="20" height="20" as="geometry" />
        </mxCell>
        <mxCell id="yeEXJO_MF2H7Z_WeDt-p-99" value="" style="endArrow=none;html=1;rounded=0;" parent="1" source="yeEXJO_MF2H7Z_WeDt-p-100" target="yeEXJO_MF2H7Z_WeDt-p-95" edge="1">
          <mxGeometry width="50" height="50" relative="1" as="geometry">
            <mxPoint x="1170" y="210" as="sourcePoint" />
            <mxPoint x="930" y="210" as="targetPoint" />
          </mxGeometry>
        </mxCell>
        <mxCell id="yeEXJO_MF2H7Z_WeDt-p-95" value="Identifiers assigned" style="ellipse;whiteSpace=wrap;html=1;aspect=fixed;labelPosition=center;verticalLabelPosition=bottom;align=center;verticalAlign=top;" parent="1" vertex="1">
          <mxGeometry x="870" y="190" width="20" height="20" as="geometry" />
        </mxCell>
        <mxCell id="yeEXJO_MF2H7Z_WeDt-p-100" value="Declared ready by Applicant" style="ellipse;whiteSpace=wrap;html=1;aspect=fixed;labelPosition=center;verticalLabelPosition=bottom;align=center;verticalAlign=top;" parent="1" vertex="1">
          <mxGeometry x="970" y="190" width="20" height="20" as="geometry" />
        </mxCell>
        <mxCell id="yeEXJO_MF2H7Z_WeDt-p-110" value="" style="endArrow=none;html=1;rounded=0;exitX=0;exitY=0.5;exitDx=0;exitDy=0;entryX=1;entryY=0.5;entryDx=0;entryDy=0;" parent="1" source="yeEXJO_MF2H7Z_WeDt-p-89" target="yeEXJO_MF2H7Z_WeDt-p-97" edge="1">
          <mxGeometry width="50" height="50" relative="1" as="geometry">
            <mxPoint x="650" y="204.41" as="sourcePoint" />
            <mxPoint x="560" y="204" as="targetPoint" />
            <Array as="points" />
          </mxGeometry>
        </mxCell>
        <mxCell id="yOt47xlXSqSxxsOtlJ_T-1" value="" style="endArrow=none;html=1;rounded=0;entryX=1;entryY=0.5;entryDx=0;entryDy=0;exitX=0;exitY=0.5;exitDx=0;exitDy=0;" edge="1" parent="1" source="uDhKDmMqAi7ScEjl9Z7m-1" target="yeEXJO_MF2H7Z_WeDt-p-100">
          <mxGeometry width="50" height="50" relative="1" as="geometry">
            <mxPoint x="1040" y="180" as="sourcePoint" />
            <mxPoint x="1000" y="200" as="targetPoint" />
          </mxGeometry>
        </mxCell>
        <mxCell id="yOt47xlXSqSxxsOtlJ_T-2" value="Registered by PUBSY team" style="ellipse;whiteSpace=wrap;html=1;aspect=fixed;labelPosition=center;verticalLabelPosition=bottom;align=center;verticalAlign=top;" vertex="1" parent="1">
          <mxGeometry x="1170" y="190" width="20" height="20" as="geometry" />
        </mxCell>
        <mxCell id="yOt47xlXSqSxxsOtlJ_T-3" value="" style="endArrow=none;html=1;rounded=0;exitX=0;exitY=0.5;exitDx=0;exitDy=0;entryX=1;entryY=0.5;entryDx=0;entryDy=0;" edge="1" parent="1" source="yOt47xlXSqSxxsOtlJ_T-2" target="uDhKDmMqAi7ScEjl9Z7m-1">
          <mxGeometry width="50" height="50" relative="1" as="geometry">
            <mxPoint x="1170" y="200" as="sourcePoint" />
            <mxPoint x="1110" y="180" as="targetPoint" />
          </mxGeometry>
        </mxCell>
      </root>
    </mxGraphModel>
  </diagram>
  <diagram name="Page-Manage_contributors_" id="dKuC8U5UuyInBoBZ48gH">
    <mxGraphModel dx="1404" dy="772" grid="1" gridSize="10" guides="1" tooltips="1" connect="1" arrows="1" fold="1" page="1" pageScale="1" pageWidth="1200" pageHeight="780" math="0" shadow="0">
      <root>
        <mxCell id="_WOlv533GRxd8s_ARorU-0" />
        <mxCell id="_WOlv533GRxd8s_ARorU-1" parent="_WOlv533GRxd8s_ARorU-0" />
        <mxCell id="UTMaHvHVl8sD5XrVfavF-0" value="" style="rounded=1;whiteSpace=wrap;html=1;arcSize=10;absoluteArcSize=1;connectable=0;allowArrows=0;" vertex="1" parent="_WOlv533GRxd8s_ARorU-1">
          <mxGeometry width="1200" height="780" as="geometry" />
        </mxCell>
        <mxCell id="_WOlv533GRxd8s_ARorU-2" value="" style="verticalLabelPosition=bottom;verticalAlign=top;html=1;shape=mxgraph.basic.rect;fillColor2=none;strokeWidth=1;size=20;indent=5;strokeColor=#B3B3B3;" parent="_WOlv533GRxd8s_ARorU-1" vertex="1">
          <mxGeometry x="40" y="120" width="1120" height="480" as="geometry" />
        </mxCell>
        <mxCell id="_WOlv533GRxd8s_ARorU-3" value="" style="verticalLabelPosition=bottom;verticalAlign=top;html=1;shape=mxgraph.basic.rect;fillColor2=none;strokeWidth=1;size=5;indent=5;fillColor=#eeeeee;strokeColor=#B3B3B3;rectStyle=rounded;absoluteCornerSize=0;" parent="_WOlv533GRxd8s_ARorU-1" vertex="1">
          <mxGeometry x="80" y="160" width="1040" height="65" as="geometry" />
        </mxCell>
        <mxCell id="_WOlv533GRxd8s_ARorU-4" value="Contributors" style="verticalLabelPosition=middle;verticalAlign=middle;html=1;shape=mxgraph.basic.rect;fillColor2=none;strokeWidth=1;size=20;indent=5;rectStyle=rounded;bottom=0;absoluteCornerSize=0;labelPosition=center;align=center;fillColor=#CCCCCC;fontSize=14;fontStyle=1;strokeColor=#B3B3B3;" parent="_WOlv533GRxd8s_ARorU-1" vertex="1">
          <mxGeometry x="50.003035714285716" y="80" width="98.21428571428572" height="40" as="geometry" />
        </mxCell>
        <UserObject label="Manage affiliations" link="data:page/id,zFEpk0A5Zmocg5hjf9nW" id="_WOlv533GRxd8s_ARorU-5">
          <mxCell style="rounded=1;whiteSpace=wrap;html=1;fillColor=#004494;fontColor=#ffffff;strokeColor=#314354;glass=0;fontSize=14;" parent="_WOlv533GRxd8s_ARorU-1" vertex="1">
            <mxGeometry x="940" y="177.5" width="160" height="30" as="geometry" />
          </mxCell>
        </UserObject>
        <mxCell id="_WOlv533GRxd8s_ARorU-6" value="&lt;font style=&quot;font-size: 14px;&quot;&gt;Type to add contributor&lt;/font&gt;" style="verticalLabelPosition=middle;verticalAlign=middle;html=1;shape=mxgraph.basic.rect;fillColor2=none;strokeWidth=1;size=10;indent=5;labelPosition=center;align=left;spacingLeft=50;fontSize=16;rectStyle=rounded;absoluteCornerSize=0;" parent="_WOlv533GRxd8s_ARorU-1" vertex="1">
          <mxGeometry x="100" y="177.5" width="290" height="30" as="geometry" />
        </mxCell>
        <mxCell id="_WOlv533GRxd8s_ARorU-7" value="" style="shape=image;html=1;verticalAlign=top;verticalLabelPosition=bottom;labelBackgroundColor=#ffffff;imageAspect=0;aspect=fixed;image=https://cdn4.iconfinder.com/data/icons/evil-icons-user-interface/64/magnifier-128.png" parent="_WOlv533GRxd8s_ARorU-1" vertex="1">
          <mxGeometry x="116.61000000000001" y="180" width="25" height="25" as="geometry" />
        </mxCell>
        <UserObject label="New affiliation" link="data:page/id,5inCkX1xJMI1XTDhyWEV" id="_WOlv533GRxd8s_ARorU-8">
          <mxCell style="rounded=1;whiteSpace=wrap;html=1;fillColor=#004494;fontColor=#ffffff;strokeColor=#314354;glass=0;fontSize=14;" parent="_WOlv533GRxd8s_ARorU-1" vertex="1">
            <mxGeometry x="770" y="177.5" width="160" height="30" as="geometry" />
          </mxCell>
        </UserObject>
        <UserObject label="New external contributor" id="_WOlv533GRxd8s_ARorU-9">
          <mxCell style="rounded=1;whiteSpace=wrap;html=1;fillColor=#004494;fontColor=#ffffff;strokeColor=#314354;glass=0;fontSize=14;" parent="_WOlv533GRxd8s_ARorU-1" vertex="1">
            <mxGeometry x="580" y="177.5" width="180" height="30" as="geometry" />
          </mxCell>
        </UserObject>
        <mxCell id="_WOlv533GRxd8s_ARorU-10" value="" style="verticalLabelPosition=bottom;verticalAlign=top;html=1;shape=mxgraph.basic.rect;fillColor2=none;strokeWidth=1;size=5;indent=5;fillColor=#eeeeee;strokeColor=#B3B3B3;rectStyle=rounded;absoluteCornerSize=0;" parent="_WOlv533GRxd8s_ARorU-1" vertex="1">
          <mxGeometry x="80" y="470" width="1040" height="65" as="geometry" />
        </mxCell>
        <UserObject label="Order A-Z" id="_WOlv533GRxd8s_ARorU-11">
          <mxCell style="rounded=1;whiteSpace=wrap;html=1;fillColor=#004494;fontColor=#ffffff;strokeColor=#314354;glass=0;fontSize=14;" parent="_WOlv533GRxd8s_ARorU-1" vertex="1">
            <mxGeometry x="940" y="487.5" width="160" height="30" as="geometry" />
          </mxCell>
        </UserObject>
        <mxCell id="_WOlv533GRxd8s_ARorU-27" value="" style="line;strokeWidth=1;html=1;strokeColor=#CCCCCC;" parent="_WOlv533GRxd8s_ARorU-1" vertex="1">
          <mxGeometry x="10" y="50" width="1180" height="10" as="geometry" />
        </mxCell>
        <mxCell id="_WOlv533GRxd8s_ARorU-28" value="" style="line;strokeWidth=1;html=1;strokeColor=#CCCCCC;" parent="_WOlv533GRxd8s_ARorU-1" vertex="1">
          <mxGeometry x="10" y="710" width="1180" height="10" as="geometry" />
        </mxCell>
        <UserObject label="Cancel" link="data:page/id,_ocSnHtVCJIY9oDPfzE5" id="_WOlv533GRxd8s_ARorU-56">
          <mxCell style="rounded=1;whiteSpace=wrap;html=1;fillColor=#004494;fontColor=#ffffff;strokeColor=#004494;glass=0;fontSize=14;" parent="_WOlv533GRxd8s_ARorU-1" vertex="1">
            <mxGeometry x="1040" y="730" width="120" height="30" as="geometry" />
          </mxCell>
        </UserObject>
        <UserObject label="Save" id="_WOlv533GRxd8s_ARorU-57">
          <mxCell style="rounded=1;whiteSpace=wrap;html=1;fillColor=#93B0D1;fontColor=#ffffff;strokeColor=#93B0D1;glass=0;fontSize=14;" parent="_WOlv533GRxd8s_ARorU-1" vertex="1">
            <mxGeometry x="910" y="730" width="120" height="30" as="geometry" />
          </mxCell>
        </UserObject>
        <UserObject label="" link="data:page/id,_ocSnHtVCJIY9oDPfzE5" id="_WOlv533GRxd8s_ARorU-58">
          <mxCell style="shape=image;verticalLabelPosition=bottom;labelBackgroundColor=default;verticalAlign=top;aspect=fixed;imageAspect=0;image=data:image/png,iVBORw0KGgoAAAANSUhEUgAAAB8AAAAdCAYAAABSZrcyAAAAAXNSR0IArs4c6QAAAARnQU1BAACxjwv8YQUAAAAJcEhZcwAADsMAAA7DAcdvqGQAAAE7SURBVEhL7ZXBSsNAFEVvpf0cRVEoNNAsggQMSDZ+oRulKEEdIZSBpppgKtEquBURUdTaFux+XEWS10EngxqEnN3cO+E8XgipCSEESmKBBn9JJS+FSl4K/0M+nkwxuLii8RynZ+d4fhnRWIqy/PbuHts7e+j2Tmj1yZHPsbt/iIfHJ1pJUZavrSyh3Wri4LgLHoS0hsd8+DyAZRpYXV6ktRRlOQBsuQ7arSY85ucGSM+WacB17NwzX1HT+bF0PIZ+FMN1bLzPZlpi6MqRGQCAlhhF156l0ajTqDBa8o7HwIMQrmPDMg3wIITHfHrtWwrLs+87XbfuAIXkVJyiO4CyPE6G6EcxNjfWc+IU17FhWyZ4EOLy+obWcoQir6M3MUiGNJ4jihMxnkxpLEX7U/sJlNf+G1TyUqjkpfABAa76cGyM9uYAAAAASUVORK5CYII=;" parent="_WOlv533GRxd8s_ARorU-1" vertex="1">
            <mxGeometry x="1129" y="10" width="31" height="29" as="geometry" />
          </mxCell>
        </UserObject>
        <mxCell id="_WOlv533GRxd8s_ARorU-59" value="" style="shape=image;verticalLabelPosition=bottom;labelBackgroundColor=default;verticalAlign=top;aspect=fixed;imageAspect=0;image=data:image/png,iVBORw0KGgoAAAANSUhEUgAAAlYAAAApCAYAAAD3TmciAAAAAXNSR0IArs4c6QAAAARnQU1BAACxjwv8YQUAAAAJcEhZcwAADsMAAA7DAcdvqGQAAA69SURBVHhe7Z1PaBzXHce/KTkkkIIDKdhgoWoVyx3ZPaQ3X2SxRv6TrP7EIqV18MGuDkoCllqze1BpDqXVYWWDZXAQeCtBi9OSICPJm8ax8FoSIZf20IOltZWsbGUFMfQQHQIutDA9zMzOe7+dnT+7I1l2vh9Ykpn3Zt57v/d7v/d7v/dGfs40TROEEEIIIaRhfiBvEEIIIYSQ+qBjRQghhBASE3SsCCGEEEJigo4VIYQQQkhM0LEihBBCCIkJOlaEEEIIITFBx4oQQgghJCboWBFCCCGExAQdK0IIIYSQmKBjRQghhBASE3SsCCGEEEJigo4VIYQQQkhMbK1j9R95gxBCCCHk2SV+x+peAfjNEeDF54AXXwY+pXdFCAnB5iPgkf3bpN0ghDydxONYqc6UcQT49IEdrdoENmVmQggRjP0MeHkPsMf+vdwO3KHxIIQ8fdTvWEln6l8twPUV4JtPgM0HwI9bALwOdL8gnySEEJdHfwIyReD6t4BpWr/sLiCZBO7JzIQQsrOJ5ljdKwDvv1HtTD02gUIOOPQAeO0N4NA14JcA3nwbeEm+RLKBXG87Em3tSLRl8HGuH4neKZRlNg8WMu1IZJbkbZslDLe1Y7gg7yMgbQezPoXutn7k1mWCF5Zct6eN21mWTjmCvgSj6kVQm5YwrPZFpL55lgiSUwi+2wTQAvx0l3svXQBOPwAO9QMfX9d/d4rAd+oLalPO9du2pR3Df4vQRwH96Wd74tXJ7cOvTZJyrj903oYpZHaUPMPKKXYZCTnsJD0Lqosqs6C8YZHyDdsv20F4x2rqiOVMfb5Hd6ZOGMALADb/Dhi2U/XRa8BfHwBvnZRvqWZ9HrPFFCZXV7C2msVbA9NYmz2DJpkvVjpwaXUFl5LyPvl+Q73YOewCJr8AXr0O/Lxf/yXbgR8mgM+DzmFt4LMbRfRMrGBtdQWXfnEGN1anMdAs88VL07bYMPKk6MyuYC3bIW+TkGzV+NhJ/RLesdrdYv13125gX4vlTDloTtUp4N414OHJ4G3AQgaJrjEsI4+zbe3ozm1Ue7OFTGXFmQiIMqmr00QmL5MVRMRqfQrdShnduQ2R38GOUhSU/L1TKNvvs54Xq1xR/0RbBgt2kuVxTykRu+qyFzJK2pWilibr7Za9gVzvUYwWgblB9Z1qPfWyyrl+dOemKunDlzJaXZ081SuNWmWpkcjglYTaTq1cj8hB9cqkiItKWaqOLGTa0Z1bUupivUuTq5DPcKFWmxyWMNw2iDkUMdqll3f3iqKDUlYRdHkh047hnNO/Tvv1/pMy1dtktdkpo7rvqqO22vgRMvdOC5JTgzxvAP+wtwa132Pg14+B96/JJxSWMNzm1i3RO4VylS75y1NDG2sZzMh0BV3W4ctwVuBqPw4XpF1Tnq85/p20DHLqs1IfA9qkj0k94nA4WwRmBpV3+o33JQyrdTnxLo552knd3lTuD+aB4hgOS9up1L3quQqi7JD9oo8lyy46Y0WzPzXmDm8ZyXpLXfSqp00NOUjbJ8dg7fIkteY2m6qxE80Oq0hb5FfHKDoo61NbR+y25lR77KdDdWBG4ZvbpnnasMzbid+a5pePTfPbT0xzN0zzzWum+V873+9arOswPJw0U/vS5h378uurJ82Wnknza9M0zdtps0VJs/KeNK8+tC7vpA2zJb3oPqfkvZM2zJZ9hjl023lYZdEcqqSp/+91rWKlVernXNeok1V/N62SX6uzUpbIfyetllU2r/YoZT2cNFNaPe10kV+2K3W17Hlt1aW6rvL93nKRaXZdHDlUXetofS6vRZ+bnv2utEvIxdIDIVM1v6ZjaptlmySL5pBaL7tct41C3gG6LLHqqeSv0R96/9XWfylj+b6qdLW+su7adZCcQvDlBdOEYZpfygQfsoZpHrwg7wpE3TSZ+8tTyyvH2u202aL1tY4rS/HOqmsdaQ+c60o5fnVyxpg2bnz0UT4v2qTbHjddq1vN8S2vdbvnJYc76dpyMW+nq+2DnDO0saIiy3bvSdmFHUuu/ZHv8RhTSrm+Y8yzngJPOcg+dG2Kf3kSu3zZ7jjtsJq31hyvXEfTQY8yauqI3VY5t/rJPiLhI1YAsDsJ/HkF+PcXwCvXgX0vAj9SIlXPA0AR+EvIbUBfNpAbz6NnIotO51bzGXyQAUavyFWfFfI/kDlXyduZnUCPyBWO4O2gniEnjNmBvj4AfUOV7YXO4yngfsnyxpNZrGlbD3Z+FSON805ZyRR6UMTdEgAsYWZGLWsvBi6nccB5rvkMbmj13Itj3YZzUUU5N445I40PBvbadzpwaSKF5exl11M3Ujgm6lpas1dA9pZtn49cKhQuY7SYwmQlLGvXfWbcZ8XkEjlUrLar+QzO9wFzNxUdkf2DFM47+ZMp9KCEr0LUKxgDI+85bbbkt7y6FlGXFfpSlfzl3Djm+ia0/h64nAayl7Hgpf/vKboSyBIuZoGRy4rMk1lM9uVx0SsKlcxibVVpy1OIvzx1yvN5LGvjNItJOY5DsRcDsyu4URmDHijlNHWlcEDVqeYu9Bq2fQg1/mvpY3CbOrMr+hhMpmrb05Djvee4m36s26jUxbJ1Bnq7fORSYQkXs0VtLDUNjGPEqKGrNm7ZQX3vbB+77w8/lvzmjnBjTK1nKHzmjzDlSaraXczjs7C2McgOV2HZRdVuqbYlkg5qhNMRdW491m2483YMRHOsHF45ZDtY05Yz9dbrtlMF4G7IbcBA1nDXCeMrocDDWbEdpuRtTagDM4GD0s540oHzGcMtxydUX4sDbQl5S0cJF5+V8fZarJdQgoGDrcq95laolxZuSNtbNhal1SKwv1V3VloNX4PReTyF5RvzlrKVilhWJno/ymslwDD0unrW3aJpYAg9xTEc9ggFh0K0q7UtYJDIum05UXTZm9KqHfZWw+JdY1gGvPW/uQu9ofTf0TVrW1N9f0VXk+cwYljb9QmfEP/ThL88PfJ66VggezEwlMJy9qj1frm9E4pWvOp7Jizc+JeEbZO7nTKIOZloE3W8w3EaZ/KWE7teQklb1PngZRexF6/uV6/98e/7NdwthrG7iDZ3BI2xuKmrPK92O45aCLz0yc8Oe9ktD8LooEYMOtIo9TlWDq+cBLKHgJELwP/sex99CJz+VYivAcPhHDzVfjEfUGsamLbeO5GqDDi5V10XjkPVNYZWux31rXS9cAzqIEqZW1hbXcFiptowNkQyhR57xbJwMx99NRUaa6W3tnoLI4ZjDGLe894BNKzLfRPVz8cWOTIwMi/f7URXrEiLo7/WRFKHA7zT2FJ52iSz1nvn0zjgLB78JuDQbO34dyazw9lW+8OiencAatDchV4jj5mCFT1Dd1f4CHUcxNT30eYOvzG2FWx3efGy5Tq4hTTmWAHAO38AHv0R+HhT2QZ8XeaqAyviVNmK8sUrr+UNR8I2gosZw43UNEB5Po9lewB7h4d98FotrJdQuSzkMWeksRhyoHiuHkpFzxW6Swf6+oqYnZ/CzEzIbUAATYlWoFh06wpR95o4E/gEemAZ3VCIdnmtxp8sXvoZDc/+q+D1/gj676VrNejMrlQc4Nn5+tvzpPGXp45X3tJqWOHa2Ft31gRsR2oaIeL4l/i3Sf2aMtjZqG+8W9svczen8NkNhNwGrKWrG/jqvnrtj1fbXRI46Gy3OgS2JcTc4VnvLaSu8rzaLSM/Pnjpk68d9rJbDtF0UMOz7dF0pFEad6yeTwK/N6yo1T+vAQ9PASdkpnpwwuhDysrY+vKkekXg5HXPRyxkQoYNq76Oss+rxLWCUpStnOsPCMWq2GHmceWrm3Niq0I1ZoWM71aAs932rvoF3KDY3/ag83gKy9kxzIXcBgSUraPKytyuu3LWSUV+JYJCHnOwHTl7kFQm8fUpXJQyLI7hotN/hQzOzqhnS3YCUXTZm+r+U+UWrP/W5OeelyjnxpV0Z0tDfjljjwv5xdb6PGaLYc/EhGD3HmtRNllw/0kbv9/DAvBREdi3R74pNP7y1HHy6jomMnlS3ccLN/Pa2bmGiDD+JWHa5E54G8j1+tjTiOPdwdoOHMMoQm4DAp66Ws4NYbSonJsMwL/vbYdPef/CFe8t4mhzR3W9q5+Pk/rKc+cbu91OH26JHa62W/Lrw9A6qFHd9qg60iiNO1YA8M4FK2p1+kPg9NvueatGSWaxmIGyT3wUs923vFdoySwWM6XKOZCLbemQYUPrELd7/uUoRvdPeJcRkaaBcYzAOTvUjsOrQ1a4PuSKtWlgGpP7neeP4m63cojSPojotDcxbmBxIqVMno6BcLYeOnBpdQKtznkPewshsJ32gUH/bUBZ1l4MzN7CyH3nHIMl01rbXlJOicESRuadVYpzyN6u9zngvNzy6Evj4LjzbB49E3H8rSLZJokVzRvtCukcRdFlTzpwaT4NVPqvHYdvpLDoHO4U+n8W4qBnMotJu76Jtna8iyGMKGJsGpjW9altEJiwI61S17rG0FqRcZCcQvDSKaBwHhg74v6TNn6/liPAd+eByVPyTREIkKdH3pJjI8YNjITa0ncORbtlnL2fxmKNcRAJ2SdV4z8IvzbJeh/F3aFbGDHcw8iWUzRoO9zRxnsF+xygtyOikEzZZzCtCbdpYFrTdWurKEpUw7/v5Viw5hKvyI3/3KHLqPq92hgLg5BDEPWU17O/WLHDuq5ukR0Wdsu1LVF1UKdxHWmM50zTNOXNupjqB97fBOZvAz+RieTpZQnDbXn0baNSkjhYwnAIQ0rIk2MDud4h4HKICfiJsoThtnEcnN/p9WwE2os4iSdiBQBnpoEynapnjkI+2jYgIYSEYX0es5G2AbeD6u1b60/V7LR6kp1MfI4Vecaw/5LyIJS/T0MIIY2zkGlHoiuPXvXvLO0I5BaU3xYxId7EtxVICCGEEPI9hxErQgghhJCYoGNFCCGEEBITdKwIIYQQQmKCjhUhhBBCSEzQsSKEEEIIiQk6VoQQQgghMUHHihBCCCEkJuhYEUIIIYTEBB0rQgghhJCYoGNFCCGEEBIT/wdpBr0nnbOgfQAAAABJRU5ErkJggg==;" parent="_WOlv533GRxd8s_ARorU-1" vertex="1">
          <mxGeometry x="40" y="724.5" width="598" height="41" as="geometry" />
        </mxCell>
        <mxCell id="0Ug3wZYzOc5q34iJx2hf-140" value="" style="shape=table;startSize=0;container=1;collapsible=0;childLayout=tableLayout;rowLines=0;columnLines=0;horizontal=1;noLabel=0;align=left;strokeColor=default;top=0;bottom=0;left=0;right=0;" parent="_WOlv533GRxd8s_ARorU-1" vertex="1">
          <mxGeometry x="80" y="240" width="1040" height="220" as="geometry" />
        </mxCell>
        <mxCell id="0Ug3wZYzOc5q34iJx2hf-141" value="" style="shape=tableRow;horizontal=0;startSize=0;swimlaneHead=0;swimlaneBody=0;strokeColor=inherit;top=0;left=0;bottom=0;right=0;collapsible=0;dropTarget=0;fillColor=none;points=[[0,0.5],[1,0.5]];portConstraint=eastwest;align=left;" parent="0Ug3wZYzOc5q34iJx2hf-140" vertex="1">
          <mxGeometry width="1040" height="55" as="geometry" />
        </mxCell>
        <mxCell id="0Ug3wZYzOc5q34iJx2hf-142" value="&lt;b&gt;Order&lt;/b&gt;" style="shape=partialRectangle;html=1;whiteSpace=wrap;connectable=0;strokeColor=inherit;overflow=hidden;fillColor=none;top=0;left=0;bottom=0;right=0;pointerEvents=1;align=center;" parent="0Ug3wZYzOc5q34iJx2hf-141" vertex="1">
          <mxGeometry width="50" height="55" as="geometry">
            <mxRectangle width="50" height="55" as="alternateBounds" />
          </mxGeometry>
        </mxCell>
        <mxCell id="0Ug3wZYzOc5q34iJx2hf-143" value="&lt;b&gt;Name&lt;/b&gt;" style="shape=partialRectangle;html=1;whiteSpace=wrap;connectable=0;strokeColor=inherit;overflow=hidden;fillColor=none;top=0;left=0;bottom=0;right=0;pointerEvents=1;align=left;" parent="0Ug3wZYzOc5q34iJx2hf-141" vertex="1">
          <mxGeometry x="50" width="181" height="55" as="geometry">
            <mxRectangle width="181" height="55" as="alternateBounds" />
          </mxGeometry>
        </mxCell>
        <mxCell id="0Ug3wZYzOc5q34iJx2hf-144" value="&lt;b&gt;Contract&lt;/b&gt;&lt;div&gt;&lt;b&gt;years&lt;/b&gt;&lt;/div&gt;" style="shape=partialRectangle;html=1;whiteSpace=wrap;connectable=0;strokeColor=inherit;overflow=hidden;fillColor=none;top=0;left=0;bottom=0;right=0;pointerEvents=1;align=left;" parent="0Ug3wZYzOc5q34iJx2hf-141" vertex="1">
          <mxGeometry x="231" width="79" height="55" as="geometry">
            <mxRectangle width="79" height="55" as="alternateBounds" />
          </mxGeometry>
        </mxCell>
        <mxCell id="0Ug3wZYzOc5q34iJx2hf-145" value="&lt;b&gt;Contributor&lt;/b&gt;&lt;div&gt;&lt;b&gt;type&lt;/b&gt;&lt;/div&gt;" style="shape=partialRectangle;html=1;whiteSpace=wrap;connectable=0;strokeColor=inherit;overflow=hidden;fillColor=none;top=0;left=0;bottom=0;right=0;pointerEvents=1;align=left;" parent="0Ug3wZYzOc5q34iJx2hf-141" vertex="1">
          <mxGeometry x="310" width="110" height="55" as="geometry">
            <mxRectangle width="110" height="55" as="alternateBounds" />
          </mxGeometry>
        </mxCell>
        <mxCell id="0Ug3wZYzOc5q34iJx2hf-146" value="&lt;b&gt;Entity / Affiliation&lt;/b&gt;" style="shape=partialRectangle;html=1;whiteSpace=wrap;connectable=0;strokeColor=inherit;overflow=hidden;fillColor=none;top=0;left=0;bottom=0;right=0;pointerEvents=1;align=left;" parent="0Ug3wZYzOc5q34iJx2hf-141" vertex="1">
          <mxGeometry x="420" width="250" height="55" as="geometry">
            <mxRectangle width="250" height="55" as="alternateBounds" />
          </mxGeometry>
        </mxCell>
        <mxCell id="0Ug3wZYzOc5q34iJx2hf-147" value="&lt;b&gt;Role&lt;/b&gt;" style="shape=partialRectangle;html=1;whiteSpace=wrap;connectable=0;strokeColor=inherit;overflow=hidden;fillColor=none;top=0;left=0;bottom=0;right=0;pointerEvents=1;align=left;" parent="0Ug3wZYzOc5q34iJx2hf-141" vertex="1">
          <mxGeometry x="670" width="90" height="55" as="geometry">
            <mxRectangle width="90" height="55" as="alternateBounds" />
          </mxGeometry>
        </mxCell>
        <mxCell id="0Ug3wZYzOc5q34iJx2hf-148" value="&lt;b&gt;ORCID&lt;/b&gt;" style="shape=partialRectangle;html=1;whiteSpace=wrap;connectable=0;strokeColor=inherit;overflow=hidden;fillColor=none;top=0;left=0;bottom=0;right=0;pointerEvents=1;align=left;" parent="0Ug3wZYzOc5q34iJx2hf-141" vertex="1">
          <mxGeometry x="760" width="160" height="55" as="geometry">
            <mxRectangle width="160" height="55" as="alternateBounds" />
          </mxGeometry>
        </mxCell>
        <mxCell id="9XFVA4JtUCSgp-y09gRW-0" value="&lt;b&gt;Corresp.&lt;/b&gt;" style="shape=partialRectangle;html=1;whiteSpace=wrap;connectable=0;strokeColor=inherit;overflow=hidden;fillColor=none;top=0;left=0;bottom=0;right=0;pointerEvents=1;align=center;" parent="0Ug3wZYzOc5q34iJx2hf-141" vertex="1">
          <mxGeometry x="920" width="60" height="55" as="geometry">
            <mxRectangle width="60" height="55" as="alternateBounds" />
          </mxGeometry>
        </mxCell>
        <mxCell id="9XFVA4JtUCSgp-y09gRW-4" value="&lt;b&gt;Delete&lt;/b&gt;" style="shape=partialRectangle;html=1;whiteSpace=wrap;connectable=0;strokeColor=inherit;overflow=hidden;fillColor=none;top=0;left=0;bottom=0;right=0;pointerEvents=1;align=center;" parent="0Ug3wZYzOc5q34iJx2hf-141" vertex="1">
          <mxGeometry x="980" width="60" height="55" as="geometry">
            <mxRectangle width="60" height="55" as="alternateBounds" />
          </mxGeometry>
        </mxCell>
        <mxCell id="0Ug3wZYzOc5q34iJx2hf-149" value="" style="shape=tableRow;horizontal=0;startSize=0;swimlaneHead=0;swimlaneBody=0;strokeColor=inherit;top=0;left=0;bottom=0;right=0;collapsible=0;dropTarget=0;fillColor=none;points=[[0,0.5],[1,0.5]];portConstraint=eastwest;align=left;" parent="0Ug3wZYzOc5q34iJx2hf-140" vertex="1">
          <mxGeometry y="55" width="1040" height="55" as="geometry" />
        </mxCell>
        <mxCell id="0Ug3wZYzOc5q34iJx2hf-150" value="1" style="shape=partialRectangle;html=1;whiteSpace=wrap;connectable=0;strokeColor=inherit;overflow=hidden;fillColor=none;top=0;left=0;bottom=0;right=0;pointerEvents=1;align=center;" parent="0Ug3wZYzOc5q34iJx2hf-149" vertex="1">
          <mxGeometry width="50" height="55" as="geometry">
            <mxRectangle width="50" height="55" as="alternateBounds" />
          </mxGeometry>
        </mxCell>
        <mxCell id="0Ug3wZYzOc5q34iJx2hf-151" value="&lt;span style=&quot;text-wrap-mode: nowrap;&quot;&gt;CONTRIBUTOR Name1&lt;/span&gt;" style="shape=partialRectangle;html=1;whiteSpace=wrap;connectable=0;strokeColor=inherit;overflow=hidden;fillColor=none;top=0;left=0;bottom=0;right=0;pointerEvents=1;align=left;" parent="0Ug3wZYzOc5q34iJx2hf-149" vertex="1">
          <mxGeometry x="50" width="181" height="55" as="geometry">
            <mxRectangle width="181" height="55" as="alternateBounds" />
          </mxGeometry>
        </mxCell>
        <mxCell id="0Ug3wZYzOc5q34iJx2hf-152" value="2020-2025" style="shape=partialRectangle;html=1;whiteSpace=wrap;connectable=0;strokeColor=inherit;overflow=hidden;fillColor=none;top=0;left=0;bottom=0;right=0;pointerEvents=1;align=left;" parent="0Ug3wZYzOc5q34iJx2hf-149" vertex="1">
          <mxGeometry x="231" width="79" height="55" as="geometry">
            <mxRectangle width="79" height="55" as="alternateBounds" />
          </mxGeometry>
        </mxCell>
        <mxCell id="0Ug3wZYzOc5q34iJx2hf-153" value="&lt;span style=&quot;text-wrap-mode: nowrap;&quot;&gt;Internal&lt;/span&gt;&lt;div style=&quot;text-wrap-mode: nowrap;&quot;&gt;contributor&lt;/div&gt;" style="shape=partialRectangle;html=1;whiteSpace=wrap;connectable=0;strokeColor=inherit;overflow=hidden;fillColor=none;top=0;left=0;bottom=0;right=0;pointerEvents=1;align=left;" parent="0Ug3wZYzOc5q34iJx2hf-149" vertex="1">
          <mxGeometry x="310" width="110" height="55" as="geometry">
            <mxRectangle width="110" height="55" as="alternateBounds" />
          </mxGeometry>
        </mxCell>
        <mxCell id="0Ug3wZYzOc5q34iJx2hf-154" value="JRC.B5" style="shape=partialRectangle;html=1;whiteSpace=wrap;connectable=0;strokeColor=inherit;overflow=hidden;fillColor=none;top=0;left=0;bottom=0;right=0;pointerEvents=1;align=left;" parent="0Ug3wZYzOc5q34iJx2hf-149" vertex="1">
          <mxGeometry x="420" width="250" height="55" as="geometry">
            <mxRectangle width="250" height="55" as="alternateBounds" />
          </mxGeometry>
        </mxCell>
        <mxCell id="0Ug3wZYzOc5q34iJx2hf-155" value="" style="shape=partialRectangle;html=1;whiteSpace=wrap;connectable=0;strokeColor=inherit;overflow=hidden;fillColor=none;top=0;left=0;bottom=0;right=0;pointerEvents=1;align=left;" parent="0Ug3wZYzOc5q34iJx2hf-149" vertex="1">
          <mxGeometry x="670" width="90" height="55" as="geometry">
            <mxRectangle width="90" height="55" as="alternateBounds" />
          </mxGeometry>
        </mxCell>
        <mxCell id="0Ug3wZYzOc5q34iJx2hf-156" value="" style="shape=partialRectangle;html=1;whiteSpace=wrap;connectable=0;strokeColor=inherit;overflow=hidden;fillColor=none;top=0;left=0;bottom=0;right=0;pointerEvents=1;align=left;" parent="0Ug3wZYzOc5q34iJx2hf-149" vertex="1">
          <mxGeometry x="760" width="160" height="55" as="geometry">
            <mxRectangle width="160" height="55" as="alternateBounds" />
          </mxGeometry>
        </mxCell>
        <mxCell id="9XFVA4JtUCSgp-y09gRW-1" style="shape=partialRectangle;html=1;whiteSpace=wrap;connectable=0;strokeColor=inherit;overflow=hidden;fillColor=none;top=0;left=0;bottom=0;right=0;pointerEvents=1;align=left;" parent="0Ug3wZYzOc5q34iJx2hf-149" vertex="1">
          <mxGeometry x="920" width="60" height="55" as="geometry">
            <mxRectangle width="60" height="55" as="alternateBounds" />
          </mxGeometry>
        </mxCell>
        <mxCell id="9XFVA4JtUCSgp-y09gRW-5" style="shape=partialRectangle;html=1;whiteSpace=wrap;connectable=0;strokeColor=inherit;overflow=hidden;fillColor=none;top=0;left=0;bottom=0;right=0;pointerEvents=1;align=left;" parent="0Ug3wZYzOc5q34iJx2hf-149" vertex="1">
          <mxGeometry x="980" width="60" height="55" as="geometry">
            <mxRectangle width="60" height="55" as="alternateBounds" />
          </mxGeometry>
        </mxCell>
        <mxCell id="0Ug3wZYzOc5q34iJx2hf-157" value="" style="shape=tableRow;horizontal=0;startSize=0;swimlaneHead=0;swimlaneBody=0;strokeColor=inherit;top=0;left=0;bottom=0;right=0;collapsible=0;dropTarget=0;fillColor=none;points=[[0,0.5],[1,0.5]];portConstraint=eastwest;align=left;" parent="0Ug3wZYzOc5q34iJx2hf-140" vertex="1">
          <mxGeometry y="110" width="1040" height="55" as="geometry" />
        </mxCell>
        <mxCell id="0Ug3wZYzOc5q34iJx2hf-158" value="2" style="shape=partialRectangle;html=1;whiteSpace=wrap;connectable=0;strokeColor=inherit;overflow=hidden;fillColor=none;top=0;left=0;bottom=0;right=0;pointerEvents=1;align=center;" parent="0Ug3wZYzOc5q34iJx2hf-157" vertex="1">
          <mxGeometry width="50" height="55" as="geometry">
            <mxRectangle width="50" height="55" as="alternateBounds" />
          </mxGeometry>
        </mxCell>
        <mxCell id="0Ug3wZYzOc5q34iJx2hf-159" value="&lt;span style=&quot;text-wrap-mode: nowrap;&quot;&gt;CONTRIBUTOR Name2&lt;/span&gt;" style="shape=partialRectangle;html=1;whiteSpace=wrap;connectable=0;strokeColor=inherit;overflow=hidden;fillColor=none;top=0;left=0;bottom=0;right=0;pointerEvents=1;align=left;" parent="0Ug3wZYzOc5q34iJx2hf-157" vertex="1">
          <mxGeometry x="50" width="181" height="55" as="geometry">
            <mxRectangle width="181" height="55" as="alternateBounds" />
          </mxGeometry>
        </mxCell>
        <mxCell id="0Ug3wZYzOc5q34iJx2hf-160" value="2022-2025" style="shape=partialRectangle;html=1;whiteSpace=wrap;connectable=0;strokeColor=inherit;overflow=hidden;fillColor=none;top=0;left=0;bottom=0;right=0;pointerEvents=1;align=left;" parent="0Ug3wZYzOc5q34iJx2hf-157" vertex="1">
          <mxGeometry x="231" width="79" height="55" as="geometry">
            <mxRectangle width="79" height="55" as="alternateBounds" />
          </mxGeometry>
        </mxCell>
        <mxCell id="0Ug3wZYzOc5q34iJx2hf-161" value="&lt;span style=&quot;text-wrap-mode: nowrap;&quot;&gt;External&lt;/span&gt;&lt;div style=&quot;text-wrap-mode: nowrap;&quot;&gt;contributor (JRC)&lt;/div&gt;" style="shape=partialRectangle;html=1;whiteSpace=wrap;connectable=0;strokeColor=inherit;overflow=hidden;fillColor=none;top=0;left=0;bottom=0;right=0;pointerEvents=1;align=left;" parent="0Ug3wZYzOc5q34iJx2hf-157" vertex="1">
          <mxGeometry x="310" width="110" height="55" as="geometry">
            <mxRectangle width="110" height="55" as="alternateBounds" />
          </mxGeometry>
        </mxCell>
        <mxCell id="0Ug3wZYzOc5q34iJx2hf-162" value="" style="shape=partialRectangle;html=1;whiteSpace=wrap;connectable=0;strokeColor=inherit;overflow=hidden;fillColor=none;top=0;left=0;bottom=0;right=0;pointerEvents=1;align=left;" parent="0Ug3wZYzOc5q34iJx2hf-157" vertex="1">
          <mxGeometry x="420" width="250" height="55" as="geometry">
            <mxRectangle width="250" height="55" as="alternateBounds" />
          </mxGeometry>
        </mxCell>
        <mxCell id="0Ug3wZYzOc5q34iJx2hf-163" value="" style="shape=partialRectangle;html=1;whiteSpace=wrap;connectable=0;strokeColor=inherit;overflow=hidden;fillColor=none;top=0;left=0;bottom=0;right=0;pointerEvents=1;align=left;" parent="0Ug3wZYzOc5q34iJx2hf-157" vertex="1">
          <mxGeometry x="670" width="90" height="55" as="geometry">
            <mxRectangle width="90" height="55" as="alternateBounds" />
          </mxGeometry>
        </mxCell>
        <mxCell id="0Ug3wZYzOc5q34iJx2hf-164" value="&lt;span style=&quot;color: rgb(33, 37, 41); font-family: Arial, &amp;quot;Helvetica Neue&amp;quot;, Helvetica, sans-serif; font-size: 14px; background-color: rgba(233, 236, 239, 0.18);&quot;&gt;0000-0002-1230-&lt;/span&gt;&lt;div&gt;&lt;span style=&quot;color: rgb(33, 37, 41); font-family: Arial, &amp;quot;Helvetica Neue&amp;quot;, Helvetica, sans-serif; font-size: 14px; background-color: rgba(233, 236, 239, 0.18);&quot;&gt;6483&lt;/span&gt;&lt;/div&gt;" style="shape=partialRectangle;html=1;whiteSpace=wrap;connectable=0;strokeColor=inherit;overflow=hidden;fillColor=none;top=0;left=0;bottom=0;right=0;pointerEvents=1;align=left;" parent="0Ug3wZYzOc5q34iJx2hf-157" vertex="1">
          <mxGeometry x="760" width="160" height="55" as="geometry">
            <mxRectangle width="160" height="55" as="alternateBounds" />
          </mxGeometry>
        </mxCell>
        <mxCell id="9XFVA4JtUCSgp-y09gRW-2" style="shape=partialRectangle;html=1;whiteSpace=wrap;connectable=0;strokeColor=inherit;overflow=hidden;fillColor=none;top=0;left=0;bottom=0;right=0;pointerEvents=1;align=left;" parent="0Ug3wZYzOc5q34iJx2hf-157" vertex="1">
          <mxGeometry x="920" width="60" height="55" as="geometry">
            <mxRectangle width="60" height="55" as="alternateBounds" />
          </mxGeometry>
        </mxCell>
        <mxCell id="9XFVA4JtUCSgp-y09gRW-6" style="shape=partialRectangle;html=1;whiteSpace=wrap;connectable=0;strokeColor=inherit;overflow=hidden;fillColor=none;top=0;left=0;bottom=0;right=0;pointerEvents=1;align=left;" parent="0Ug3wZYzOc5q34iJx2hf-157" vertex="1">
          <mxGeometry x="980" width="60" height="55" as="geometry">
            <mxRectangle width="60" height="55" as="alternateBounds" />
          </mxGeometry>
        </mxCell>
        <mxCell id="0Ug3wZYzOc5q34iJx2hf-165" value="" style="shape=tableRow;horizontal=0;startSize=0;swimlaneHead=0;swimlaneBody=0;strokeColor=inherit;top=0;left=0;bottom=0;right=0;collapsible=0;dropTarget=0;fillColor=none;points=[[0,0.5],[1,0.5]];portConstraint=eastwest;align=left;" parent="0Ug3wZYzOc5q34iJx2hf-140" vertex="1">
          <mxGeometry y="165" width="1040" height="55" as="geometry" />
        </mxCell>
        <mxCell id="0Ug3wZYzOc5q34iJx2hf-166" value="3" style="shape=partialRectangle;html=1;whiteSpace=wrap;connectable=0;strokeColor=inherit;overflow=hidden;fillColor=none;top=0;left=0;bottom=0;right=0;pointerEvents=1;align=center;" parent="0Ug3wZYzOc5q34iJx2hf-165" vertex="1">
          <mxGeometry width="50" height="55" as="geometry">
            <mxRectangle width="50" height="55" as="alternateBounds" />
          </mxGeometry>
        </mxCell>
        <mxCell id="0Ug3wZYzOc5q34iJx2hf-167" value="&lt;span style=&quot;text-wrap-mode: nowrap;&quot;&gt;CONTRIBUTOR Name3&lt;/span&gt;" style="shape=partialRectangle;html=1;whiteSpace=wrap;connectable=0;strokeColor=inherit;overflow=hidden;fillColor=none;top=0;left=0;bottom=0;right=0;pointerEvents=1;align=left;" parent="0Ug3wZYzOc5q34iJx2hf-165" vertex="1">
          <mxGeometry x="50" width="181" height="55" as="geometry">
            <mxRectangle width="181" height="55" as="alternateBounds" />
          </mxGeometry>
        </mxCell>
        <mxCell id="0Ug3wZYzOc5q34iJx2hf-168" value="-" style="shape=partialRectangle;html=1;whiteSpace=wrap;connectable=0;strokeColor=inherit;overflow=hidden;fillColor=none;top=0;left=0;bottom=0;right=0;pointerEvents=1;align=left;" parent="0Ug3wZYzOc5q34iJx2hf-165" vertex="1">
          <mxGeometry x="231" width="79" height="55" as="geometry">
            <mxRectangle width="79" height="55" as="alternateBounds" />
          </mxGeometry>
        </mxCell>
        <mxCell id="0Ug3wZYzOc5q34iJx2hf-169" value="&lt;span style=&quot;text-wrap-mode: nowrap;&quot;&gt;External&lt;/span&gt;&lt;div style=&quot;text-wrap-mode: nowrap;&quot;&gt;contributor&lt;/div&gt;" style="shape=partialRectangle;html=1;whiteSpace=wrap;connectable=0;strokeColor=inherit;overflow=hidden;fillColor=none;top=0;left=0;bottom=0;right=0;pointerEvents=1;align=left;" parent="0Ug3wZYzOc5q34iJx2hf-165" vertex="1">
          <mxGeometry x="310" width="110" height="55" as="geometry">
            <mxRectangle width="110" height="55" as="alternateBounds" />
          </mxGeometry>
        </mxCell>
        <mxCell id="0Ug3wZYzOc5q34iJx2hf-170" value="" style="shape=partialRectangle;html=1;whiteSpace=wrap;connectable=0;strokeColor=inherit;overflow=hidden;fillColor=none;top=0;left=0;bottom=0;right=0;pointerEvents=1;align=left;" parent="0Ug3wZYzOc5q34iJx2hf-165" vertex="1">
          <mxGeometry x="420" width="250" height="55" as="geometry">
            <mxRectangle width="250" height="55" as="alternateBounds" />
          </mxGeometry>
        </mxCell>
        <mxCell id="0Ug3wZYzOc5q34iJx2hf-171" value="" style="shape=partialRectangle;html=1;whiteSpace=wrap;connectable=0;strokeColor=inherit;overflow=hidden;fillColor=none;top=0;left=0;bottom=0;right=0;pointerEvents=1;align=left;" parent="0Ug3wZYzOc5q34iJx2hf-165" vertex="1">
          <mxGeometry x="670" width="90" height="55" as="geometry">
            <mxRectangle width="90" height="55" as="alternateBounds" />
          </mxGeometry>
        </mxCell>
        <mxCell id="0Ug3wZYzOc5q34iJx2hf-172" value="" style="shape=partialRectangle;html=1;whiteSpace=wrap;connectable=0;strokeColor=inherit;overflow=hidden;fillColor=none;top=0;left=0;bottom=0;right=0;pointerEvents=1;align=left;" parent="0Ug3wZYzOc5q34iJx2hf-165" vertex="1">
          <mxGeometry x="760" width="160" height="55" as="geometry">
            <mxRectangle width="160" height="55" as="alternateBounds" />
          </mxGeometry>
        </mxCell>
        <mxCell id="9XFVA4JtUCSgp-y09gRW-3" style="shape=partialRectangle;html=1;whiteSpace=wrap;connectable=0;strokeColor=inherit;overflow=hidden;fillColor=none;top=0;left=0;bottom=0;right=0;pointerEvents=1;align=left;" parent="0Ug3wZYzOc5q34iJx2hf-165" vertex="1">
          <mxGeometry x="920" width="60" height="55" as="geometry">
            <mxRectangle width="60" height="55" as="alternateBounds" />
          </mxGeometry>
        </mxCell>
        <mxCell id="9XFVA4JtUCSgp-y09gRW-7" style="shape=partialRectangle;html=1;whiteSpace=wrap;connectable=0;strokeColor=inherit;overflow=hidden;fillColor=none;top=0;left=0;bottom=0;right=0;pointerEvents=1;align=left;" parent="0Ug3wZYzOc5q34iJx2hf-165" vertex="1">
          <mxGeometry x="980" width="60" height="55" as="geometry">
            <mxRectangle width="60" height="55" as="alternateBounds" />
          </mxGeometry>
        </mxCell>
        <mxCell id="wCxnNn2fb2aZg4gGGp3X-0" value="" style="shape=image;verticalLabelPosition=bottom;labelBackgroundColor=default;verticalAlign=top;aspect=fixed;imageAspect=0;image=data:image/png,iVBORw0KGgoAAAANSUhEUgAAACcAAAAnCAYAAACMo1E1AAAAAXNSR0IArs4c6QAAAARnQU1BAACxjwv8YQUAAAAJcEhZcwAADsMAAA7DAcdvqGQAAAQfSURBVFhH7ZhdTBxlFIafYdhll92yUCQKBaXbxFoSIlYihGIaU9CkCWnDXwxCGogXJWhjqBd60YhBIxeVkAjRC8Q0UGKQekNSo2yaIGLBaIshoUJipTRCDa1QurDLsuN406473/4NuNS98Lmb857J92a+M+c7M5KqqioxSpwYiCX+N7ddpO3W3OjUAt9cucnwjzf5dXGVFacbr6ISL0skW03sS0+iND+LFw9m8Xxuhni7LrZkTlVV2i/8TPvgVdbcCk6XB+Wv0LfLcRJWsxGLSaa58hmaK55GkiQxLSS6zfU5Znjj4+/weBXuuTZB1133kWCX2YAxXqajsZjakv1iRlB0matrczA0PsfdtQ1R2jI2SwJlhdn0vlUiSgGENef2KBxu/pLp+WWcrk1R3jZWs4Gcx1MYaS/HZJRF2UdYcwWvfcHk9Tt4NhVR+tcYDTJ59lQmOqtEyUfIVlLX5mB6fnlHjAF4NhWm55epa3OIko+g5vocMwyNz0V1K4PhdG0yND5Hn2NGlCDYtqqqSlplD3dW3f7h0GRkUp6TiEkT9HJr+jqXFjTBkKQmmVgabAhoMwHmPhyc5N3eH7i3Hvmp7a0+xvcNmTwWrKaVDS4PDFDUsyoqAexKNPBO3XOcrszTxAPM7Xn5Mxb+XNfVx7p7mnjFNUlR0xhXNUoaZ7sqOG27wZHar7ik0YIgQcbuRH7/vF4T1tTc6NQCa25Fl7EHuNfXBGMASyyue8Fk5IAoBUOFNbfC6JS2DjRP7sy5CT7o/ynskVTTUs/5Q4liOCK3xoZJb5kVwz7kOIm3a56l9USBL6YxV/j6IBO//OETg/LkE9QczqerOoVrA9/S+ZuY4MfeXF/eeyOzXAztDYCCpx5l/KNK37XGXFplD7fvunxiSCqOsXwyjSufdHPkgij6oTfvPo/YzCwNNviuNTW34tTZPgRqWupxdR0C4GzXSRbfzxVTdCGurzHnVULXWjjSLTImsxGAZLMc9rwMh7i+xly8rH/W2gnE9TXmkq3aPv+wEdfXmNuXnuR/qZvF1Q1WnB4AVpwbLK+uiym6ENfXmCvNz0KO2/rW9rf2knJqDIA3T3Vjb43QM4Igx0mU5mdpYppWMjq1QNmZi5En3owXmD6Xg2lylsu3RfEfTHsyKT+wwacn+nk1whBgsyQw1HpU8zG07bP1aFM151/aLUwjIl6ufT3Mwa4boqAlxNkaYG4rU0m00D2VbHmeiwKh5rmASViSJDoai7FZEkRpR7BZEuhoLA4wRjBzALUl+ykrzMZqNohSVLGaDZQVZof8jg3YVn9i9usLYKS9nDx7atSfoNVsIM+eykh7uShpCGvOZJSZ6KzieJE9ajVosyRwvMjORGdVxAEh7Lb6E7P/Sh6gxupfJpGY+z/3sAn7QvzX/A2p9N65s/5+gQAAAABJRU5ErkJggg==;align=left;" vertex="1" parent="_WOlv533GRxd8s_ARorU-1">
          <mxGeometry x="1070" y="304" width="39" height="39" as="geometry" />
        </mxCell>
        <mxCell id="fAaLAVuD2_t72GyKh9M1-0" value="" style="shape=image;verticalLabelPosition=bottom;labelBackgroundColor=default;verticalAlign=top;aspect=fixed;imageAspect=0;image=data:image/png,iVBORw0KGgoAAAANSUhEUgAAADAAAAAfCAYAAACh+E5kAAAAAXNSR0IArs4c6QAAAARnQU1BAACxjwv8YQUAAAAJcEhZcwAADsMAAA7DAcdvqGQAAAFwSURBVFhH7ZjBToNAEIb/2UstSGtTmmIiSZvIxYvv/xhevNSkTWpiSdtgi0B72fWkdra6kYABDN9tZ8hkvl12s0BKKYUGI/RA02gFqob0PZBmB4SbCPs4gazJ9hBE6Dk2xu4AVveC5ZhAmh0wmz/XpnEdQYRgesMk2CsUbqLaNg8AUimEm4jF2Ao8PD6dCVjdDrzREI5tQQhiuZ+QUiFOUqzWW6TZUU8XQhDh/u72a3ya/K75YOKj79i/bh4AhCD0HRvBxIfV7ejpQug9Gk8hbzTM1biOEARvNNTDpWIUcGxLD+WmjBomjAJFZv+DMmqYMAo0gVagalqBqmkFqqYVqBqjgJTFr9Zl1DBhFIiTVA/lpowaJowCq/W20AxKqbBab/VwqTABQfzilWZHzBZL7OIkl4iUCrs4wWyx/JMPmlPYF9l8+YLX/Rt7oG5c9S4x9a8/x2wFxu7gzLBOCCKM3QGL/a/fKk3EeAo1gcYLvANJtZccxAMHPQAAAABJRU5ErkJggg==;align=left;" vertex="1" parent="_WOlv533GRxd8s_ARorU-1">
          <mxGeometry x="1006" y="307" width="48" height="31" as="geometry" />
        </mxCell>
        <mxCell id="DNl8ClMupBjYrmXcqvd--0" value="" style="group;align=left;" vertex="1" connectable="0" parent="_WOlv533GRxd8s_ARorU-1">
          <mxGeometry x="500" y="360" width="240" height="30" as="geometry" />
        </mxCell>
        <mxCell id="DNl8ClMupBjYrmXcqvd--1" value="&lt;font style=&quot;font-size: 12px;&quot;&gt;Type to search&lt;/font&gt;" style="verticalLabelPosition=middle;verticalAlign=middle;html=1;shape=mxgraph.basic.rect;fillColor2=none;strokeWidth=1;size=10;indent=5;labelPosition=center;align=left;spacingLeft=40;fontSize=16;rectStyle=rounded;absoluteCornerSize=0;strokeColor=#4D4D4D;" vertex="1" parent="DNl8ClMupBjYrmXcqvd--0">
          <mxGeometry width="240" height="30" as="geometry" />
        </mxCell>
        <mxCell id="DNl8ClMupBjYrmXcqvd--2" value="" style="shape=image;html=1;verticalAlign=top;verticalLabelPosition=bottom;labelBackgroundColor=#ffffff;imageAspect=0;aspect=fixed;image=https://cdn4.iconfinder.com/data/icons/evil-icons-user-interface/64/magnifier-128.png;align=left;" vertex="1" parent="DNl8ClMupBjYrmXcqvd--0">
          <mxGeometry x="10" y="4" width="25" height="25" as="geometry" />
        </mxCell>
        <mxCell id="3yy0dfl8uZLEYWa9NtOG-0" value="" style="group;align=left;" vertex="1" connectable="0" parent="_WOlv533GRxd8s_ARorU-1">
          <mxGeometry x="500" y="420" width="240" height="30" as="geometry" />
        </mxCell>
        <mxCell id="3yy0dfl8uZLEYWa9NtOG-1" value="&lt;font style=&quot;font-size: 12px;&quot;&gt;Type to search&lt;/font&gt;" style="verticalLabelPosition=middle;verticalAlign=middle;html=1;shape=mxgraph.basic.rect;fillColor2=none;strokeWidth=1;size=10;indent=5;labelPosition=center;align=left;spacingLeft=40;fontSize=16;rectStyle=rounded;absoluteCornerSize=0;strokeColor=#4D4D4D;" vertex="1" parent="3yy0dfl8uZLEYWa9NtOG-0">
          <mxGeometry width="240" height="30" as="geometry" />
        </mxCell>
        <mxCell id="3yy0dfl8uZLEYWa9NtOG-2" value="" style="shape=image;html=1;verticalAlign=top;verticalLabelPosition=bottom;labelBackgroundColor=#ffffff;imageAspect=0;aspect=fixed;image=https://cdn4.iconfinder.com/data/icons/evil-icons-user-interface/64/magnifier-128.png;align=left;" vertex="1" parent="3yy0dfl8uZLEYWa9NtOG-0">
          <mxGeometry x="10" y="4" width="25" height="25" as="geometry" />
        </mxCell>
        <mxCell id="bJRe0ALpgKki8gB1cJoq-0" value="Author" style="html=1;shadow=0;dashed=0;shape=mxgraph.bootstrap.rrect;rSize=5;strokeColor=#505050;strokeWidth=1;fillColor=#ffffff;fontColor=#777777;whiteSpace=wrap;align=left;verticalAlign=middle;fontStyle=0;fontSize=12;spacing=15;" vertex="1" parent="_WOlv533GRxd8s_ARorU-1">
          <mxGeometry x="750" y="308" width="80" height="30" as="geometry" />
        </mxCell>
        <mxCell id="bJRe0ALpgKki8gB1cJoq-1" value="" style="shape=triangle;direction=south;fillColor=#495057;strokeColor=none;perimeter=none;" vertex="1" parent="bJRe0ALpgKki8gB1cJoq-0">
          <mxGeometry x="1" y="0.5" width="10" height="5" relative="1" as="geometry">
            <mxPoint x="-17" y="-2.5" as="offset" />
          </mxGeometry>
        </mxCell>
        <mxCell id="bJRe0ALpgKki8gB1cJoq-2" value="Author" style="html=1;shadow=0;dashed=0;shape=mxgraph.bootstrap.rrect;rSize=5;strokeColor=#505050;strokeWidth=1;fillColor=#ffffff;fontColor=#777777;whiteSpace=wrap;align=left;verticalAlign=middle;fontStyle=0;fontSize=12;spacing=15;" vertex="1" parent="_WOlv533GRxd8s_ARorU-1">
          <mxGeometry x="750" y="360" width="80" height="30" as="geometry" />
        </mxCell>
        <mxCell id="bJRe0ALpgKki8gB1cJoq-3" value="" style="shape=triangle;direction=south;fillColor=#495057;strokeColor=none;perimeter=none;" vertex="1" parent="bJRe0ALpgKki8gB1cJoq-2">
          <mxGeometry x="1" y="0.5" width="10" height="5" relative="1" as="geometry">
            <mxPoint x="-17" y="-2.5" as="offset" />
          </mxGeometry>
        </mxCell>
        <mxCell id="bJRe0ALpgKki8gB1cJoq-4" value="Author" style="html=1;shadow=0;dashed=0;shape=mxgraph.bootstrap.rrect;rSize=5;strokeColor=#505050;strokeWidth=1;fillColor=#ffffff;fontColor=#777777;whiteSpace=wrap;align=left;verticalAlign=middle;fontStyle=0;fontSize=12;spacing=15;" vertex="1" parent="_WOlv533GRxd8s_ARorU-1">
          <mxGeometry x="750" y="420" width="80" height="30" as="geometry" />
        </mxCell>
        <mxCell id="bJRe0ALpgKki8gB1cJoq-5" value="" style="shape=triangle;direction=south;fillColor=#495057;strokeColor=none;perimeter=none;" vertex="1" parent="bJRe0ALpgKki8gB1cJoq-4">
          <mxGeometry x="1" y="0.5" width="10" height="5" relative="1" as="geometry">
            <mxPoint x="-17" y="-2.5" as="offset" />
          </mxGeometry>
        </mxCell>
        <mxCell id="bJRe0ALpgKki8gB1cJoq-6" value="" style="shape=image;verticalLabelPosition=bottom;labelBackgroundColor=default;verticalAlign=top;aspect=fixed;imageAspect=0;image=data:image/png,iVBORw0KGgoAAAANSUhEUgAAADAAAAAfCAYAAACh+E5kAAAAAXNSR0IArs4c6QAAAARnQU1BAACxjwv8YQUAAAAJcEhZcwAADsMAAA7DAcdvqGQAAAFwSURBVFhH7ZjBToNAEIb/2UstSGtTmmIiSZvIxYvv/xhevNSkTWpiSdtgi0B72fWkdra6kYABDN9tZ8hkvl12s0BKKYUGI/RA02gFqob0PZBmB4SbCPs4gazJ9hBE6Dk2xu4AVveC5ZhAmh0wmz/XpnEdQYRgesMk2CsUbqLaNg8AUimEm4jF2Ao8PD6dCVjdDrzREI5tQQhiuZ+QUiFOUqzWW6TZUU8XQhDh/u72a3ya/K75YOKj79i/bh4AhCD0HRvBxIfV7ejpQug9Gk8hbzTM1biOEARvNNTDpWIUcGxLD+WmjBomjAJFZv+DMmqYMAo0gVagalqBqmkFqqYVqBqjgJTFr9Zl1DBhFIiTVA/lpowaJowCq/W20AxKqbBab/VwqTABQfzilWZHzBZL7OIkl4iUCrs4wWyx/JMPmlPYF9l8+YLX/Rt7oG5c9S4x9a8/x2wFxu7gzLBOCCKM3QGL/a/fKk3EeAo1gcYLvANJtZccxAMHPQAAAABJRU5ErkJggg==;align=left;" vertex="1" parent="_WOlv533GRxd8s_ARorU-1">
          <mxGeometry x="1006" y="360" width="48" height="31" as="geometry" />
        </mxCell>
        <mxCell id="bJRe0ALpgKki8gB1cJoq-7" value="" style="shape=image;verticalLabelPosition=bottom;labelBackgroundColor=default;verticalAlign=top;aspect=fixed;imageAspect=0;image=data:image/png,iVBORw0KGgoAAAANSUhEUgAAADAAAAAfCAYAAACh+E5kAAAAAXNSR0IArs4c6QAAAARnQU1BAACxjwv8YQUAAAAJcEhZcwAADsMAAA7DAcdvqGQAAAFwSURBVFhH7ZjBToNAEIb/2UstSGtTmmIiSZvIxYvv/xhevNSkTWpiSdtgi0B72fWkdra6kYABDN9tZ8hkvl12s0BKKYUGI/RA02gFqob0PZBmB4SbCPs4gazJ9hBE6Dk2xu4AVveC5ZhAmh0wmz/XpnEdQYRgesMk2CsUbqLaNg8AUimEm4jF2Ao8PD6dCVjdDrzREI5tQQhiuZ+QUiFOUqzWW6TZUU8XQhDh/u72a3ya/K75YOKj79i/bh4AhCD0HRvBxIfV7ejpQug9Gk8hbzTM1biOEARvNNTDpWIUcGxLD+WmjBomjAJFZv+DMmqYMAo0gVagalqBqmkFqqYVqBqjgJTFr9Zl1DBhFIiTVA/lpowaJowCq/W20AxKqbBab/VwqTABQfzilWZHzBZL7OIkl4iUCrs4wWyx/JMPmlPYF9l8+YLX/Rt7oG5c9S4x9a8/x2wFxu7gzLBOCCKM3QGL/a/fKk3EeAo1gcYLvANJtZccxAMHPQAAAABJRU5ErkJggg==;align=left;" vertex="1" parent="_WOlv533GRxd8s_ARorU-1">
          <mxGeometry x="1006" y="419" width="48" height="31" as="geometry" />
        </mxCell>
        <mxCell id="bJRe0ALpgKki8gB1cJoq-8" value="" style="shape=image;verticalLabelPosition=bottom;labelBackgroundColor=default;verticalAlign=top;aspect=fixed;imageAspect=0;image=data:image/png,iVBORw0KGgoAAAANSUhEUgAAACcAAAAnCAYAAACMo1E1AAAAAXNSR0IArs4c6QAAAARnQU1BAACxjwv8YQUAAAAJcEhZcwAADsMAAA7DAcdvqGQAAAQfSURBVFhH7ZhdTBxlFIafYdhll92yUCQKBaXbxFoSIlYihGIaU9CkCWnDXwxCGogXJWhjqBd60YhBIxeVkAjRC8Q0UGKQekNSo2yaIGLBaIshoUJipTRCDa1QurDLsuN406473/4NuNS98Lmb857J92a+M+c7M5KqqioxSpwYiCX+N7ddpO3W3OjUAt9cucnwjzf5dXGVFacbr6ISL0skW03sS0+iND+LFw9m8Xxuhni7LrZkTlVV2i/8TPvgVdbcCk6XB+Wv0LfLcRJWsxGLSaa58hmaK55GkiQxLSS6zfU5Znjj4+/weBXuuTZB1133kWCX2YAxXqajsZjakv1iRlB0matrczA0PsfdtQ1R2jI2SwJlhdn0vlUiSgGENef2KBxu/pLp+WWcrk1R3jZWs4Gcx1MYaS/HZJRF2UdYcwWvfcHk9Tt4NhVR+tcYDTJ59lQmOqtEyUfIVlLX5mB6fnlHjAF4NhWm55epa3OIko+g5vocMwyNz0V1K4PhdG0yND5Hn2NGlCDYtqqqSlplD3dW3f7h0GRkUp6TiEkT9HJr+jqXFjTBkKQmmVgabAhoMwHmPhyc5N3eH7i3Hvmp7a0+xvcNmTwWrKaVDS4PDFDUsyoqAexKNPBO3XOcrszTxAPM7Xn5Mxb+XNfVx7p7mnjFNUlR0xhXNUoaZ7sqOG27wZHar7ik0YIgQcbuRH7/vF4T1tTc6NQCa25Fl7EHuNfXBGMASyyue8Fk5IAoBUOFNbfC6JS2DjRP7sy5CT7o/ynskVTTUs/5Q4liOCK3xoZJb5kVwz7kOIm3a56l9USBL6YxV/j6IBO//OETg/LkE9QczqerOoVrA9/S+ZuY4MfeXF/eeyOzXAztDYCCpx5l/KNK37XGXFplD7fvunxiSCqOsXwyjSufdHPkgij6oTfvPo/YzCwNNviuNTW34tTZPgRqWupxdR0C4GzXSRbfzxVTdCGurzHnVULXWjjSLTImsxGAZLMc9rwMh7i+xly8rH/W2gnE9TXmkq3aPv+wEdfXmNuXnuR/qZvF1Q1WnB4AVpwbLK+uiym6ENfXmCvNz0KO2/rW9rf2knJqDIA3T3Vjb43QM4Igx0mU5mdpYppWMjq1QNmZi5En3owXmD6Xg2lylsu3RfEfTHsyKT+wwacn+nk1whBgsyQw1HpU8zG07bP1aFM151/aLUwjIl6ufT3Mwa4boqAlxNkaYG4rU0m00D2VbHmeiwKh5rmASViSJDoai7FZEkRpR7BZEuhoLA4wRjBzALUl+ykrzMZqNohSVLGaDZQVZof8jg3YVn9i9usLYKS9nDx7atSfoNVsIM+eykh7uShpCGvOZJSZ6KzieJE9ajVosyRwvMjORGdVxAEh7Lb6E7P/Sh6gxupfJpGY+z/3sAn7QvzX/A2p9N65s/5+gQAAAABJRU5ErkJggg==;align=left;" vertex="1" parent="_WOlv533GRxd8s_ARorU-1">
          <mxGeometry x="1070" y="360" width="39" height="39" as="geometry" />
        </mxCell>
        <mxCell id="bJRe0ALpgKki8gB1cJoq-9" value="" style="shape=image;verticalLabelPosition=bottom;labelBackgroundColor=default;verticalAlign=top;aspect=fixed;imageAspect=0;image=data:image/png,iVBORw0KGgoAAAANSUhEUgAAACcAAAAnCAYAAACMo1E1AAAAAXNSR0IArs4c6QAAAARnQU1BAACxjwv8YQUAAAAJcEhZcwAADsMAAA7DAcdvqGQAAAQfSURBVFhH7ZhdTBxlFIafYdhll92yUCQKBaXbxFoSIlYihGIaU9CkCWnDXwxCGogXJWhjqBd60YhBIxeVkAjRC8Q0UGKQekNSo2yaIGLBaIshoUJipTRCDa1QurDLsuN406473/4NuNS98Lmb857J92a+M+c7M5KqqioxSpwYiCX+N7ddpO3W3OjUAt9cucnwjzf5dXGVFacbr6ISL0skW03sS0+iND+LFw9m8Xxuhni7LrZkTlVV2i/8TPvgVdbcCk6XB+Wv0LfLcRJWsxGLSaa58hmaK55GkiQxLSS6zfU5Znjj4+/weBXuuTZB1133kWCX2YAxXqajsZjakv1iRlB0matrczA0PsfdtQ1R2jI2SwJlhdn0vlUiSgGENef2KBxu/pLp+WWcrk1R3jZWs4Gcx1MYaS/HZJRF2UdYcwWvfcHk9Tt4NhVR+tcYDTJ59lQmOqtEyUfIVlLX5mB6fnlHjAF4NhWm55epa3OIko+g5vocMwyNz0V1K4PhdG0yND5Hn2NGlCDYtqqqSlplD3dW3f7h0GRkUp6TiEkT9HJr+jqXFjTBkKQmmVgabAhoMwHmPhyc5N3eH7i3Hvmp7a0+xvcNmTwWrKaVDS4PDFDUsyoqAexKNPBO3XOcrszTxAPM7Xn5Mxb+XNfVx7p7mnjFNUlR0xhXNUoaZ7sqOG27wZHar7ik0YIgQcbuRH7/vF4T1tTc6NQCa25Fl7EHuNfXBGMASyyue8Fk5IAoBUOFNbfC6JS2DjRP7sy5CT7o/ynskVTTUs/5Q4liOCK3xoZJb5kVwz7kOIm3a56l9USBL6YxV/j6IBO//OETg/LkE9QczqerOoVrA9/S+ZuY4MfeXF/eeyOzXAztDYCCpx5l/KNK37XGXFplD7fvunxiSCqOsXwyjSufdHPkgij6oTfvPo/YzCwNNviuNTW34tTZPgRqWupxdR0C4GzXSRbfzxVTdCGurzHnVULXWjjSLTImsxGAZLMc9rwMh7i+xly8rH/W2gnE9TXmkq3aPv+wEdfXmNuXnuR/qZvF1Q1WnB4AVpwbLK+uiym6ENfXmCvNz0KO2/rW9rf2knJqDIA3T3Vjb43QM4Igx0mU5mdpYppWMjq1QNmZi5En3owXmD6Xg2lylsu3RfEfTHsyKT+wwacn+nk1whBgsyQw1HpU8zG07bP1aFM151/aLUwjIl6ufT3Mwa4boqAlxNkaYG4rU0m00D2VbHmeiwKh5rmASViSJDoai7FZEkRpR7BZEuhoLA4wRjBzALUl+ykrzMZqNohSVLGaDZQVZof8jg3YVn9i9usLYKS9nDx7atSfoNVsIM+eykh7uShpCGvOZJSZ6KzieJE9ajVosyRwvMjORGdVxAEh7Lb6E7P/Sh6gxupfJpGY+z/3sAn7QvzX/A2p9N65s/5+gQAAAABJRU5ErkJggg==;align=left;" vertex="1" parent="_WOlv533GRxd8s_ARorU-1">
          <mxGeometry x="1070" y="415" width="39" height="39" as="geometry" />
        </mxCell>
        <mxCell id="EU2o6hVU6sdrPLsOxTzp-0" value="" style="shape=image;verticalLabelPosition=bottom;labelBackgroundColor=default;verticalAlign=top;aspect=fixed;imageAspect=0;image=data:image/png,iVBORw0KGgoAAAANSUhEUgAAACMAAAAjCAYAAAAe2bNZAAAAAXNSR0IArs4c6QAAAARnQU1BAACxjwv8YQUAAAAJcEhZcwAADsMAAA7DAcdvqGQAAAIhSURBVFhH7dg/aBNhGMfx7/3TqjhUSGipICdEKKVUjYueSAdLaaEgBjoILoqkkOIUoUIFlwxCpkKHII51c3HwD1EE4ahLtCCN0EKDS6lddDBSm8RzyN1pXrjgpXdnhv62PDwvz4fn3gx3kmVZFl0SWSz8z0jOZkrr22QLJubqFrX6L7Ev8GiqjDHURz5tkEzEwcGU1rc5f/sJtXrDbpVaDoaT5u3QVIXlhRTJRLz5mLIF04ZIEUFwZ9XqDbIFE5w7Y65uiZ2RxpkvA/YdiWojYiT3jnbVv2kf45VQMGdOxcTSPyVQjD41QflphveL01gvZijfG0YXm9okMIw+NcHrmZPoXzeYf1Bk/l0V/dI58pfFTu8EgnEg/V/WuHn3OblXa+Tub/Bp9zCDp8Vu7+wZ8wdSJnWjyOPNZn0ye4LBAz+ofBRPeGdPmFbIG57Z9cnMNEvjvXwrfWD2pXCoTTrGtIVcibFTMrkwt0JFONcuHWHCgNAJxoVsBgvBL6YFcitYCL4w42OhQvCDuXbxOPr3z8yGBMEPpr9HgWqVR/ZvB8JKMBB8YY4ehCPHWMqlKD+87kLO3gkGgh8Muz/ZORTj6nAvPTSovA0WgvN2II0tivXIYxUzPjYTQfYxXuk+jKbK7utm9LHs+TbGGOoTOyKNM18GyKcNNFWxtxPVhpqzNFUhnzbAwSQTcZYXUoyODNio8KOpCqMjA+4XCP7+PtMN+Q2YwOudQ0ONGQAAAABJRU5ErkJggg==;" vertex="1" parent="_WOlv533GRxd8s_ARorU-1">
          <mxGeometry x="956" y="305.5" width="35" height="35" as="geometry" />
        </mxCell>
        <mxCell id="EU2o6hVU6sdrPLsOxTzp-1" value="" style="shape=image;verticalLabelPosition=bottom;labelBackgroundColor=default;verticalAlign=top;aspect=fixed;imageAspect=0;image=data:image/png,iVBORw0KGgoAAAANSUhEUgAAACMAAAAjCAYAAAAe2bNZAAAAAXNSR0IArs4c6QAAAARnQU1BAACxjwv8YQUAAAAJcEhZcwAADsMAAA7DAcdvqGQAAAIhSURBVFhH7dg/aBNhGMfx7/3TqjhUSGipICdEKKVUjYueSAdLaaEgBjoILoqkkOIUoUIFlwxCpkKHII51c3HwD1EE4ahLtCCN0EKDS6lddDBSm8RzyN1pXrjgpXdnhv62PDwvz4fn3gx3kmVZFl0SWSz8z0jOZkrr22QLJubqFrX6L7Ev8GiqjDHURz5tkEzEwcGU1rc5f/sJtXrDbpVaDoaT5u3QVIXlhRTJRLz5mLIF04ZIEUFwZ9XqDbIFE5w7Y65uiZ2RxpkvA/YdiWojYiT3jnbVv2kf45VQMGdOxcTSPyVQjD41QflphveL01gvZijfG0YXm9okMIw+NcHrmZPoXzeYf1Bk/l0V/dI58pfFTu8EgnEg/V/WuHn3OblXa+Tub/Bp9zCDp8Vu7+wZ8wdSJnWjyOPNZn0ye4LBAz+ofBRPeGdPmFbIG57Z9cnMNEvjvXwrfWD2pXCoTTrGtIVcibFTMrkwt0JFONcuHWHCgNAJxoVsBgvBL6YFcitYCL4w42OhQvCDuXbxOPr3z8yGBMEPpr9HgWqVR/ZvB8JKMBB8YY4ehCPHWMqlKD+87kLO3gkGgh8Muz/ZORTj6nAvPTSovA0WgvN2II0tivXIYxUzPjYTQfYxXuk+jKbK7utm9LHs+TbGGOoTOyKNM18GyKcNNFWxtxPVhpqzNFUhnzbAwSQTcZYXUoyODNio8KOpCqMjA+4XCP7+PtMN+Q2YwOudQ0ONGQAAAABJRU5ErkJggg==;" vertex="1" parent="_WOlv533GRxd8s_ARorU-1">
          <mxGeometry x="956" y="360" width="35" height="35" as="geometry" />
        </mxCell>
        <mxCell id="EU2o6hVU6sdrPLsOxTzp-2" value="" style="shape=image;verticalLabelPosition=bottom;labelBackgroundColor=default;verticalAlign=top;aspect=fixed;imageAspect=0;image=data:image/png,iVBORw0KGgoAAAANSUhEUgAAACMAAAAjCAYAAAAe2bNZAAAAAXNSR0IArs4c6QAAAARnQU1BAACxjwv8YQUAAAAJcEhZcwAADsMAAA7DAcdvqGQAAAIhSURBVFhH7dg/aBNhGMfx7/3TqjhUSGipICdEKKVUjYueSAdLaaEgBjoILoqkkOIUoUIFlwxCpkKHII51c3HwD1EE4ahLtCCN0EKDS6lddDBSm8RzyN1pXrjgpXdnhv62PDwvz4fn3gx3kmVZFl0SWSz8z0jOZkrr22QLJubqFrX6L7Ev8GiqjDHURz5tkEzEwcGU1rc5f/sJtXrDbpVaDoaT5u3QVIXlhRTJRLz5mLIF04ZIEUFwZ9XqDbIFE5w7Y65uiZ2RxpkvA/YdiWojYiT3jnbVv2kf45VQMGdOxcTSPyVQjD41QflphveL01gvZijfG0YXm9okMIw+NcHrmZPoXzeYf1Bk/l0V/dI58pfFTu8EgnEg/V/WuHn3OblXa+Tub/Bp9zCDp8Vu7+wZ8wdSJnWjyOPNZn0ye4LBAz+ofBRPeGdPmFbIG57Z9cnMNEvjvXwrfWD2pXCoTTrGtIVcibFTMrkwt0JFONcuHWHCgNAJxoVsBgvBL6YFcitYCL4w42OhQvCDuXbxOPr3z8yGBMEPpr9HgWqVR/ZvB8JKMBB8YY4ehCPHWMqlKD+87kLO3gkGgh8Muz/ZORTj6nAvPTSovA0WgvN2II0tivXIYxUzPjYTQfYxXuk+jKbK7utm9LHs+TbGGOoTOyKNM18GyKcNNFWxtxPVhpqzNFUhnzbAwSQTcZYXUoyODNio8KOpCqMjA+4XCP7+PtMN+Q2YwOudQ0ONGQAAAABJRU5ErkJggg==;" vertex="1" parent="_WOlv533GRxd8s_ARorU-1">
          <mxGeometry x="956" y="415" width="35" height="35" as="geometry" />
        </mxCell>
        <mxCell id="Z6-y0Xs_tPlWSlrsvxJG-0" value="" style="line;strokeWidth=1;html=1;" vertex="1" parent="_WOlv533GRxd8s_ARorU-1">
          <mxGeometry x="80" y="290" width="1040" height="10" as="geometry" />
        </mxCell>
      </root>
    </mxGraphModel>
  </diagram>
  <diagram name="Page-New_affiliation" id="5inCkX1xJMI1XTDhyWEV">
    <mxGraphModel dx="1652" dy="908" grid="1" gridSize="10" guides="1" tooltips="1" connect="1" arrows="1" fold="1" page="1" pageScale="1" pageWidth="1200" pageHeight="780" math="0" shadow="0">
      <root>
        <mxCell id="zESYAb4LJeq5894BYwA9-0" />
        <mxCell id="zESYAb4LJeq5894BYwA9-1" parent="zESYAb4LJeq5894BYwA9-0" />
        <mxCell id="zESYAb4LJeq5894BYwA9-2" value="" style="rounded=1;whiteSpace=wrap;html=1;arcSize=10;absoluteArcSize=1;connectable=0;allowArrows=0;" vertex="1" parent="zESYAb4LJeq5894BYwA9-1">
          <mxGeometry x="160" y="160" width="850" height="450" as="geometry" />
        </mxCell>
        <mxCell id="zESYAb4LJeq5894BYwA9-7" value="" style="verticalLabelPosition=middle;verticalAlign=middle;html=1;shape=mxgraph.basic.rect;fillColor2=none;strokeWidth=1;size=10;indent=5;labelPosition=center;align=left;spacingLeft=50;fontSize=14;rectStyle=rounded;absoluteCornerSize=0;strokeColor=#B3B3B3;" vertex="1" parent="zESYAb4LJeq5894BYwA9-1">
          <mxGeometry x="180" y="280" width="790" height="30" as="geometry" />
        </mxCell>
        <mxCell id="zESYAb4LJeq5894BYwA9-13" value="" style="line;strokeWidth=1;html=1;strokeColor=#CCCCCC;" vertex="1" parent="zESYAb4LJeq5894BYwA9-1">
          <mxGeometry x="170" y="210" width="830" height="10" as="geometry" />
        </mxCell>
        <mxCell id="zESYAb4LJeq5894BYwA9-14" value="" style="line;strokeWidth=1;html=1;strokeColor=#CCCCCC;" vertex="1" parent="zESYAb4LJeq5894BYwA9-1">
          <mxGeometry x="170" y="540" width="830" height="10" as="geometry" />
        </mxCell>
        <UserObject label="Cancel" link="data:page/id,dKuC8U5UuyInBoBZ48gH" id="zESYAb4LJeq5894BYwA9-15">
          <mxCell style="rounded=1;whiteSpace=wrap;html=1;fillColor=#004494;fontColor=#ffffff;strokeColor=#004494;glass=0;fontSize=14;" vertex="1" parent="zESYAb4LJeq5894BYwA9-1">
            <mxGeometry x="850" y="565" width="120" height="30" as="geometry" />
          </mxCell>
        </UserObject>
        <UserObject label="Save" id="zESYAb4LJeq5894BYwA9-16">
          <mxCell style="rounded=1;whiteSpace=wrap;html=1;fillColor=#93B0D1;fontColor=#ffffff;strokeColor=#93B0D1;glass=0;fontSize=14;" vertex="1" parent="zESYAb4LJeq5894BYwA9-1">
            <mxGeometry x="720" y="565" width="120" height="30" as="geometry" />
          </mxCell>
        </UserObject>
        <UserObject label="" link="data:page/id,dKuC8U5UuyInBoBZ48gH" id="zESYAb4LJeq5894BYwA9-17">
          <mxCell style="shape=image;verticalLabelPosition=bottom;labelBackgroundColor=default;verticalAlign=top;aspect=fixed;imageAspect=0;image=data:image/png,iVBORw0KGgoAAAANSUhEUgAAAB8AAAAdCAYAAABSZrcyAAAAAXNSR0IArs4c6QAAAARnQU1BAACxjwv8YQUAAAAJcEhZcwAADsMAAA7DAcdvqGQAAAE7SURBVEhL7ZXBSsNAFEVvpf0cRVEoNNAsggQMSDZ+oRulKEEdIZSBpppgKtEquBURUdTaFux+XEWS10EngxqEnN3cO+E8XgipCSEESmKBBn9JJS+FSl4K/0M+nkwxuLii8RynZ+d4fhnRWIqy/PbuHts7e+j2Tmj1yZHPsbt/iIfHJ1pJUZavrSyh3Wri4LgLHoS0hsd8+DyAZRpYXV6ktRRlOQBsuQ7arSY85ucGSM+WacB17NwzX1HT+bF0PIZ+FMN1bLzPZlpi6MqRGQCAlhhF156l0ajTqDBa8o7HwIMQrmPDMg3wIITHfHrtWwrLs+87XbfuAIXkVJyiO4CyPE6G6EcxNjfWc+IU17FhWyZ4EOLy+obWcoQir6M3MUiGNJ4jihMxnkxpLEX7U/sJlNf+G1TyUqjkpfABAa76cGyM9uYAAAAASUVORK5CYII=;" vertex="1" parent="zESYAb4LJeq5894BYwA9-1">
            <mxGeometry x="939" y="170" width="31" height="29" as="geometry" />
          </mxCell>
        </UserObject>
        <mxCell id="i1-A-DAKZcBZeYeZFJGX-0" value="New Affiliation &lt;font style=&quot;color: rgb(255, 128, 0);&quot;&gt;(draft)&lt;/font&gt;" style="text;strokeColor=none;align=left;fillColor=none;html=1;verticalAlign=middle;whiteSpace=wrap;rounded=0;fontSize=14;fontStyle=1" vertex="1" parent="zESYAb4LJeq5894BYwA9-1">
          <mxGeometry x="180" y="180" width="190" height="30" as="geometry" />
        </mxCell>
        <mxCell id="MWiUhQKVfkqroulAso7x-0" value="Master name (proper name or English translation)&amp;nbsp; &lt;font style=&quot;color: rgb(255, 0, 0);&quot;&gt;*&lt;/font&gt;" style="text;strokeColor=none;align=left;fillColor=none;html=1;verticalAlign=middle;whiteSpace=wrap;rounded=0;fontColor=#004494;fontStyle=0;fontSize=13;" vertex="1" parent="zESYAb4LJeq5894BYwA9-1">
          <mxGeometry x="180" y="250" width="500" height="30" as="geometry" />
        </mxCell>
        <mxCell id="z8wP_ROshrqbmol6T6AE-0" value="" style="verticalLabelPosition=middle;verticalAlign=middle;html=1;shape=mxgraph.basic.rect;fillColor2=none;strokeWidth=1;size=10;indent=5;labelPosition=center;align=left;spacingLeft=50;fontSize=14;rectStyle=rounded;absoluteCornerSize=0;strokeColor=#B3B3B3;" vertex="1" parent="zESYAb4LJeq5894BYwA9-1">
          <mxGeometry x="180" y="360" width="790" height="30" as="geometry" />
        </mxCell>
        <mxCell id="z8wP_ROshrqbmol6T6AE-1" value="Alternative language (Possibly original language version, if not English)" style="text;strokeColor=none;align=left;fillColor=none;html=1;verticalAlign=middle;whiteSpace=wrap;rounded=0;fontColor=#004494;fontStyle=0;fontSize=13;" vertex="1" parent="zESYAb4LJeq5894BYwA9-1">
          <mxGeometry x="180" y="330" width="500" height="30" as="geometry" />
        </mxCell>
        <mxCell id="z8wP_ROshrqbmol6T6AE-2" value="" style="verticalLabelPosition=middle;verticalAlign=middle;html=1;shape=mxgraph.basic.rect;fillColor2=none;strokeWidth=1;size=10;indent=5;labelPosition=center;align=left;spacingLeft=50;fontSize=14;rectStyle=rounded;absoluteCornerSize=0;strokeColor=#B3B3B3;" vertex="1" parent="zESYAb4LJeq5894BYwA9-1">
          <mxGeometry x="180" y="440" width="790" height="30" as="geometry" />
        </mxCell>
        <mxCell id="z8wP_ROshrqbmol6T6AE-3" value="Country&amp;nbsp; &lt;font style=&quot;color: rgb(255, 0, 0);&quot;&gt;*&lt;/font&gt;" style="text;strokeColor=none;align=left;fillColor=none;html=1;verticalAlign=middle;whiteSpace=wrap;rounded=0;fontColor=#004494;fontStyle=0;fontSize=13;" vertex="1" parent="zESYAb4LJeq5894BYwA9-1">
          <mxGeometry x="180" y="410" width="500" height="30" as="geometry" />
        </mxCell>
        <mxCell id="z8wP_ROshrqbmol6T6AE-4" value="" style="shape=image;verticalLabelPosition=bottom;labelBackgroundColor=default;verticalAlign=top;aspect=fixed;imageAspect=0;image=data:image/png,iVBORw0KGgoAAAANSUhEUgAAABcAAAAYCAYAAAARfGZ1AAAAAXNSR0IArs4c6QAAAARnQU1BAACxjwv8YQUAAAAJcEhZcwAADsMAAA7DAcdvqGQAAAEUSURBVEhL7ZTNSgJRGIaPwWzzFqIuIKLbEBRNjHGyBqFBqG2boKBNNxVEWxGJHIwaf6qV8yPYDczTIkaazxlRMCLwWb7vd57vbM7JAKhfYkMGq2QtT2QtT+Rv5Hf3D2rkejKeYTL5VE5vIONvSKFqWhzVG4xcT1ZTPD/AtM6pmpasAEiVD4bvHOgmRr2B6/myxg/GnJyeUTw8xun1ZQ3z5ABOr0+hUptZEIkLlRrPL6+xMz+ZKwfo2F3yZWO6IBLnywYduyvHY2RY4Fd8fLLV1c2tymY3laZpKgjG6vryQu3v7crROHJbGs1Wm1xJJ1fSabbask5koZtHDN8+VBiGamd7S1aJLCVfltRHtArW8kT+r/wL5AjL83RtTgkAAAAASUVORK5CYII=;" vertex="1" parent="zESYAb4LJeq5894BYwA9-1">
          <mxGeometry x="940" y="443" width="23" height="24" as="geometry" />
        </mxCell>
        <mxCell id="vj4_CF8QU2v0aXNlda7R-0" value="" style="rounded=0;whiteSpace=wrap;html=1;" vertex="1" parent="zESYAb4LJeq5894BYwA9-1">
          <mxGeometry x="1160" y="750" width="40" height="30" as="geometry" />
        </mxCell>
        <mxCell id="OwVeCEbmAg5ksfxNDIBZ-0" value="" style="rounded=0;whiteSpace=wrap;html=1;" vertex="1" parent="zESYAb4LJeq5894BYwA9-1">
          <mxGeometry width="40" height="30" as="geometry" />
        </mxCell>
      </root>
    </mxGraphModel>
  </diagram>
  <diagram name="Page-Manage_affiliations" id="zFEpk0A5Zmocg5hjf9nW">
    <mxGraphModel dx="1404" dy="772" grid="1" gridSize="10" guides="1" tooltips="1" connect="1" arrows="1" fold="1" page="1" pageScale="1" pageWidth="1200" pageHeight="780" math="0" shadow="0">
      <root>
        <mxCell id="lhZgjykOQaQJ4iBzK1VJ-0" />
        <mxCell id="lhZgjykOQaQJ4iBzK1VJ-1" parent="lhZgjykOQaQJ4iBzK1VJ-0" />
        <mxCell id="lhZgjykOQaQJ4iBzK1VJ-2" value="" style="rounded=1;whiteSpace=wrap;html=1;arcSize=10;absoluteArcSize=1;connectable=0;allowArrows=0;" vertex="1" parent="lhZgjykOQaQJ4iBzK1VJ-1">
          <mxGeometry width="1200" height="780" as="geometry" />
        </mxCell>
        <mxCell id="lhZgjykOQaQJ4iBzK1VJ-3" value="" style="verticalLabelPosition=bottom;verticalAlign=top;html=1;shape=mxgraph.basic.rect;fillColor2=none;strokeWidth=1;size=20;indent=5;strokeColor=#CCCCCC;fillColor=#F0F0F0;" vertex="1" parent="lhZgjykOQaQJ4iBzK1VJ-1">
          <mxGeometry x="40" y="120" width="1120" height="360" as="geometry" />
        </mxCell>
        <mxCell id="lhZgjykOQaQJ4iBzK1VJ-5" value="Manage Affiliations" style="verticalLabelPosition=middle;verticalAlign=middle;html=1;shape=mxgraph.basic.rect;fillColor2=none;strokeWidth=1;size=20;indent=5;rectStyle=rounded;bottom=0;absoluteCornerSize=0;labelPosition=center;align=center;fillColor=#CCCCCC;fontSize=14;fontStyle=1;strokeColor=#B3B3B3;" vertex="1" parent="lhZgjykOQaQJ4iBzK1VJ-1">
          <mxGeometry x="50" y="80" width="160" height="40" as="geometry" />
        </mxCell>
        <UserObject label="Add new affiliation" id="lhZgjykOQaQJ4iBzK1VJ-6">
          <mxCell style="rounded=1;whiteSpace=wrap;html=1;fillColor=#004494;fontColor=#ffffff;strokeColor=#314354;glass=0;fontSize=14;" vertex="1" parent="lhZgjykOQaQJ4iBzK1VJ-1">
            <mxGeometry x="976" y="130" width="160" height="30" as="geometry" />
          </mxCell>
        </UserObject>
        <mxCell id="lhZgjykOQaQJ4iBzK1VJ-13" value="" style="line;strokeWidth=1;html=1;strokeColor=#CCCCCC;" vertex="1" parent="lhZgjykOQaQJ4iBzK1VJ-1">
          <mxGeometry x="10" y="50" width="1180" height="10" as="geometry" />
        </mxCell>
        <mxCell id="lhZgjykOQaQJ4iBzK1VJ-14" value="" style="line;strokeWidth=1;html=1;strokeColor=#CCCCCC;" vertex="1" parent="lhZgjykOQaQJ4iBzK1VJ-1">
          <mxGeometry x="10" y="710" width="1180" height="10" as="geometry" />
        </mxCell>
        <UserObject label="Cancel" link="data:page/id,dKuC8U5UuyInBoBZ48gH" id="lhZgjykOQaQJ4iBzK1VJ-15">
          <mxCell style="rounded=1;whiteSpace=wrap;html=1;fillColor=#004494;fontColor=#ffffff;strokeColor=#004494;glass=0;fontSize=14;" vertex="1" parent="lhZgjykOQaQJ4iBzK1VJ-1">
            <mxGeometry x="1040" y="730" width="120" height="30" as="geometry" />
          </mxCell>
        </UserObject>
        <UserObject label="Save" id="lhZgjykOQaQJ4iBzK1VJ-16">
          <mxCell style="rounded=1;whiteSpace=wrap;html=1;fillColor=#93B0D1;fontColor=#ffffff;strokeColor=#93B0D1;glass=0;fontSize=14;" vertex="1" parent="lhZgjykOQaQJ4iBzK1VJ-1">
            <mxGeometry x="910" y="730" width="120" height="30" as="geometry" />
          </mxCell>
        </UserObject>
        <UserObject label="" link="data:page/id,dKuC8U5UuyInBoBZ48gH" id="lhZgjykOQaQJ4iBzK1VJ-17">
          <mxCell style="shape=image;verticalLabelPosition=bottom;labelBackgroundColor=default;verticalAlign=top;aspect=fixed;imageAspect=0;image=data:image/png,iVBORw0KGgoAAAANSUhEUgAAAB8AAAAdCAYAAABSZrcyAAAAAXNSR0IArs4c6QAAAARnQU1BAACxjwv8YQUAAAAJcEhZcwAADsMAAA7DAcdvqGQAAAE7SURBVEhL7ZXBSsNAFEVvpf0cRVEoNNAsggQMSDZ+oRulKEEdIZSBpppgKtEquBURUdTaFux+XEWS10EngxqEnN3cO+E8XgipCSEESmKBBn9JJS+FSl4K/0M+nkwxuLii8RynZ+d4fhnRWIqy/PbuHts7e+j2Tmj1yZHPsbt/iIfHJ1pJUZavrSyh3Wri4LgLHoS0hsd8+DyAZRpYXV6ktRRlOQBsuQ7arSY85ucGSM+WacB17NwzX1HT+bF0PIZ+FMN1bLzPZlpi6MqRGQCAlhhF156l0ajTqDBa8o7HwIMQrmPDMg3wIITHfHrtWwrLs+87XbfuAIXkVJyiO4CyPE6G6EcxNjfWc+IU17FhWyZ4EOLy+obWcoQir6M3MUiGNJ4jihMxnkxpLEX7U/sJlNf+G1TyUqjkpfABAa76cGyM9uYAAAAASUVORK5CYII=;" vertex="1" parent="lhZgjykOQaQJ4iBzK1VJ-1">
            <mxGeometry x="1129" y="10" width="31" height="29" as="geometry" />
          </mxCell>
        </UserObject>
        <mxCell id="lhZgjykOQaQJ4iBzK1VJ-18" value="" style="shape=image;verticalLabelPosition=bottom;labelBackgroundColor=default;verticalAlign=top;aspect=fixed;imageAspect=0;image=data:image/png,iVBORw0KGgoAAAANSUhEUgAAAlYAAAApCAYAAAD3TmciAAAAAXNSR0IArs4c6QAAAARnQU1BAACxjwv8YQUAAAAJcEhZcwAADsMAAA7DAcdvqGQAAA69SURBVHhe7Z1PaBzXHce/KTkkkIIDKdhgoWoVyx3ZPaQ3X2SxRv6TrP7EIqV18MGuDkoCllqze1BpDqXVYWWDZXAQeCtBi9OSICPJm8ax8FoSIZf20IOltZWsbGUFMfQQHQIutDA9zMzOe7+dnT+7I1l2vh9Ykpn3Zt57v/d7v/d7v/dGfs40TROEEEIIIaRhfiBvEEIIIYSQ+qBjRQghhBASE3SsCCGEEEJigo4VIYQQQkhM0LEihBBCCIkJOlaEEEIIITFBx4oQQgghJCboWBFCCCGExAQdK0IIIYSQmKBjRQghhBASE3SsCCGEEEJigo4VIYQQQkhMbK1j9R95gxBCCCHk2SV+x+peAfjNEeDF54AXXwY+pXdFCAnB5iPgkf3bpN0ghDydxONYqc6UcQT49IEdrdoENmVmQggRjP0MeHkPsMf+vdwO3KHxIIQ8fdTvWEln6l8twPUV4JtPgM0HwI9bALwOdL8gnySEEJdHfwIyReD6t4BpWr/sLiCZBO7JzIQQsrOJ5ljdKwDvv1HtTD02gUIOOPQAeO0N4NA14JcA3nwbeEm+RLKBXG87Em3tSLRl8HGuH4neKZRlNg8WMu1IZJbkbZslDLe1Y7gg7yMgbQezPoXutn7k1mWCF5Zct6eN21mWTjmCvgSj6kVQm5YwrPZFpL55lgiSUwi+2wTQAvx0l3svXQBOPwAO9QMfX9d/d4rAd+oLalPO9du2pR3Df4vQRwH96Wd74tXJ7cOvTZJyrj903oYpZHaUPMPKKXYZCTnsJD0Lqosqs6C8YZHyDdsv20F4x2rqiOVMfb5Hd6ZOGMALADb/Dhi2U/XRa8BfHwBvnZRvqWZ9HrPFFCZXV7C2msVbA9NYmz2DJpkvVjpwaXUFl5LyPvl+Q73YOewCJr8AXr0O/Lxf/yXbgR8mgM+DzmFt4LMbRfRMrGBtdQWXfnEGN1anMdAs88VL07bYMPKk6MyuYC3bIW+TkGzV+NhJ/RLesdrdYv13125gX4vlTDloTtUp4N414OHJ4G3AQgaJrjEsI4+zbe3ozm1Ue7OFTGXFmQiIMqmr00QmL5MVRMRqfQrdShnduQ2R38GOUhSU/L1TKNvvs54Xq1xR/0RbBgt2kuVxTykRu+qyFzJK2pWilibr7Za9gVzvUYwWgblB9Z1qPfWyyrl+dOemKunDlzJaXZ081SuNWmWpkcjglYTaTq1cj8hB9cqkiItKWaqOLGTa0Z1bUupivUuTq5DPcKFWmxyWMNw2iDkUMdqll3f3iqKDUlYRdHkh047hnNO/Tvv1/pMy1dtktdkpo7rvqqO22vgRMvdOC5JTgzxvAP+wtwa132Pg14+B96/JJxSWMNzm1i3RO4VylS75y1NDG2sZzMh0BV3W4ctwVuBqPw4XpF1Tnq85/p20DHLqs1IfA9qkj0k94nA4WwRmBpV3+o33JQyrdTnxLo552knd3lTuD+aB4hgOS9up1L3quQqi7JD9oo8lyy46Y0WzPzXmDm8ZyXpLXfSqp00NOUjbJ8dg7fIkteY2m6qxE80Oq0hb5FfHKDoo61NbR+y25lR77KdDdWBG4ZvbpnnasMzbid+a5pePTfPbT0xzN0zzzWum+V873+9arOswPJw0U/vS5h378uurJ82Wnknza9M0zdtps0VJs/KeNK8+tC7vpA2zJb3oPqfkvZM2zJZ9hjl023lYZdEcqqSp/+91rWKlVernXNeok1V/N62SX6uzUpbIfyetllU2r/YoZT2cNFNaPe10kV+2K3W17Hlt1aW6rvL93nKRaXZdHDlUXetofS6vRZ+bnv2utEvIxdIDIVM1v6ZjaptlmySL5pBaL7tct41C3gG6LLHqqeSv0R96/9XWfylj+b6qdLW+su7adZCcQvDlBdOEYZpfygQfsoZpHrwg7wpE3TSZ+8tTyyvH2u202aL1tY4rS/HOqmsdaQ+c60o5fnVyxpg2bnz0UT4v2qTbHjddq1vN8S2vdbvnJYc76dpyMW+nq+2DnDO0saIiy3bvSdmFHUuu/ZHv8RhTSrm+Y8yzngJPOcg+dG2Kf3kSu3zZ7jjtsJq31hyvXEfTQY8yauqI3VY5t/rJPiLhI1YAsDsJ/HkF+PcXwCvXgX0vAj9SIlXPA0AR+EvIbUBfNpAbz6NnIotO51bzGXyQAUavyFWfFfI/kDlXyduZnUCPyBWO4O2gniEnjNmBvj4AfUOV7YXO4yngfsnyxpNZrGlbD3Z+FSON805ZyRR6UMTdEgAsYWZGLWsvBi6nccB5rvkMbmj13Itj3YZzUUU5N445I40PBvbadzpwaSKF5exl11M3Ujgm6lpas1dA9pZtn49cKhQuY7SYwmQlLGvXfWbcZ8XkEjlUrLar+QzO9wFzNxUdkf2DFM47+ZMp9KCEr0LUKxgDI+85bbbkt7y6FlGXFfpSlfzl3Djm+ia0/h64nAayl7Hgpf/vKboSyBIuZoGRy4rMk1lM9uVx0SsKlcxibVVpy1OIvzx1yvN5LGvjNItJOY5DsRcDsyu4URmDHijlNHWlcEDVqeYu9Bq2fQg1/mvpY3CbOrMr+hhMpmrb05Djvee4m36s26jUxbJ1Bnq7fORSYQkXs0VtLDUNjGPEqKGrNm7ZQX3vbB+77w8/lvzmjnBjTK1nKHzmjzDlSaraXczjs7C2McgOV2HZRdVuqbYlkg5qhNMRdW491m2483YMRHOsHF45ZDtY05Yz9dbrtlMF4G7IbcBA1nDXCeMrocDDWbEdpuRtTagDM4GD0s540oHzGcMtxydUX4sDbQl5S0cJF5+V8fZarJdQgoGDrcq95laolxZuSNtbNhal1SKwv1V3VloNX4PReTyF5RvzlrKVilhWJno/ymslwDD0unrW3aJpYAg9xTEc9ggFh0K0q7UtYJDIum05UXTZm9KqHfZWw+JdY1gGvPW/uQu9ofTf0TVrW1N9f0VXk+cwYljb9QmfEP/ThL88PfJ66VggezEwlMJy9qj1frm9E4pWvOp7Jizc+JeEbZO7nTKIOZloE3W8w3EaZ/KWE7teQklb1PngZRexF6/uV6/98e/7NdwthrG7iDZ3BI2xuKmrPK92O45aCLz0yc8Oe9ktD8LooEYMOtIo9TlWDq+cBLKHgJELwP/sex99CJz+VYivAcPhHDzVfjEfUGsamLbeO5GqDDi5V10XjkPVNYZWux31rXS9cAzqIEqZW1hbXcFiptowNkQyhR57xbJwMx99NRUaa6W3tnoLI4ZjDGLe894BNKzLfRPVz8cWOTIwMi/f7URXrEiLo7/WRFKHA7zT2FJ52iSz1nvn0zjgLB78JuDQbO34dyazw9lW+8OiencAatDchV4jj5mCFT1Dd1f4CHUcxNT30eYOvzG2FWx3efGy5Tq4hTTmWAHAO38AHv0R+HhT2QZ8XeaqAyviVNmK8sUrr+UNR8I2gosZw43UNEB5Po9lewB7h4d98FotrJdQuSzkMWeksRhyoHiuHkpFzxW6Swf6+oqYnZ/CzEzIbUAATYlWoFh06wpR95o4E/gEemAZ3VCIdnmtxp8sXvoZDc/+q+D1/gj676VrNejMrlQc4Nn5+tvzpPGXp45X3tJqWOHa2Ft31gRsR2oaIeL4l/i3Sf2aMtjZqG+8W9svczen8NkNhNwGrKWrG/jqvnrtj1fbXRI46Gy3OgS2JcTc4VnvLaSu8rzaLSM/Pnjpk68d9rJbDtF0UMOz7dF0pFEad6yeTwK/N6yo1T+vAQ9PASdkpnpwwuhDysrY+vKkekXg5HXPRyxkQoYNq76Oss+rxLWCUpStnOsPCMWq2GHmceWrm3Niq0I1ZoWM71aAs932rvoF3KDY3/ag83gKy9kxzIXcBgSUraPKytyuu3LWSUV+JYJCHnOwHTl7kFQm8fUpXJQyLI7hotN/hQzOzqhnS3YCUXTZm+r+U+UWrP/W5OeelyjnxpV0Z0tDfjljjwv5xdb6PGaLYc/EhGD3HmtRNllw/0kbv9/DAvBREdi3R74pNP7y1HHy6jomMnlS3ccLN/Pa2bmGiDD+JWHa5E54G8j1+tjTiOPdwdoOHMMoQm4DAp66Ws4NYbSonJsMwL/vbYdPef/CFe8t4mhzR3W9q5+Pk/rKc+cbu91OH26JHa62W/Lrw9A6qFHd9qg60iiNO1YA8M4FK2p1+kPg9NvueatGSWaxmIGyT3wUs923vFdoySwWM6XKOZCLbemQYUPrELd7/uUoRvdPeJcRkaaBcYzAOTvUjsOrQ1a4PuSKtWlgGpP7neeP4m63cojSPojotDcxbmBxIqVMno6BcLYeOnBpdQKtznkPewshsJ32gUH/bUBZ1l4MzN7CyH3nHIMl01rbXlJOicESRuadVYpzyN6u9zngvNzy6Evj4LjzbB49E3H8rSLZJokVzRvtCukcRdFlTzpwaT4NVPqvHYdvpLDoHO4U+n8W4qBnMotJu76Jtna8iyGMKGJsGpjW9altEJiwI61S17rG0FqRcZCcQvDSKaBwHhg74v6TNn6/liPAd+eByVPyTREIkKdH3pJjI8YNjITa0ncORbtlnL2fxmKNcRAJ2SdV4z8IvzbJeh/F3aFbGDHcw8iWUzRoO9zRxnsF+xygtyOikEzZZzCtCbdpYFrTdWurKEpUw7/v5Viw5hKvyI3/3KHLqPq92hgLg5BDEPWU17O/WLHDuq5ukR0Wdsu1LVF1UKdxHWmM50zTNOXNupjqB97fBOZvAz+RieTpZQnDbXn0baNSkjhYwnAIQ0rIk2MDud4h4HKICfiJsoThtnEcnN/p9WwE2os4iSdiBQBnpoEynapnjkI+2jYgIYSEYX0es5G2AbeD6u1b60/V7LR6kp1MfI4Vecaw/5LyIJS/T0MIIY2zkGlHoiuPXvXvLO0I5BaU3xYxId7EtxVICCGEEPI9hxErQgghhJCYoGNFCCGEEBITdKwIIYQQQmKCjhUhhBBCSEzQsSKEEEIIiQk6VoQQQgghMUHHihBCCCEkJuhYEUIIIYTEBB0rQgghhJCYoGNFCCGEEBIT/wdpBr0nnbOgfQAAAABJRU5ErkJggg==;" vertex="1" parent="lhZgjykOQaQJ4iBzK1VJ-1">
          <mxGeometry x="40" y="724.5" width="598" height="41" as="geometry" />
        </mxCell>
        <mxCell id="lhZgjykOQaQJ4iBzK1VJ-19" value="" style="shape=table;startSize=0;container=1;collapsible=0;childLayout=tableLayout;rowLines=0;columnLines=0;horizontal=1;noLabel=0;align=left;strokeColor=default;top=0;bottom=0;left=0;right=0;" vertex="1" parent="lhZgjykOQaQJ4iBzK1VJ-1">
          <mxGeometry x="70" y="190" width="1060" height="220" as="geometry" />
        </mxCell>
        <mxCell id="lhZgjykOQaQJ4iBzK1VJ-20" value="" style="shape=tableRow;horizontal=0;startSize=0;swimlaneHead=0;swimlaneBody=0;strokeColor=inherit;top=0;left=0;bottom=0;right=0;collapsible=0;dropTarget=0;fillColor=none;points=[[0,0.5],[1,0.5]];portConstraint=eastwest;align=left;" vertex="1" parent="lhZgjykOQaQJ4iBzK1VJ-19">
          <mxGeometry width="1060" height="55" as="geometry" />
        </mxCell>
        <mxCell id="lhZgjykOQaQJ4iBzK1VJ-21" value="&lt;b&gt;Master name&lt;/b&gt;" style="shape=partialRectangle;html=1;whiteSpace=wrap;connectable=0;strokeColor=inherit;overflow=hidden;fillColor=none;top=0;left=0;bottom=0;right=0;pointerEvents=1;align=left;" vertex="1" parent="lhZgjykOQaQJ4iBzK1VJ-20">
          <mxGeometry width="380" height="55" as="geometry">
            <mxRectangle width="380" height="55" as="alternateBounds" />
          </mxGeometry>
        </mxCell>
        <mxCell id="lhZgjykOQaQJ4iBzK1VJ-22" value="&lt;b&gt;Alternative name&lt;/b&gt;" style="shape=partialRectangle;html=1;whiteSpace=wrap;connectable=0;strokeColor=inherit;overflow=hidden;fillColor=none;top=0;left=0;bottom=0;right=0;pointerEvents=1;align=left;" vertex="1" parent="lhZgjykOQaQJ4iBzK1VJ-20">
          <mxGeometry x="380" width="380" height="55" as="geometry">
            <mxRectangle width="380" height="55" as="alternateBounds" />
          </mxGeometry>
        </mxCell>
        <mxCell id="lhZgjykOQaQJ4iBzK1VJ-23" value="&lt;b&gt;Country&lt;/b&gt;" style="shape=partialRectangle;html=1;whiteSpace=wrap;connectable=0;strokeColor=inherit;overflow=hidden;fillColor=none;top=0;left=0;bottom=0;right=0;pointerEvents=1;align=left;" vertex="1" parent="lhZgjykOQaQJ4iBzK1VJ-20">
          <mxGeometry x="760" width="100" height="55" as="geometry">
            <mxRectangle width="100" height="55" as="alternateBounds" />
          </mxGeometry>
        </mxCell>
        <mxCell id="Y1L_1-RqDApfUDy9m5ml-3" value="Status" style="shape=partialRectangle;html=1;whiteSpace=wrap;connectable=0;strokeColor=inherit;overflow=hidden;fillColor=none;top=0;left=0;bottom=0;right=0;pointerEvents=1;align=center;fontStyle=1" vertex="1" parent="lhZgjykOQaQJ4iBzK1VJ-20">
          <mxGeometry x="860" width="100" height="55" as="geometry">
            <mxRectangle width="100" height="55" as="alternateBounds" />
          </mxGeometry>
        </mxCell>
        <mxCell id="lhZgjykOQaQJ4iBzK1VJ-24" value="&lt;b&gt;Actions&lt;/b&gt;" style="shape=partialRectangle;html=1;whiteSpace=wrap;connectable=0;strokeColor=inherit;overflow=hidden;fillColor=none;top=0;left=0;bottom=0;right=0;pointerEvents=1;align=center;" vertex="1" parent="lhZgjykOQaQJ4iBzK1VJ-20">
          <mxGeometry x="960" width="100" height="55" as="geometry">
            <mxRectangle width="100" height="55" as="alternateBounds" />
          </mxGeometry>
        </mxCell>
        <mxCell id="lhZgjykOQaQJ4iBzK1VJ-30" value="" style="shape=tableRow;horizontal=0;startSize=0;swimlaneHead=0;swimlaneBody=0;strokeColor=inherit;top=0;left=0;bottom=0;right=0;collapsible=0;dropTarget=0;fillColor=none;points=[[0,0.5],[1,0.5]];portConstraint=eastwest;align=left;" vertex="1" parent="lhZgjykOQaQJ4iBzK1VJ-19">
          <mxGeometry y="55" width="1060" height="55" as="geometry" />
        </mxCell>
        <mxCell id="lhZgjykOQaQJ4iBzK1VJ-31" value="Advanced Materials and Processes Research Institute (AMPRI)" style="shape=partialRectangle;html=1;whiteSpace=wrap;connectable=0;strokeColor=inherit;overflow=hidden;fillColor=none;top=0;left=0;bottom=0;right=0;pointerEvents=1;align=left;" vertex="1" parent="lhZgjykOQaQJ4iBzK1VJ-30">
          <mxGeometry width="380" height="55" as="geometry">
            <mxRectangle width="380" height="55" as="alternateBounds" />
          </mxGeometry>
        </mxCell>
        <mxCell id="lhZgjykOQaQJ4iBzK1VJ-32" value="" style="shape=partialRectangle;html=1;whiteSpace=wrap;connectable=0;strokeColor=inherit;overflow=hidden;fillColor=none;top=0;left=0;bottom=0;right=0;pointerEvents=1;align=left;" vertex="1" parent="lhZgjykOQaQJ4iBzK1VJ-30">
          <mxGeometry x="380" width="380" height="55" as="geometry">
            <mxRectangle width="380" height="55" as="alternateBounds" />
          </mxGeometry>
        </mxCell>
        <mxCell id="lhZgjykOQaQJ4iBzK1VJ-33" value="Germany" style="shape=partialRectangle;html=1;whiteSpace=wrap;connectable=0;strokeColor=inherit;overflow=hidden;fillColor=none;top=0;left=0;bottom=0;right=0;pointerEvents=1;align=left;" vertex="1" parent="lhZgjykOQaQJ4iBzK1VJ-30">
          <mxGeometry x="760" width="100" height="55" as="geometry">
            <mxRectangle width="100" height="55" as="alternateBounds" />
          </mxGeometry>
        </mxCell>
        <mxCell id="Y1L_1-RqDApfUDy9m5ml-4" value="DRAFT" style="shape=partialRectangle;html=1;whiteSpace=wrap;connectable=0;strokeColor=inherit;overflow=hidden;fillColor=none;top=0;left=0;bottom=0;right=0;pointerEvents=1;align=center;fontColor=#FF8000;" vertex="1" parent="lhZgjykOQaQJ4iBzK1VJ-30">
          <mxGeometry x="860" width="100" height="55" as="geometry">
            <mxRectangle width="100" height="55" as="alternateBounds" />
          </mxGeometry>
        </mxCell>
        <mxCell id="lhZgjykOQaQJ4iBzK1VJ-34" value="" style="shape=partialRectangle;html=1;whiteSpace=wrap;connectable=0;strokeColor=inherit;overflow=hidden;fillColor=none;top=0;left=0;bottom=0;right=0;pointerEvents=1;align=left;" vertex="1" parent="lhZgjykOQaQJ4iBzK1VJ-30">
          <mxGeometry x="960" width="100" height="55" as="geometry">
            <mxRectangle width="100" height="55" as="alternateBounds" />
          </mxGeometry>
        </mxCell>
        <mxCell id="lhZgjykOQaQJ4iBzK1VJ-40" value="" style="shape=tableRow;horizontal=0;startSize=0;swimlaneHead=0;swimlaneBody=0;strokeColor=inherit;top=0;left=0;bottom=0;right=0;collapsible=0;dropTarget=0;fillColor=none;points=[[0,0.5],[1,0.5]];portConstraint=eastwest;align=left;" vertex="1" parent="lhZgjykOQaQJ4iBzK1VJ-19">
          <mxGeometry y="110" width="1060" height="55" as="geometry" />
        </mxCell>
        <mxCell id="lhZgjykOQaQJ4iBzK1VJ-41" value="Agricultural Research Centre for International Development&amp;nbsp;&lt;div&gt;(CIRAD)&lt;/div&gt;" style="shape=partialRectangle;html=1;whiteSpace=wrap;connectable=0;strokeColor=inherit;overflow=hidden;fillColor=none;top=0;left=0;bottom=0;right=0;pointerEvents=1;align=left;" vertex="1" parent="lhZgjykOQaQJ4iBzK1VJ-40">
          <mxGeometry width="380" height="55" as="geometry">
            <mxRectangle width="380" height="55" as="alternateBounds" />
          </mxGeometry>
        </mxCell>
        <mxCell id="lhZgjykOQaQJ4iBzK1VJ-42" value="&lt;span style=&quot;text-wrap-mode: nowrap;&quot;&gt;Centre de coopération internationale en recherche agronomique&amp;nbsp;&lt;/span&gt;&lt;div&gt;&lt;span style=&quot;text-wrap-mode: nowrap;&quot;&gt;pour&amp;nbsp;&lt;/span&gt;&lt;span style=&quot;text-wrap-mode: nowrap; background-color: transparent; color: light-dark(rgb(0, 0, 0), rgb(255, 255, 255));&quot;&gt;le développement (CIRAD)&lt;/span&gt;&lt;/div&gt;" style="shape=partialRectangle;html=1;whiteSpace=wrap;connectable=0;strokeColor=inherit;overflow=hidden;fillColor=none;top=0;left=0;bottom=0;right=0;pointerEvents=1;align=left;" vertex="1" parent="lhZgjykOQaQJ4iBzK1VJ-40">
          <mxGeometry x="380" width="380" height="55" as="geometry">
            <mxRectangle width="380" height="55" as="alternateBounds" />
          </mxGeometry>
        </mxCell>
        <mxCell id="lhZgjykOQaQJ4iBzK1VJ-43" value="France" style="shape=partialRectangle;html=1;whiteSpace=wrap;connectable=0;strokeColor=inherit;overflow=hidden;fillColor=none;top=0;left=0;bottom=0;right=0;pointerEvents=1;align=left;" vertex="1" parent="lhZgjykOQaQJ4iBzK1VJ-40">
          <mxGeometry x="760" width="100" height="55" as="geometry">
            <mxRectangle width="100" height="55" as="alternateBounds" />
          </mxGeometry>
        </mxCell>
        <mxCell id="Y1L_1-RqDApfUDy9m5ml-5" value="DRAFT" style="shape=partialRectangle;html=1;whiteSpace=wrap;connectable=0;strokeColor=inherit;overflow=hidden;fillColor=none;top=0;left=0;bottom=0;right=0;pointerEvents=1;align=center;fontColor=#FF8000;" vertex="1" parent="lhZgjykOQaQJ4iBzK1VJ-40">
          <mxGeometry x="860" width="100" height="55" as="geometry">
            <mxRectangle width="100" height="55" as="alternateBounds" />
          </mxGeometry>
        </mxCell>
        <mxCell id="lhZgjykOQaQJ4iBzK1VJ-44" value="" style="shape=partialRectangle;html=1;whiteSpace=wrap;connectable=0;strokeColor=inherit;overflow=hidden;fillColor=none;top=0;left=0;bottom=0;right=0;pointerEvents=1;align=left;" vertex="1" parent="lhZgjykOQaQJ4iBzK1VJ-40">
          <mxGeometry x="960" width="100" height="55" as="geometry">
            <mxRectangle width="100" height="55" as="alternateBounds" />
          </mxGeometry>
        </mxCell>
        <mxCell id="lhZgjykOQaQJ4iBzK1VJ-50" value="" style="shape=tableRow;horizontal=0;startSize=0;swimlaneHead=0;swimlaneBody=0;strokeColor=inherit;top=0;left=0;bottom=0;right=0;collapsible=0;dropTarget=0;fillColor=none;points=[[0,0.5],[1,0.5]];portConstraint=eastwest;align=left;" vertex="1" parent="lhZgjykOQaQJ4iBzK1VJ-19">
          <mxGeometry y="165" width="1060" height="55" as="geometry" />
        </mxCell>
        <mxCell id="lhZgjykOQaQJ4iBzK1VJ-51" value="&lt;span style=&quot;color: rgb(33, 37, 41); font-family: Arial, &amp;quot;Helvetica Neue&amp;quot;, Helvetica, sans-serif; font-size: 14px; background-color: rgb(255, 255, 255);&quot;&gt;Amazon State University (UEA)&lt;/span&gt;" style="shape=partialRectangle;html=1;whiteSpace=wrap;connectable=0;strokeColor=inherit;overflow=hidden;fillColor=none;top=0;left=0;bottom=0;right=0;pointerEvents=1;align=left;" vertex="1" parent="lhZgjykOQaQJ4iBzK1VJ-50">
          <mxGeometry width="380" height="55" as="geometry">
            <mxRectangle width="380" height="55" as="alternateBounds" />
          </mxGeometry>
        </mxCell>
        <mxCell id="lhZgjykOQaQJ4iBzK1VJ-52" value="Universidad Estatal Amazónica (UEA)" style="shape=partialRectangle;html=1;whiteSpace=wrap;connectable=0;strokeColor=inherit;overflow=hidden;fillColor=none;top=0;left=0;bottom=0;right=0;pointerEvents=1;align=left;" vertex="1" parent="lhZgjykOQaQJ4iBzK1VJ-50">
          <mxGeometry x="380" width="380" height="55" as="geometry">
            <mxRectangle width="380" height="55" as="alternateBounds" />
          </mxGeometry>
        </mxCell>
        <mxCell id="lhZgjykOQaQJ4iBzK1VJ-53" value="&lt;span style=&quot;color: rgb(33, 37, 41); font-family: Arial, &amp;quot;Helvetica Neue&amp;quot;, Helvetica, sans-serif; font-size: 14px; text-wrap-mode: nowrap; background-color: rgb(255, 255, 255);&quot;&gt;Ecuador&lt;/span&gt;" style="shape=partialRectangle;html=1;whiteSpace=wrap;connectable=0;strokeColor=inherit;overflow=hidden;fillColor=none;top=0;left=0;bottom=0;right=0;pointerEvents=1;align=left;" vertex="1" parent="lhZgjykOQaQJ4iBzK1VJ-50">
          <mxGeometry x="760" width="100" height="55" as="geometry">
            <mxRectangle width="100" height="55" as="alternateBounds" />
          </mxGeometry>
        </mxCell>
        <mxCell id="Y1L_1-RqDApfUDy9m5ml-6" value="DRAFT" style="shape=partialRectangle;html=1;whiteSpace=wrap;connectable=0;strokeColor=inherit;overflow=hidden;fillColor=none;top=0;left=0;bottom=0;right=0;pointerEvents=1;align=center;fontColor=#FF8000;" vertex="1" parent="lhZgjykOQaQJ4iBzK1VJ-50">
          <mxGeometry x="860" width="100" height="55" as="geometry">
            <mxRectangle width="100" height="55" as="alternateBounds" />
          </mxGeometry>
        </mxCell>
        <mxCell id="lhZgjykOQaQJ4iBzK1VJ-54" value="" style="shape=partialRectangle;html=1;whiteSpace=wrap;connectable=0;strokeColor=inherit;overflow=hidden;fillColor=none;top=0;left=0;bottom=0;right=0;pointerEvents=1;align=left;" vertex="1" parent="lhZgjykOQaQJ4iBzK1VJ-50">
          <mxGeometry x="960" width="100" height="55" as="geometry">
            <mxRectangle width="100" height="55" as="alternateBounds" />
          </mxGeometry>
        </mxCell>
        <mxCell id="lhZgjykOQaQJ4iBzK1VJ-81" value="" style="line;strokeWidth=3;html=1;strokeColor=#E6E6E6;" vertex="1" parent="lhZgjykOQaQJ4iBzK1VJ-1">
          <mxGeometry x="66" y="240" width="1070" height="10" as="geometry" />
        </mxCell>
        <mxCell id="vJ6L2qPYslCfaek04Jqh-0" value="" style="line;strokeWidth=1;html=1;" vertex="1" parent="lhZgjykOQaQJ4iBzK1VJ-1">
          <mxGeometry x="60" y="170" width="1080" height="10" as="geometry" />
        </mxCell>
        <mxCell id="vJ6L2qPYslCfaek04Jqh-1" value="&lt;b&gt;Affiliations&lt;/b&gt;" style="text;strokeColor=none;align=left;fillColor=none;html=1;verticalAlign=middle;whiteSpace=wrap;rounded=0;fontSize=13;" vertex="1" parent="lhZgjykOQaQJ4iBzK1VJ-1">
          <mxGeometry x="60" y="140" width="90" height="30" as="geometry" />
        </mxCell>
        <mxCell id="Y1L_1-RqDApfUDy9m5ml-0" value="" style="shape=image;verticalLabelPosition=bottom;labelBackgroundColor=default;verticalAlign=top;aspect=fixed;imageAspect=0;image=data:image/png,iVBORw0KGgoAAAANSUhEUgAAACUAAAAeCAYAAACrI9dtAAAAAXNSR0IArs4c6QAAAARnQU1BAACxjwv8YQUAAAAJcEhZcwAADsMAAA7DAcdvqGQAAAHTSURBVFhH7Zg9S8NQFIbfNIkfCBUES1FEBHVQpJQuSpYOFgTdCg46iUqRgiAW/AGKFMwkdCjSSezmx2AnB6egS9262B9grWBFVJC2xiHx2F6QhpikBX2m8J5zOQ+HOyThVFVV0WJwtVLZfBGxpAIlV0C58lHfaQOi4II07oUckRAY8VBOUtl8EVPrxyhXql8larIPbR+iwONqP0xirq9yLKnoQpxDQqBZ5UoVsaRCKUkpuQKFzaB2Pklpd8ipDbFwdXeYpFqJvyPlnxzFwvQg/GzBIBZLubEZX8LNdgipjTncnIax08f2NMZCKTc242HIE+9I7x6ic/YcJ69eLK+Nso0NsUjqWyi1ncbi5TOAEu5e2D5jWCBVL7RyrWd784gOlJA5u2UPNOSXUj8LyWNvWpZlzzTmF1IGhK7ZM8YwKWWfEMxJ2SsEU1KrM9ixUQimpLoFdNzf2SYEM1IL3e1AVw+OtkLIHFgvBDNShcdXPLW54R/uxRAekLBYCLWvw1wowdYcR72IAmY25QT/UkYhKVFw0SeP86j6fA16ksa9FDaD2vkkJUckiAKvb8upjWmzRIGHHJEoJanAiAdX+2EEff26nP2IAo+gr7/u6xjsv4RW4RMSMMrj859N6AAAAABJRU5ErkJggg==;" vertex="1" parent="lhZgjykOQaQJ4iBzK1VJ-1">
          <mxGeometry x="1043" y="259" width="37" height="30" as="geometry" />
        </mxCell>
        <mxCell id="Y1L_1-RqDApfUDy9m5ml-1" value="" style="shape=image;verticalLabelPosition=bottom;labelBackgroundColor=default;verticalAlign=top;aspect=fixed;imageAspect=0;image=data:image/png,iVBORw0KGgoAAAANSUhEUgAAACMAAAAfCAYAAABtYXSPAAAAAXNSR0IArs4c6QAAAARnQU1BAACxjwv8YQUAAAAJcEhZcwAADsMAAA7DAcdvqGQAAAJrSURBVFhH7Zc9aBNhGMd/l0tqkqEYaGNileKQQFukxUzlHEqJg0a0GBeziB+QoeB0m2vd4lIsmNGlk0FcilDaLF4zFYdSO1QMxWBihQak2GAvnkPuSvJKPy5JYwZ/8C7P+3/v+fO8H8cjGYZh0CU4xMC/RLIqs7q5jZrW0NZL7Ou/RV3bcTkdKCMBUkmFSMgPlpnVzW3Gn2TY16umVGpYeDrUTofLKZObjRMJ+WvbpKY104jUISMc5NrXq6hpDawzo62XRGVHsfI7APOMdKoiItLBGe2q29RVZiTDMAzp2pwYP57zF7gz7MXdENQpffzM8teG4IkwFqebNTPG0muFSU+VivUaAMgy7r0C6t23PK8LnwRjcbrJbYoPckUuoMZe4rlVN2Iay3I/N+LigpNhqzKT92+SutqLu8fL0DnIf/lJpUEhE7zYC9/KFH/p5N+vEHtVaFAchu3K5HfKbOydYchdZj67Re7Tdz40jBIL2S2KPh++vTIbOz/ETxyJrcoAoCYwhotID7PijMkYS28Ugtocwylx7nBsV+Yvpm5TnL9OgjCZ+QcsTYkCe7RmRga3p4cgXs56ZJBFgT1aM9NmWjdThQpVqH9vmqQ1M5kV4jNZ5ljj8cw71IwosId9M7s6+Pp5MRUmEfUR6AuQiIYZ7/MyFA2TuBfkkgcqu+LC47F/tRkk9Uzh0eVe4b9koZNf20B9qrEgTh1BC/+m9tP6O9Nm/ps5DAdmD2O1Dp3HMPObZpSRgKjoKFZ+B0AqqeByymZ1OlWhWi6XUyaVVMAyEwn5yc3GmRgdME2dPi6nzMTowEE3SX2v3Q38ASYa4GW2TC4GAAAAAElFTkSuQmCC;" vertex="1" parent="lhZgjykOQaQJ4iBzK1VJ-1">
          <mxGeometry x="1084.5" y="258" width="35" height="31" as="geometry" />
        </mxCell>
        <mxCell id="Y1L_1-RqDApfUDy9m5ml-7" value="" style="shape=image;verticalLabelPosition=bottom;labelBackgroundColor=default;verticalAlign=top;aspect=fixed;imageAspect=0;image=data:image/png,iVBORw0KGgoAAAANSUhEUgAAACUAAAAeCAYAAACrI9dtAAAAAXNSR0IArs4c6QAAAARnQU1BAACxjwv8YQUAAAAJcEhZcwAADsMAAA7DAcdvqGQAAAHTSURBVFhH7Zg9S8NQFIbfNIkfCBUES1FEBHVQpJQuSpYOFgTdCg46iUqRgiAW/AGKFMwkdCjSSezmx2AnB6egS9262B9grWBFVJC2xiHx2F6QhpikBX2m8J5zOQ+HOyThVFVV0WJwtVLZfBGxpAIlV0C58lHfaQOi4II07oUckRAY8VBOUtl8EVPrxyhXql8larIPbR+iwONqP0xirq9yLKnoQpxDQqBZ5UoVsaRCKUkpuQKFzaB2Pklpd8ipDbFwdXeYpFqJvyPlnxzFwvQg/GzBIBZLubEZX8LNdgipjTncnIax08f2NMZCKTc242HIE+9I7x6ic/YcJ69eLK+Nso0NsUjqWyi1ncbi5TOAEu5e2D5jWCBVL7RyrWd784gOlJA5u2UPNOSXUj8LyWNvWpZlzzTmF1IGhK7ZM8YwKWWfEMxJ2SsEU1KrM9ixUQimpLoFdNzf2SYEM1IL3e1AVw+OtkLIHFgvBDNShcdXPLW54R/uxRAekLBYCLWvw1wowdYcR72IAmY25QT/UkYhKVFw0SeP86j6fA16ksa9FDaD2vkkJUckiAKvb8upjWmzRIGHHJEoJanAiAdX+2EEff26nP2IAo+gr7/u6xjsv4RW4RMSMMrj859N6AAAAABJRU5ErkJggg==;" vertex="1" parent="lhZgjykOQaQJ4iBzK1VJ-1">
          <mxGeometry x="1043" y="311" width="37" height="30" as="geometry" />
        </mxCell>
        <mxCell id="Y1L_1-RqDApfUDy9m5ml-8" value="" style="shape=image;verticalLabelPosition=bottom;labelBackgroundColor=default;verticalAlign=top;aspect=fixed;imageAspect=0;image=data:image/png,iVBORw0KGgoAAAANSUhEUgAAACMAAAAfCAYAAABtYXSPAAAAAXNSR0IArs4c6QAAAARnQU1BAACxjwv8YQUAAAAJcEhZcwAADsMAAA7DAcdvqGQAAAJrSURBVFhH7Zc9aBNhGMd/l0tqkqEYaGNileKQQFukxUzlHEqJg0a0GBeziB+QoeB0m2vd4lIsmNGlk0FcilDaLF4zFYdSO1QMxWBihQak2GAvnkPuSvJKPy5JYwZ/8C7P+3/v+fO8H8cjGYZh0CU4xMC/RLIqs7q5jZrW0NZL7Ou/RV3bcTkdKCMBUkmFSMgPlpnVzW3Gn2TY16umVGpYeDrUTofLKZObjRMJ+WvbpKY104jUISMc5NrXq6hpDawzo62XRGVHsfI7APOMdKoiItLBGe2q29RVZiTDMAzp2pwYP57zF7gz7MXdENQpffzM8teG4IkwFqebNTPG0muFSU+VivUaAMgy7r0C6t23PK8LnwRjcbrJbYoPckUuoMZe4rlVN2Iay3I/N+LigpNhqzKT92+SutqLu8fL0DnIf/lJpUEhE7zYC9/KFH/p5N+vEHtVaFAchu3K5HfKbOydYchdZj67Re7Tdz40jBIL2S2KPh++vTIbOz/ETxyJrcoAoCYwhotID7PijMkYS28Ugtocwylx7nBsV+Yvpm5TnL9OgjCZ+QcsTYkCe7RmRga3p4cgXs56ZJBFgT1aM9NmWjdThQpVqH9vmqQ1M5kV4jNZ5ljj8cw71IwosId9M7s6+Pp5MRUmEfUR6AuQiIYZ7/MyFA2TuBfkkgcqu+LC47F/tRkk9Uzh0eVe4b9koZNf20B9qrEgTh1BC/+m9tP6O9Nm/ps5DAdmD2O1Dp3HMPObZpSRgKjoKFZ+B0AqqeByymZ1OlWhWi6XUyaVVMAyEwn5yc3GmRgdME2dPi6nzMTowEE3SX2v3Q38ASYa4GW2TC4GAAAAAElFTkSuQmCC;" vertex="1" parent="lhZgjykOQaQJ4iBzK1VJ-1">
          <mxGeometry x="1084.5" y="310" width="35" height="31" as="geometry" />
        </mxCell>
        <mxCell id="Y1L_1-RqDApfUDy9m5ml-9" value="" style="shape=image;verticalLabelPosition=bottom;labelBackgroundColor=default;verticalAlign=top;aspect=fixed;imageAspect=0;image=data:image/png,iVBORw0KGgoAAAANSUhEUgAAACUAAAAeCAYAAACrI9dtAAAAAXNSR0IArs4c6QAAAARnQU1BAACxjwv8YQUAAAAJcEhZcwAADsMAAA7DAcdvqGQAAAHTSURBVFhH7Zg9S8NQFIbfNIkfCBUES1FEBHVQpJQuSpYOFgTdCg46iUqRgiAW/AGKFMwkdCjSSezmx2AnB6egS9262B9grWBFVJC2xiHx2F6QhpikBX2m8J5zOQ+HOyThVFVV0WJwtVLZfBGxpAIlV0C58lHfaQOi4II07oUckRAY8VBOUtl8EVPrxyhXql8larIPbR+iwONqP0xirq9yLKnoQpxDQqBZ5UoVsaRCKUkpuQKFzaB2Pklpd8ipDbFwdXeYpFqJvyPlnxzFwvQg/GzBIBZLubEZX8LNdgipjTncnIax08f2NMZCKTc242HIE+9I7x6ic/YcJ69eLK+Nso0NsUjqWyi1ncbi5TOAEu5e2D5jWCBVL7RyrWd784gOlJA5u2UPNOSXUj8LyWNvWpZlzzTmF1IGhK7ZM8YwKWWfEMxJ2SsEU1KrM9ixUQimpLoFdNzf2SYEM1IL3e1AVw+OtkLIHFgvBDNShcdXPLW54R/uxRAekLBYCLWvw1wowdYcR72IAmY25QT/UkYhKVFw0SeP86j6fA16ksa9FDaD2vkkJUckiAKvb8upjWmzRIGHHJEoJanAiAdX+2EEff26nP2IAo+gr7/u6xjsv4RW4RMSMMrj859N6AAAAABJRU5ErkJggg==;" vertex="1" parent="lhZgjykOQaQJ4iBzK1VJ-1">
          <mxGeometry x="1043" y="368" width="37" height="30" as="geometry" />
        </mxCell>
        <mxCell id="Y1L_1-RqDApfUDy9m5ml-10" value="" style="shape=image;verticalLabelPosition=bottom;labelBackgroundColor=default;verticalAlign=top;aspect=fixed;imageAspect=0;image=data:image/png,iVBORw0KGgoAAAANSUhEUgAAACMAAAAfCAYAAABtYXSPAAAAAXNSR0IArs4c6QAAAARnQU1BAACxjwv8YQUAAAAJcEhZcwAADsMAAA7DAcdvqGQAAAJrSURBVFhH7Zc9aBNhGMd/l0tqkqEYaGNileKQQFukxUzlHEqJg0a0GBeziB+QoeB0m2vd4lIsmNGlk0FcilDaLF4zFYdSO1QMxWBihQak2GAvnkPuSvJKPy5JYwZ/8C7P+3/v+fO8H8cjGYZh0CU4xMC/RLIqs7q5jZrW0NZL7Ou/RV3bcTkdKCMBUkmFSMgPlpnVzW3Gn2TY16umVGpYeDrUTofLKZObjRMJ+WvbpKY104jUISMc5NrXq6hpDawzo62XRGVHsfI7APOMdKoiItLBGe2q29RVZiTDMAzp2pwYP57zF7gz7MXdENQpffzM8teG4IkwFqebNTPG0muFSU+VivUaAMgy7r0C6t23PK8LnwRjcbrJbYoPckUuoMZe4rlVN2Iay3I/N+LigpNhqzKT92+SutqLu8fL0DnIf/lJpUEhE7zYC9/KFH/p5N+vEHtVaFAchu3K5HfKbOydYchdZj67Re7Tdz40jBIL2S2KPh++vTIbOz/ETxyJrcoAoCYwhotID7PijMkYS28Ugtocwylx7nBsV+Yvpm5TnL9OgjCZ+QcsTYkCe7RmRga3p4cgXs56ZJBFgT1aM9NmWjdThQpVqH9vmqQ1M5kV4jNZ5ljj8cw71IwosId9M7s6+Pp5MRUmEfUR6AuQiIYZ7/MyFA2TuBfkkgcqu+LC47F/tRkk9Uzh0eVe4b9koZNf20B9qrEgTh1BC/+m9tP6O9Nm/ps5DAdmD2O1Dp3HMPObZpSRgKjoKFZ+B0AqqeByymZ1OlWhWi6XUyaVVMAyEwn5yc3GmRgdME2dPi6nzMTowEE3SX2v3Q38ASYa4GW2TC4GAAAAAElFTkSuQmCC;" vertex="1" parent="lhZgjykOQaQJ4iBzK1VJ-1">
          <mxGeometry x="1084.5" y="367" width="35" height="31" as="geometry" />
        </mxCell>
      </root>
    </mxGraphModel>
  </diagram>
  <diagram id="dlvRakOautfYimBZ4bGI" name="Page-test">
    <mxGraphModel dx="1404" dy="772" grid="1" gridSize="10" guides="1" tooltips="1" connect="1" arrows="1" fold="1" page="1" pageScale="1" pageWidth="1200" pageHeight="780" math="0" shadow="0">
      <root>
        <mxCell id="0" />
        <mxCell id="1" parent="0" />
        <mxCell id="R6DZiBoto6auTa4n-BTL-111" value="" style="verticalLabelPosition=bottom;verticalAlign=top;html=1;shape=mxgraph.basic.rect;fillColor2=none;strokeWidth=1;size=20;indent=5;strokeColor=#000000;" parent="1" vertex="1">
          <mxGeometry x="40" y="120" width="1120" height="480" as="geometry" />
        </mxCell>
        <mxCell id="c1J8c0PQrqpHluZ_NbK6-3" value="" style="verticalLabelPosition=bottom;verticalAlign=top;html=1;shape=mxgraph.basic.rect;fillColor2=none;strokeWidth=1;size=5;indent=5;fillColor=#eeeeee;strokeColor=#808080;rectStyle=rounded;absoluteCornerSize=0;" parent="1" vertex="1">
          <mxGeometry x="80" y="160" width="1040" height="65" as="geometry" />
        </mxCell>
        <mxCell id="R6DZiBoto6auTa4n-BTL-121" value="Contributors" style="verticalLabelPosition=middle;verticalAlign=middle;html=1;shape=mxgraph.basic.rect;fillColor2=none;strokeWidth=1;size=20;indent=5;rectStyle=rounded;bottom=0;absoluteCornerSize=0;labelPosition=center;align=center;fillColor=#CCCCCC;fontSize=14;fontStyle=1" parent="1" vertex="1">
          <mxGeometry x="50.003035714285716" y="80" width="98.21428571428572" height="40" as="geometry" />
        </mxCell>
        <UserObject label="Manage affiliations" id="R6DZiBoto6auTa4n-BTL-123">
          <mxCell style="rounded=1;whiteSpace=wrap;html=1;fillColor=#004494;fontColor=#ffffff;strokeColor=#314354;glass=0;fontSize=14;" parent="1" vertex="1">
            <mxGeometry x="940" y="177.5" width="160" height="30" as="geometry" />
          </mxCell>
        </UserObject>
        <mxCell id="c1J8c0PQrqpHluZ_NbK6-4" value="&lt;font style=&quot;font-size: 14px;&quot;&gt;Type to add contributor&lt;/font&gt;" style="verticalLabelPosition=middle;verticalAlign=middle;html=1;shape=mxgraph.basic.rect;fillColor2=none;strokeWidth=1;size=10;indent=5;labelPosition=center;align=left;spacingLeft=50;fontSize=16;rectStyle=rounded;absoluteCornerSize=0;" parent="1" vertex="1">
          <mxGeometry x="100" y="177.5" width="290" height="30" as="geometry" />
        </mxCell>
        <mxCell id="QdiW5sS7ryFSE6JmtUNU-1" value="" style="shape=image;html=1;verticalAlign=top;verticalLabelPosition=bottom;labelBackgroundColor=#ffffff;imageAspect=0;aspect=fixed;image=https://cdn4.iconfinder.com/data/icons/evil-icons-user-interface/64/magnifier-128.png;imageBackground=default;" parent="1" vertex="1">
          <mxGeometry x="110" y="180.5" width="25" height="25" as="geometry" />
        </mxCell>
        <UserObject label="New affiliation" id="QdiW5sS7ryFSE6JmtUNU-4">
          <mxCell style="rounded=1;whiteSpace=wrap;html=1;fillColor=#004494;fontColor=#ffffff;strokeColor=#314354;glass=0;fontSize=14;" parent="1" vertex="1">
            <mxGeometry x="770" y="177.5" width="160" height="30" as="geometry" />
          </mxCell>
        </UserObject>
        <UserObject label="New external contributor" id="QdiW5sS7ryFSE6JmtUNU-5">
          <mxCell style="rounded=1;whiteSpace=wrap;html=1;fillColor=#004494;fontColor=#ffffff;strokeColor=#314354;glass=0;fontSize=14;" parent="1" vertex="1">
            <mxGeometry x="580" y="177.5" width="180" height="30" as="geometry" />
          </mxCell>
        </UserObject>
        <mxCell id="QdiW5sS7ryFSE6JmtUNU-7" value="" style="verticalLabelPosition=bottom;verticalAlign=top;html=1;shape=mxgraph.basic.rect;fillColor2=none;strokeWidth=1;size=5;indent=5;fillColor=#eeeeee;strokeColor=#808080;rectStyle=rounded;absoluteCornerSize=0;" parent="1" vertex="1">
          <mxGeometry x="80" y="470" width="1040" height="65" as="geometry" />
        </mxCell>
        <UserObject label="Order A-Z" id="QdiW5sS7ryFSE6JmtUNU-8">
          <mxCell style="rounded=1;whiteSpace=wrap;html=1;fillColor=#004494;fontColor=#ffffff;strokeColor=#314354;glass=0;fontSize=14;" parent="1" vertex="1">
            <mxGeometry x="940" y="487.5" width="160" height="30" as="geometry" />
          </mxCell>
        </UserObject>
        <mxCell id="DlGe7y0B-GQqvKxLDqWP-1" value="" style="line;strokeWidth=1;html=1;" parent="1" vertex="1">
          <mxGeometry x="80" y="280" width="1040" height="10" as="geometry" />
        </mxCell>
        <mxCell id="DlGe7y0B-GQqvKxLDqWP-2" value="Order" style="text;html=1;align=left;verticalAlign=middle;resizable=0;points=[];autosize=1;strokeColor=none;fillColor=none;fontStyle=1" parent="1" vertex="1">
          <mxGeometry x="80" y="240" width="50" height="30" as="geometry" />
        </mxCell>
        <mxCell id="DlGe7y0B-GQqvKxLDqWP-3" value="Name" style="text;html=1;align=left;verticalAlign=middle;resizable=0;points=[];autosize=1;strokeColor=none;fillColor=none;fontStyle=1" parent="1" vertex="1">
          <mxGeometry x="130" y="240" width="60" height="30" as="geometry" />
        </mxCell>
        <mxCell id="DlGe7y0B-GQqvKxLDqWP-4" value="Contract&lt;div&gt;years&lt;/div&gt;" style="text;html=1;align=left;verticalAlign=middle;resizable=0;points=[];autosize=1;strokeColor=none;fillColor=none;fontStyle=1" parent="1" vertex="1">
          <mxGeometry x="290" y="235" width="70" height="40" as="geometry" />
        </mxCell>
        <mxCell id="DlGe7y0B-GQqvKxLDqWP-6" value="" style="line;strokeWidth=1;html=1;strokeColor=#CCCCCC;" parent="1" vertex="1">
          <mxGeometry x="80" y="340" width="1040" height="10" as="geometry" />
        </mxCell>
        <mxCell id="DlGe7y0B-GQqvKxLDqWP-8" value="" style="line;strokeWidth=1;html=1;strokeColor=#CCCCCC;" parent="1" vertex="1">
          <mxGeometry x="80" y="400" width="1040" height="10" as="geometry" />
        </mxCell>
        <mxCell id="DlGe7y0B-GQqvKxLDqWP-9" value="Contributor&lt;div&gt;type&lt;/div&gt;" style="text;html=1;align=left;verticalAlign=middle;resizable=0;points=[];autosize=1;strokeColor=none;fillColor=none;fontStyle=1" parent="1" vertex="1">
          <mxGeometry x="380" y="235" width="80" height="40" as="geometry" />
        </mxCell>
        <mxCell id="DlGe7y0B-GQqvKxLDqWP-10" value="Entity / Affiliation" style="text;html=1;align=left;verticalAlign=middle;resizable=0;points=[];autosize=1;strokeColor=none;fillColor=none;fontStyle=1" parent="1" vertex="1">
          <mxGeometry x="490" y="240" width="110" height="30" as="geometry" />
        </mxCell>
        <mxCell id="DlGe7y0B-GQqvKxLDqWP-11" value="Role" style="text;html=1;align=left;verticalAlign=middle;resizable=0;points=[];autosize=1;strokeColor=none;fillColor=none;fontStyle=1" parent="1" vertex="1">
          <mxGeometry x="750" y="240" width="50" height="30" as="geometry" />
        </mxCell>
        <mxCell id="DlGe7y0B-GQqvKxLDqWP-12" value="ORCID" style="text;html=1;align=left;verticalAlign=middle;resizable=0;points=[];autosize=1;strokeColor=none;fillColor=none;fontStyle=1" parent="1" vertex="1">
          <mxGeometry x="850" y="240" width="60" height="30" as="geometry" />
        </mxCell>
        <mxCell id="DlGe7y0B-GQqvKxLDqWP-13" value="Corresp." style="text;html=1;align=left;verticalAlign=middle;resizable=0;points=[];autosize=1;strokeColor=none;fillColor=none;fontStyle=1" parent="1" vertex="1">
          <mxGeometry x="991" y="240" width="70" height="30" as="geometry" />
        </mxCell>
        <mxCell id="DlGe7y0B-GQqvKxLDqWP-14" value="Delete" style="text;html=1;align=left;verticalAlign=middle;resizable=0;points=[];autosize=1;strokeColor=none;fillColor=none;" parent="1" vertex="1">
          <mxGeometry x="1069.5" y="240" width="60" height="30" as="geometry" />
        </mxCell>
        <mxCell id="DlGe7y0B-GQqvKxLDqWP-17" value="" style="shape=image;verticalLabelPosition=bottom;labelBackgroundColor=default;verticalAlign=top;aspect=fixed;imageAspect=0;image=data:image/png,iVBORw0KGgoAAAANSUhEUgAAACcAAAAnCAYAAACMo1E1AAAAAXNSR0IArs4c6QAAAARnQU1BAACxjwv8YQUAAAAJcEhZcwAADsMAAA7DAcdvqGQAAAQfSURBVFhH7ZhdTBxlFIafYdhll92yUCQKBaXbxFoSIlYihGIaU9CkCWnDXwxCGogXJWhjqBd60YhBIxeVkAjRC8Q0UGKQekNSo2yaIGLBaIshoUJipTRCDa1QurDLsuN406473/4NuNS98Lmb857J92a+M+c7M5KqqioxSpwYiCX+N7ddpO3W3OjUAt9cucnwjzf5dXGVFacbr6ISL0skW03sS0+iND+LFw9m8Xxuhni7LrZkTlVV2i/8TPvgVdbcCk6XB+Wv0LfLcRJWsxGLSaa58hmaK55GkiQxLSS6zfU5Znjj4+/weBXuuTZB1133kWCX2YAxXqajsZjakv1iRlB0matrczA0PsfdtQ1R2jI2SwJlhdn0vlUiSgGENef2KBxu/pLp+WWcrk1R3jZWs4Gcx1MYaS/HZJRF2UdYcwWvfcHk9Tt4NhVR+tcYDTJ59lQmOqtEyUfIVlLX5mB6fnlHjAF4NhWm55epa3OIko+g5vocMwyNz0V1K4PhdG0yND5Hn2NGlCDYtqqqSlplD3dW3f7h0GRkUp6TiEkT9HJr+jqXFjTBkKQmmVgabAhoMwHmPhyc5N3eH7i3Hvmp7a0+xvcNmTwWrKaVDS4PDFDUsyoqAexKNPBO3XOcrszTxAPM7Xn5Mxb+XNfVx7p7mnjFNUlR0xhXNUoaZ7sqOG27wZHar7ik0YIgQcbuRH7/vF4T1tTc6NQCa25Fl7EHuNfXBGMASyyue8Fk5IAoBUOFNbfC6JS2DjRP7sy5CT7o/ynskVTTUs/5Q4liOCK3xoZJb5kVwz7kOIm3a56l9USBL6YxV/j6IBO//OETg/LkE9QczqerOoVrA9/S+ZuY4MfeXF/eeyOzXAztDYCCpx5l/KNK37XGXFplD7fvunxiSCqOsXwyjSufdHPkgij6oTfvPo/YzCwNNviuNTW34tTZPgRqWupxdR0C4GzXSRbfzxVTdCGurzHnVULXWjjSLTImsxGAZLMc9rwMh7i+xly8rH/W2gnE9TXmkq3aPv+wEdfXmNuXnuR/qZvF1Q1WnB4AVpwbLK+uiym6ENfXmCvNz0KO2/rW9rf2knJqDIA3T3Vjb43QM4Igx0mU5mdpYppWMjq1QNmZi5En3owXmD6Xg2lylsu3RfEfTHsyKT+wwacn+nk1whBgsyQw1HpU8zG07bP1aFM151/aLUwjIl6ufT3Mwa4boqAlxNkaYG4rU0m00D2VbHmeiwKh5rmASViSJDoai7FZEkRpR7BZEuhoLA4wRjBzALUl+ykrzMZqNohSVLGaDZQVZof8jg3YVn9i9usLYKS9nDx7atSfoNVsIM+eykh7uShpCGvOZJSZ6KzieJE9ajVosyRwvMjORGdVxAEh7Lb6E7P/Sh6gxupfJpGY+z/3sAn7QvzX/A2p9N65s/5+gQAAAABJRU5ErkJggg==;" parent="1" vertex="1">
          <mxGeometry x="1069.5" y="295.5" width="39" height="39" as="geometry" />
        </mxCell>
        <mxCell id="DlGe7y0B-GQqvKxLDqWP-18" value="" style="shape=image;verticalLabelPosition=bottom;labelBackgroundColor=default;verticalAlign=top;aspect=fixed;imageAspect=0;image=data:image/png,iVBORw0KGgoAAAANSUhEUgAAACcAAAAnCAYAAACMo1E1AAAAAXNSR0IArs4c6QAAAARnQU1BAACxjwv8YQUAAAAJcEhZcwAADsMAAA7DAcdvqGQAAAQfSURBVFhH7ZhdTBxlFIafYdhll92yUCQKBaXbxFoSIlYihGIaU9CkCWnDXwxCGogXJWhjqBd60YhBIxeVkAjRC8Q0UGKQekNSo2yaIGLBaIshoUJipTRCDa1QurDLsuN406473/4NuNS98Lmb857J92a+M+c7M5KqqioxSpwYiCX+N7ddpO3W3OjUAt9cucnwjzf5dXGVFacbr6ISL0skW03sS0+iND+LFw9m8Xxuhni7LrZkTlVV2i/8TPvgVdbcCk6XB+Wv0LfLcRJWsxGLSaa58hmaK55GkiQxLSS6zfU5Znjj4+/weBXuuTZB1133kWCX2YAxXqajsZjakv1iRlB0matrczA0PsfdtQ1R2jI2SwJlhdn0vlUiSgGENef2KBxu/pLp+WWcrk1R3jZWs4Gcx1MYaS/HZJRF2UdYcwWvfcHk9Tt4NhVR+tcYDTJ59lQmOqtEyUfIVlLX5mB6fnlHjAF4NhWm55epa3OIko+g5vocMwyNz0V1K4PhdG0yND5Hn2NGlCDYtqqqSlplD3dW3f7h0GRkUp6TiEkT9HJr+jqXFjTBkKQmmVgabAhoMwHmPhyc5N3eH7i3Hvmp7a0+xvcNmTwWrKaVDS4PDFDUsyoqAexKNPBO3XOcrszTxAPM7Xn5Mxb+XNfVx7p7mnjFNUlR0xhXNUoaZ7sqOG27wZHar7ik0YIgQcbuRH7/vF4T1tTc6NQCa25Fl7EHuNfXBGMASyyue8Fk5IAoBUOFNbfC6JS2DjRP7sy5CT7o/ynskVTTUs/5Q4liOCK3xoZJb5kVwz7kOIm3a56l9USBL6YxV/j6IBO//OETg/LkE9QczqerOoVrA9/S+ZuY4MfeXF/eeyOzXAztDYCCpx5l/KNK37XGXFplD7fvunxiSCqOsXwyjSufdHPkgij6oTfvPo/YzCwNNviuNTW34tTZPgRqWupxdR0C4GzXSRbfzxVTdCGurzHnVULXWjjSLTImsxGAZLMc9rwMh7i+xly8rH/W2gnE9TXmkq3aPv+wEdfXmNuXnuR/qZvF1Q1WnB4AVpwbLK+uiym6ENfXmCvNz0KO2/rW9rf2knJqDIA3T3Vjb43QM4Igx0mU5mdpYppWMjq1QNmZi5En3owXmD6Xg2lylsu3RfEfTHsyKT+wwacn+nk1whBgsyQw1HpU8zG07bP1aFM151/aLUwjIl6ufT3Mwa4boqAlxNkaYG4rU0m00D2VbHmeiwKh5rmASViSJDoai7FZEkRpR7BZEuhoLA4wRjBzALUl+ykrzMZqNohSVLGaDZQVZof8jg3YVn9i9usLYKS9nDx7atSfoNVsIM+eykh7uShpCGvOZJSZ6KzieJE9ajVosyRwvMjORGdVxAEh7Lb6E7P/Sh6gxupfJpGY+z/3sAn7QvzX/A2p9N65s/5+gQAAAABJRU5ErkJggg==;" parent="1" vertex="1">
          <mxGeometry x="1070.5" y="355.5" width="39" height="39" as="geometry" />
        </mxCell>
        <mxCell id="DlGe7y0B-GQqvKxLDqWP-19" value="" style="shape=image;verticalLabelPosition=bottom;labelBackgroundColor=default;verticalAlign=top;aspect=fixed;imageAspect=0;image=data:image/png,iVBORw0KGgoAAAANSUhEUgAAACcAAAAnCAYAAACMo1E1AAAAAXNSR0IArs4c6QAAAARnQU1BAACxjwv8YQUAAAAJcEhZcwAADsMAAA7DAcdvqGQAAAQfSURBVFhH7ZhdTBxlFIafYdhll92yUCQKBaXbxFoSIlYihGIaU9CkCWnDXwxCGogXJWhjqBd60YhBIxeVkAjRC8Q0UGKQekNSo2yaIGLBaIshoUJipTRCDa1QurDLsuN406473/4NuNS98Lmb857J92a+M+c7M5KqqioxSpwYiCX+N7ddpO3W3OjUAt9cucnwjzf5dXGVFacbr6ISL0skW03sS0+iND+LFw9m8Xxuhni7LrZkTlVV2i/8TPvgVdbcCk6XB+Wv0LfLcRJWsxGLSaa58hmaK55GkiQxLSS6zfU5Znjj4+/weBXuuTZB1133kWCX2YAxXqajsZjakv1iRlB0matrczA0PsfdtQ1R2jI2SwJlhdn0vlUiSgGENef2KBxu/pLp+WWcrk1R3jZWs4Gcx1MYaS/HZJRF2UdYcwWvfcHk9Tt4NhVR+tcYDTJ59lQmOqtEyUfIVlLX5mB6fnlHjAF4NhWm55epa3OIko+g5vocMwyNz0V1K4PhdG0yND5Hn2NGlCDYtqqqSlplD3dW3f7h0GRkUp6TiEkT9HJr+jqXFjTBkKQmmVgabAhoMwHmPhyc5N3eH7i3Hvmp7a0+xvcNmTwWrKaVDS4PDFDUsyoqAexKNPBO3XOcrszTxAPM7Xn5Mxb+XNfVx7p7mnjFNUlR0xhXNUoaZ7sqOG27wZHar7ik0YIgQcbuRH7/vF4T1tTc6NQCa25Fl7EHuNfXBGMASyyue8Fk5IAoBUOFNbfC6JS2DjRP7sy5CT7o/ynskVTTUs/5Q4liOCK3xoZJb5kVwz7kOIm3a56l9USBL6YxV/j6IBO//OETg/LkE9QczqerOoVrA9/S+ZuY4MfeXF/eeyOzXAztDYCCpx5l/KNK37XGXFplD7fvunxiSCqOsXwyjSufdHPkgij6oTfvPo/YzCwNNviuNTW34tTZPgRqWupxdR0C4GzXSRbfzxVTdCGurzHnVULXWjjSLTImsxGAZLMc9rwMh7i+xly8rH/W2gnE9TXmkq3aPv+wEdfXmNuXnuR/qZvF1Q1WnB4AVpwbLK+uiym6ENfXmCvNz0KO2/rW9rf2knJqDIA3T3Vjb43QM4Igx0mU5mdpYppWMjq1QNmZi5En3owXmD6Xg2lylsu3RfEfTHsyKT+wwacn+nk1whBgsyQw1HpU8zG07bP1aFM151/aLUwjIl6ufT3Mwa4boqAlxNkaYG4rU0m00D2VbHmeiwKh5rmASViSJDoai7FZEkRpR7BZEuhoLA4wRjBzALUl+ykrzMZqNohSVLGaDZQVZof8jg3YVn9i9usLYKS9nDx7atSfoNVsIM+eykh7uShpCGvOZJSZ6KzieJE9ajVosyRwvMjORGdVxAEh7Lb6E7P/Sh6gxupfJpGY+z/3sAn7QvzX/A2p9N65s/5+gQAAAABJRU5ErkJggg==;" parent="1" vertex="1">
          <mxGeometry x="1069.5" y="415" width="39" height="39" as="geometry" />
        </mxCell>
        <mxCell id="DlGe7y0B-GQqvKxLDqWP-20" value="" style="line;strokeWidth=1;html=1;strokeColor=#CCCCCC;" parent="1" vertex="1">
          <mxGeometry x="10" y="40" width="1180" height="10" as="geometry" />
        </mxCell>
        <mxCell id="DlGe7y0B-GQqvKxLDqWP-21" value="" style="line;strokeWidth=1;html=1;strokeColor=#CCCCCC;" parent="1" vertex="1">
          <mxGeometry x="10" y="710" width="1180" height="10" as="geometry" />
        </mxCell>
        <mxCell id="UWMbEhbp4-jFO4lP8396-1" value="1" style="text;html=1;align=center;verticalAlign=middle;resizable=0;points=[];autosize=1;strokeColor=none;fillColor=none;" parent="1" vertex="1">
          <mxGeometry x="80" y="300" width="30" height="30" as="geometry" />
        </mxCell>
        <mxCell id="UWMbEhbp4-jFO4lP8396-2" value="2" style="text;html=1;align=center;verticalAlign=middle;resizable=0;points=[];autosize=1;strokeColor=none;fillColor=none;" parent="1" vertex="1">
          <mxGeometry x="80" y="360" width="30" height="30" as="geometry" />
        </mxCell>
        <mxCell id="UWMbEhbp4-jFO4lP8396-3" value="3" style="text;html=1;align=center;verticalAlign=middle;resizable=0;points=[];autosize=1;strokeColor=none;fillColor=none;" parent="1" vertex="1">
          <mxGeometry x="80" y="420" width="30" height="30" as="geometry" />
        </mxCell>
        <mxCell id="UWMbEhbp4-jFO4lP8396-4" value="CONTRIBUTOR Name1" style="text;html=1;align=left;verticalAlign=middle;resizable=0;points=[];autosize=1;strokeColor=none;fillColor=none;" parent="1" vertex="1">
          <mxGeometry x="130" y="299.5" width="150" height="30" as="geometry" />
        </mxCell>
        <mxCell id="UWMbEhbp4-jFO4lP8396-5" value="CONTRIBUTOR Name2" style="text;html=1;align=left;verticalAlign=middle;resizable=0;points=[];autosize=1;strokeColor=none;fillColor=none;" parent="1" vertex="1">
          <mxGeometry x="130" y="358.5" width="150" height="30" as="geometry" />
        </mxCell>
        <mxCell id="UWMbEhbp4-jFO4lP8396-6" value="CONTRIBUTOR Name3" style="text;html=1;align=left;verticalAlign=middle;resizable=0;points=[];autosize=1;strokeColor=none;fillColor=none;" parent="1" vertex="1">
          <mxGeometry x="130" y="420" width="150" height="30" as="geometry" />
        </mxCell>
        <mxCell id="UWMbEhbp4-jFO4lP8396-7" value="2020-2025" style="text;html=1;align=left;verticalAlign=middle;resizable=0;points=[];autosize=1;strokeColor=none;fillColor=none;" parent="1" vertex="1">
          <mxGeometry x="290" y="299.5" width="80" height="30" as="geometry" />
        </mxCell>
        <mxCell id="UWMbEhbp4-jFO4lP8396-8" value="2022-2025" style="text;html=1;align=left;verticalAlign=middle;resizable=0;points=[];autosize=1;strokeColor=none;fillColor=none;" parent="1" vertex="1">
          <mxGeometry x="290" y="363" width="80" height="30" as="geometry" />
        </mxCell>
        <mxCell id="UWMbEhbp4-jFO4lP8396-9" value="-" style="text;html=1;align=left;verticalAlign=middle;resizable=0;points=[];autosize=1;strokeColor=none;fillColor=none;" parent="1" vertex="1">
          <mxGeometry x="315" y="420" width="30" height="30" as="geometry" />
        </mxCell>
        <mxCell id="UWMbEhbp4-jFO4lP8396-10" value="Internal&lt;div&gt;contributor&lt;/div&gt;" style="text;html=1;align=left;verticalAlign=middle;resizable=0;points=[];autosize=1;strokeColor=none;fillColor=none;" parent="1" vertex="1">
          <mxGeometry x="380" y="294" width="80" height="40" as="geometry" />
        </mxCell>
        <mxCell id="UWMbEhbp4-jFO4lP8396-11" value="External&lt;div&gt;contributor (JRC)&lt;/div&gt;" style="text;html=1;align=left;verticalAlign=middle;resizable=0;points=[];autosize=1;strokeColor=none;fillColor=none;" parent="1" vertex="1">
          <mxGeometry x="380" y="353.5" width="110" height="40" as="geometry" />
        </mxCell>
        <mxCell id="UWMbEhbp4-jFO4lP8396-12" value="External&lt;div&gt;contributor&lt;/div&gt;" style="text;html=1;align=left;verticalAlign=middle;resizable=0;points=[];autosize=1;strokeColor=none;fillColor=none;" parent="1" vertex="1">
          <mxGeometry x="380" y="415" width="80" height="40" as="geometry" />
        </mxCell>
        <mxCell id="UWMbEhbp4-jFO4lP8396-13" value="JRC.B.5" style="text;html=1;align=left;verticalAlign=middle;resizable=0;points=[];autosize=1;strokeColor=none;fillColor=none;" parent="1" vertex="1">
          <mxGeometry x="490" y="300" width="70" height="30" as="geometry" />
        </mxCell>
        <mxCell id="UWMbEhbp4-jFO4lP8396-17" value="Author" style="html=1;shadow=0;dashed=0;shape=mxgraph.bootstrap.rrect;rSize=5;strokeColor=#505050;strokeWidth=1;fillColor=#ffffff;fontColor=#777777;whiteSpace=wrap;align=left;verticalAlign=middle;fontStyle=0;fontSize=12;spacing=15;" parent="1" vertex="1">
          <mxGeometry x="750" y="360" width="90" height="30" as="geometry" />
        </mxCell>
        <mxCell id="UWMbEhbp4-jFO4lP8396-18" value="" style="shape=triangle;direction=south;fillColor=#495057;strokeColor=none;perimeter=none;" parent="UWMbEhbp4-jFO4lP8396-17" vertex="1">
          <mxGeometry x="1" y="0.5" width="10" height="5" relative="1" as="geometry">
            <mxPoint x="-17" y="-2.5" as="offset" />
          </mxGeometry>
        </mxCell>
        <mxCell id="9gmffEgTV6Ri0BgAmOJX-1" value="&lt;font style=&quot;font-size: 12px;&quot;&gt;Type to search&lt;/font&gt;" style="verticalLabelPosition=middle;verticalAlign=middle;html=1;shape=mxgraph.basic.rect;fillColor2=none;strokeWidth=1;size=10;indent=5;labelPosition=center;align=left;spacingLeft=40;fontSize=16;rectStyle=rounded;absoluteCornerSize=0;strokeColor=#4D4D4D;" parent="1" vertex="1">
          <mxGeometry x="490" y="415" width="240" height="30" as="geometry" />
        </mxCell>
        <mxCell id="9gmffEgTV6Ri0BgAmOJX-3" value="Author" style="html=1;shadow=0;dashed=0;shape=mxgraph.bootstrap.rrect;rSize=5;strokeColor=#505050;strokeWidth=1;fillColor=#ffffff;fontColor=#777777;whiteSpace=wrap;align=left;verticalAlign=middle;fontStyle=0;fontSize=12;spacing=15;" parent="1" vertex="1">
          <mxGeometry x="750" y="412.5" width="90" height="30" as="geometry" />
        </mxCell>
        <mxCell id="9gmffEgTV6Ri0BgAmOJX-4" value="" style="shape=triangle;direction=south;fillColor=#495057;strokeColor=none;perimeter=none;" parent="9gmffEgTV6Ri0BgAmOJX-3" vertex="1">
          <mxGeometry x="1" y="0.5" width="10" height="5" relative="1" as="geometry">
            <mxPoint x="-17" y="-2.5" as="offset" />
          </mxGeometry>
        </mxCell>
        <mxCell id="9gmffEgTV6Ri0BgAmOJX-5" value="Author" style="html=1;shadow=0;dashed=0;shape=mxgraph.bootstrap.rrect;rSize=5;strokeColor=#505050;strokeWidth=1;fillColor=#ffffff;fontColor=#777777;whiteSpace=wrap;align=left;verticalAlign=middle;fontStyle=0;fontSize=12;spacing=15;" parent="1" vertex="1">
          <mxGeometry x="750" y="300" width="90" height="30" as="geometry" />
        </mxCell>
        <mxCell id="9gmffEgTV6Ri0BgAmOJX-6" value="" style="shape=triangle;direction=south;fillColor=#495057;strokeColor=none;perimeter=none;" parent="9gmffEgTV6Ri0BgAmOJX-5" vertex="1">
          <mxGeometry x="1" y="0.5" width="10" height="5" relative="1" as="geometry">
            <mxPoint x="-17" y="-2.5" as="offset" />
          </mxGeometry>
        </mxCell>
        <mxCell id="9gmffEgTV6Ri0BgAmOJX-7" value="" style="shape=image;verticalLabelPosition=bottom;labelBackgroundColor=default;verticalAlign=top;aspect=fixed;imageAspect=0;image=data:image/png,iVBORw0KGgoAAAANSUhEUgAAADAAAAAfCAYAAACh+E5kAAAAAXNSR0IArs4c6QAAAARnQU1BAACxjwv8YQUAAAAJcEhZcwAADsMAAA7DAcdvqGQAAAFwSURBVFhH7ZjBToNAEIb/2UstSGtTmmIiSZvIxYvv/xhevNSkTWpiSdtgi0B72fWkdra6kYABDN9tZ8hkvl12s0BKKYUGI/RA02gFqob0PZBmB4SbCPs4gazJ9hBE6Dk2xu4AVveC5ZhAmh0wmz/XpnEdQYRgesMk2CsUbqLaNg8AUimEm4jF2Ao8PD6dCVjdDrzREI5tQQhiuZ+QUiFOUqzWW6TZUU8XQhDh/u72a3ya/K75YOKj79i/bh4AhCD0HRvBxIfV7ejpQug9Gk8hbzTM1biOEARvNNTDpWIUcGxLD+WmjBomjAJFZv+DMmqYMAo0gVagalqBqmkFqqYVqBqjgJTFr9Zl1DBhFIiTVA/lpowaJowCq/W20AxKqbBab/VwqTABQfzilWZHzBZL7OIkl4iUCrs4wWyx/JMPmlPYF9l8+YLX/Rt7oG5c9S4x9a8/x2wFxu7gzLBOCCKM3QGL/a/fKk3EeAo1gcYLvANJtZccxAMHPQAAAABJRU5ErkJggg==;" parent="1" vertex="1">
          <mxGeometry x="996" y="299.5" width="48" height="31" as="geometry" />
        </mxCell>
        <mxCell id="9gmffEgTV6Ri0BgAmOJX-8" value="" style="shape=image;verticalLabelPosition=bottom;labelBackgroundColor=default;verticalAlign=top;aspect=fixed;imageAspect=0;image=data:image/png,iVBORw0KGgoAAAANSUhEUgAAADAAAAAfCAYAAACh+E5kAAAAAXNSR0IArs4c6QAAAARnQU1BAACxjwv8YQUAAAAJcEhZcwAADsMAAA7DAcdvqGQAAAFwSURBVFhH7ZjBToNAEIb/2UstSGtTmmIiSZvIxYvv/xhevNSkTWpiSdtgi0B72fWkdra6kYABDN9tZ8hkvl12s0BKKYUGI/RA02gFqob0PZBmB4SbCPs4gazJ9hBE6Dk2xu4AVveC5ZhAmh0wmz/XpnEdQYRgesMk2CsUbqLaNg8AUimEm4jF2Ao8PD6dCVjdDrzREI5tQQhiuZ+QUiFOUqzWW6TZUU8XQhDh/u72a3ya/K75YOKj79i/bh4AhCD0HRvBxIfV7ejpQug9Gk8hbzTM1biOEARvNNTDpWIUcGxLD+WmjBomjAJFZv+DMmqYMAo0gVagalqBqmkFqqYVqBqjgJTFr9Zl1DBhFIiTVA/lpowaJowCq/W20AxKqbBab/VwqTABQfzilWZHzBZL7OIkl4iUCrs4wWyx/JMPmlPYF9l8+YLX/Rt7oG5c9S4x9a8/x2wFxu7gzLBOCCKM3QGL/a/fKk3EeAo1gcYLvANJtZccxAMHPQAAAABJRU5ErkJggg==;" parent="1" vertex="1">
          <mxGeometry x="996" y="359.5" width="48" height="31" as="geometry" />
        </mxCell>
        <mxCell id="9gmffEgTV6Ri0BgAmOJX-9" value="" style="shape=image;verticalLabelPosition=bottom;labelBackgroundColor=default;verticalAlign=top;aspect=fixed;imageAspect=0;image=data:image/png,iVBORw0KGgoAAAANSUhEUgAAADAAAAAfCAYAAACh+E5kAAAAAXNSR0IArs4c6QAAAARnQU1BAACxjwv8YQUAAAAJcEhZcwAADsMAAA7DAcdvqGQAAAFwSURBVFhH7ZjBToNAEIb/2UstSGtTmmIiSZvIxYvv/xhevNSkTWpiSdtgi0B72fWkdra6kYABDN9tZ8hkvl12s0BKKYUGI/RA02gFqob0PZBmB4SbCPs4gazJ9hBE6Dk2xu4AVveC5ZhAmh0wmz/XpnEdQYRgesMk2CsUbqLaNg8AUimEm4jF2Ao8PD6dCVjdDrzREI5tQQhiuZ+QUiFOUqzWW6TZUU8XQhDh/u72a3ya/K75YOKj79i/bh4AhCD0HRvBxIfV7ejpQug9Gk8hbzTM1biOEARvNNTDpWIUcGxLD+WmjBomjAJFZv+DMmqYMAo0gVagalqBqmkFqqYVqBqjgJTFr9Zl1DBhFIiTVA/lpowaJowCq/W20AxKqbBab/VwqTABQfzilWZHzBZL7OIkl4iUCrs4wWyx/JMPmlPYF9l8+YLX/Rt7oG5c9S4x9a8/x2wFxu7gzLBOCCKM3QGL/a/fKk3EeAo1gcYLvANJtZccxAMHPQAAAABJRU5ErkJggg==;" parent="1" vertex="1">
          <mxGeometry x="996" y="419" width="48" height="31" as="geometry" />
        </mxCell>
        <mxCell id="9gmffEgTV6Ri0BgAmOJX-10" value="0000-0002-1230-&lt;span style=&quot;background-color: transparent; color: light-dark(rgb(0, 0, 0), rgb(255, 255, 255));&quot;&gt;6483&lt;/span&gt;" style="text;html=1;align=left;verticalAlign=middle;resizable=0;points=[];autosize=1;strokeColor=none;fillColor=none;" parent="1" vertex="1">
          <mxGeometry x="851" y="363" width="140" height="30" as="geometry" />
        </mxCell>
        <UserObject label="Cancel" link="data:page/id,_ocSnHtVCJIY9oDPfzE5" id="9gmffEgTV6Ri0BgAmOJX-11">
          <mxCell style="rounded=1;whiteSpace=wrap;html=1;fillColor=#004494;fontColor=#ffffff;strokeColor=#004494;glass=0;fontSize=14;" parent="1" vertex="1">
            <mxGeometry x="1040" y="730" width="120" height="30" as="geometry" />
          </mxCell>
        </UserObject>
        <UserObject label="Save" id="9gmffEgTV6Ri0BgAmOJX-12">
          <mxCell style="rounded=1;whiteSpace=wrap;html=1;fillColor=#93B0D1;fontColor=#ffffff;strokeColor=#93B0D1;glass=0;fontSize=14;" parent="1" vertex="1">
            <mxGeometry x="910" y="730" width="120" height="30" as="geometry" />
          </mxCell>
        </UserObject>
        <mxCell id="9gmffEgTV6Ri0BgAmOJX-13" value="" style="shape=image;verticalLabelPosition=bottom;labelBackgroundColor=default;verticalAlign=top;aspect=fixed;imageAspect=0;image=data:image/png,iVBORw0KGgoAAAANSUhEUgAAAB8AAAAdCAYAAABSZrcyAAAAAXNSR0IArs4c6QAAAARnQU1BAACxjwv8YQUAAAAJcEhZcwAADsMAAA7DAcdvqGQAAAE7SURBVEhL7ZXBSsNAFEVvpf0cRVEoNNAsggQMSDZ+oRulKEEdIZSBpppgKtEquBURUdTaFux+XEWS10EngxqEnN3cO+E8XgipCSEESmKBBn9JJS+FSl4K/0M+nkwxuLii8RynZ+d4fhnRWIqy/PbuHts7e+j2Tmj1yZHPsbt/iIfHJ1pJUZavrSyh3Wri4LgLHoS0hsd8+DyAZRpYXV6ktRRlOQBsuQ7arSY85ucGSM+WacB17NwzX1HT+bF0PIZ+FMN1bLzPZlpi6MqRGQCAlhhF156l0ajTqDBa8o7HwIMQrmPDMg3wIITHfHrtWwrLs+87XbfuAIXkVJyiO4CyPE6G6EcxNjfWc+IU17FhWyZ4EOLy+obWcoQir6M3MUiGNJ4jihMxnkxpLEX7U/sJlNf+G1TyUqjkpfABAa76cGyM9uYAAAAASUVORK5CYII=;" parent="1" vertex="1">
          <mxGeometry x="1129.5" y="10" width="31" height="29" as="geometry" />
        </mxCell>
        <mxCell id="9gmffEgTV6Ri0BgAmOJX-14" value="" style="shape=image;verticalLabelPosition=bottom;labelBackgroundColor=default;verticalAlign=top;aspect=fixed;imageAspect=0;image=data:image/png,iVBORw0KGgoAAAANSUhEUgAAAlYAAAApCAYAAAD3TmciAAAAAXNSR0IArs4c6QAAAARnQU1BAACxjwv8YQUAAAAJcEhZcwAADsMAAA7DAcdvqGQAAA69SURBVHhe7Z1PaBzXHce/KTkkkIIDKdhgoWoVyx3ZPaQ3X2SxRv6TrP7EIqV18MGuDkoCllqze1BpDqXVYWWDZXAQeCtBi9OSICPJm8ax8FoSIZf20IOltZWsbGUFMfQQHQIutDA9zMzOe7+dnT+7I1l2vh9Ykpn3Zt57v/d7v/d7v/dGfs40TROEEEIIIaRhfiBvEEIIIYSQ+qBjRQghhBASE3SsCCGEEEJigo4VIYQQQkhM0LEihBBCCIkJOlaEEEIIITFBx4oQQgghJCboWBFCCCGExAQdK0IIIYSQmKBjRQghhBASE3SsCCGEEEJigo4VIYQQQkhMbK1j9R95gxBCCCHk2SV+x+peAfjNEeDF54AXXwY+pXdFCAnB5iPgkf3bpN0ghDydxONYqc6UcQT49IEdrdoENmVmQggRjP0MeHkPsMf+vdwO3KHxIIQ8fdTvWEln6l8twPUV4JtPgM0HwI9bALwOdL8gnySEEJdHfwIyReD6t4BpWr/sLiCZBO7JzIQQsrOJ5ljdKwDvv1HtTD02gUIOOPQAeO0N4NA14JcA3nwbeEm+RLKBXG87Em3tSLRl8HGuH4neKZRlNg8WMu1IZJbkbZslDLe1Y7gg7yMgbQezPoXutn7k1mWCF5Zct6eN21mWTjmCvgSj6kVQm5YwrPZFpL55lgiSUwi+2wTQAvx0l3svXQBOPwAO9QMfX9d/d4rAd+oLalPO9du2pR3Df4vQRwH96Wd74tXJ7cOvTZJyrj903oYpZHaUPMPKKXYZCTnsJD0Lqosqs6C8YZHyDdsv20F4x2rqiOVMfb5Hd6ZOGMALADb/Dhi2U/XRa8BfHwBvnZRvqWZ9HrPFFCZXV7C2msVbA9NYmz2DJpkvVjpwaXUFl5LyPvl+Q73YOewCJr8AXr0O/Lxf/yXbgR8mgM+DzmFt4LMbRfRMrGBtdQWXfnEGN1anMdAs88VL07bYMPKk6MyuYC3bIW+TkGzV+NhJ/RLesdrdYv13125gX4vlTDloTtUp4N414OHJ4G3AQgaJrjEsI4+zbe3ozm1Ue7OFTGXFmQiIMqmr00QmL5MVRMRqfQrdShnduQ2R38GOUhSU/L1TKNvvs54Xq1xR/0RbBgt2kuVxTykRu+qyFzJK2pWilibr7Za9gVzvUYwWgblB9Z1qPfWyyrl+dOemKunDlzJaXZ081SuNWmWpkcjglYTaTq1cj8hB9cqkiItKWaqOLGTa0Z1bUupivUuTq5DPcKFWmxyWMNw2iDkUMdqll3f3iqKDUlYRdHkh047hnNO/Tvv1/pMy1dtktdkpo7rvqqO22vgRMvdOC5JTgzxvAP+wtwa132Pg14+B96/JJxSWMNzm1i3RO4VylS75y1NDG2sZzMh0BV3W4ctwVuBqPw4XpF1Tnq85/p20DHLqs1IfA9qkj0k94nA4WwRmBpV3+o33JQyrdTnxLo552knd3lTuD+aB4hgOS9up1L3quQqi7JD9oo8lyy46Y0WzPzXmDm8ZyXpLXfSqp00NOUjbJ8dg7fIkteY2m6qxE80Oq0hb5FfHKDoo61NbR+y25lR77KdDdWBG4ZvbpnnasMzbid+a5pePTfPbT0xzN0zzzWum+V873+9arOswPJw0U/vS5h378uurJ82Wnknza9M0zdtps0VJs/KeNK8+tC7vpA2zJb3oPqfkvZM2zJZ9hjl023lYZdEcqqSp/+91rWKlVernXNeok1V/N62SX6uzUpbIfyetllU2r/YoZT2cNFNaPe10kV+2K3W17Hlt1aW6rvL93nKRaXZdHDlUXetofS6vRZ+bnv2utEvIxdIDIVM1v6ZjaptlmySL5pBaL7tct41C3gG6LLHqqeSv0R96/9XWfylj+b6qdLW+su7adZCcQvDlBdOEYZpfygQfsoZpHrwg7wpE3TSZ+8tTyyvH2u202aL1tY4rS/HOqmsdaQ+c60o5fnVyxpg2bnz0UT4v2qTbHjddq1vN8S2vdbvnJYc76dpyMW+nq+2DnDO0saIiy3bvSdmFHUuu/ZHv8RhTSrm+Y8yzngJPOcg+dG2Kf3kSu3zZ7jjtsJq31hyvXEfTQY8yauqI3VY5t/rJPiLhI1YAsDsJ/HkF+PcXwCvXgX0vAj9SIlXPA0AR+EvIbUBfNpAbz6NnIotO51bzGXyQAUavyFWfFfI/kDlXyduZnUCPyBWO4O2gniEnjNmBvj4AfUOV7YXO4yngfsnyxpNZrGlbD3Z+FSON805ZyRR6UMTdEgAsYWZGLWsvBi6nccB5rvkMbmj13Itj3YZzUUU5N445I40PBvbadzpwaSKF5exl11M3Ujgm6lpas1dA9pZtn49cKhQuY7SYwmQlLGvXfWbcZ8XkEjlUrLar+QzO9wFzNxUdkf2DFM47+ZMp9KCEr0LUKxgDI+85bbbkt7y6FlGXFfpSlfzl3Djm+ia0/h64nAayl7Hgpf/vKboSyBIuZoGRy4rMk1lM9uVx0SsKlcxibVVpy1OIvzx1yvN5LGvjNItJOY5DsRcDsyu4URmDHijlNHWlcEDVqeYu9Bq2fQg1/mvpY3CbOrMr+hhMpmrb05Djvee4m36s26jUxbJ1Bnq7fORSYQkXs0VtLDUNjGPEqKGrNm7ZQX3vbB+77w8/lvzmjnBjTK1nKHzmjzDlSaraXczjs7C2McgOV2HZRdVuqbYlkg5qhNMRdW491m2483YMRHOsHF45ZDtY05Yz9dbrtlMF4G7IbcBA1nDXCeMrocDDWbEdpuRtTagDM4GD0s540oHzGcMtxydUX4sDbQl5S0cJF5+V8fZarJdQgoGDrcq95laolxZuSNtbNhal1SKwv1V3VloNX4PReTyF5RvzlrKVilhWJno/ymslwDD0unrW3aJpYAg9xTEc9ggFh0K0q7UtYJDIum05UXTZm9KqHfZWw+JdY1gGvPW/uQu9ofTf0TVrW1N9f0VXk+cwYljb9QmfEP/ThL88PfJ66VggezEwlMJy9qj1frm9E4pWvOp7Jizc+JeEbZO7nTKIOZloE3W8w3EaZ/KWE7teQklb1PngZRexF6/uV6/98e/7NdwthrG7iDZ3BI2xuKmrPK92O45aCLz0yc8Oe9ktD8LooEYMOtIo9TlWDq+cBLKHgJELwP/sex99CJz+VYivAcPhHDzVfjEfUGsamLbeO5GqDDi5V10XjkPVNYZWux31rXS9cAzqIEqZW1hbXcFiptowNkQyhR57xbJwMx99NRUaa6W3tnoLI4ZjDGLe894BNKzLfRPVz8cWOTIwMi/f7URXrEiLo7/WRFKHA7zT2FJ52iSz1nvn0zjgLB78JuDQbO34dyazw9lW+8OiencAatDchV4jj5mCFT1Dd1f4CHUcxNT30eYOvzG2FWx3efGy5Tq4hTTmWAHAO38AHv0R+HhT2QZ8XeaqAyviVNmK8sUrr+UNR8I2gosZw43UNEB5Po9lewB7h4d98FotrJdQuSzkMWeksRhyoHiuHkpFzxW6Swf6+oqYnZ/CzEzIbUAATYlWoFh06wpR95o4E/gEemAZ3VCIdnmtxp8sXvoZDc/+q+D1/gj676VrNejMrlQc4Nn5+tvzpPGXp45X3tJqWOHa2Ft31gRsR2oaIeL4l/i3Sf2aMtjZqG+8W9svczen8NkNhNwGrKWrG/jqvnrtj1fbXRI46Gy3OgS2JcTc4VnvLaSu8rzaLSM/Pnjpk68d9rJbDtF0UMOz7dF0pFEad6yeTwK/N6yo1T+vAQ9PASdkpnpwwuhDysrY+vKkekXg5HXPRyxkQoYNq76Oss+rxLWCUpStnOsPCMWq2GHmceWrm3Niq0I1ZoWM71aAs932rvoF3KDY3/ag83gKy9kxzIXcBgSUraPKytyuu3LWSUV+JYJCHnOwHTl7kFQm8fUpXJQyLI7hotN/hQzOzqhnS3YCUXTZm+r+U+UWrP/W5OeelyjnxpV0Z0tDfjljjwv5xdb6PGaLYc/EhGD3HmtRNllw/0kbv9/DAvBREdi3R74pNP7y1HHy6jomMnlS3ccLN/Pa2bmGiDD+JWHa5E54G8j1+tjTiOPdwdoOHMMoQm4DAp66Ws4NYbSonJsMwL/vbYdPef/CFe8t4mhzR3W9q5+Pk/rKc+cbu91OH26JHa62W/Lrw9A6qFHd9qg60iiNO1YA8M4FK2p1+kPg9NvueatGSWaxmIGyT3wUs923vFdoySwWM6XKOZCLbemQYUPrELd7/uUoRvdPeJcRkaaBcYzAOTvUjsOrQ1a4PuSKtWlgGpP7neeP4m63cojSPojotDcxbmBxIqVMno6BcLYeOnBpdQKtznkPewshsJ32gUH/bUBZ1l4MzN7CyH3nHIMl01rbXlJOicESRuadVYpzyN6u9zngvNzy6Evj4LjzbB49E3H8rSLZJokVzRvtCukcRdFlTzpwaT4NVPqvHYdvpLDoHO4U+n8W4qBnMotJu76Jtna8iyGMKGJsGpjW9altEJiwI61S17rG0FqRcZCcQvDSKaBwHhg74v6TNn6/liPAd+eByVPyTREIkKdH3pJjI8YNjITa0ncORbtlnL2fxmKNcRAJ2SdV4z8IvzbJeh/F3aFbGDHcw8iWUzRoO9zRxnsF+xygtyOikEzZZzCtCbdpYFrTdWurKEpUw7/v5Viw5hKvyI3/3KHLqPq92hgLg5BDEPWU17O/WLHDuq5ukR0Wdsu1LVF1UKdxHWmM50zTNOXNupjqB97fBOZvAz+RieTpZQnDbXn0baNSkjhYwnAIQ0rIk2MDud4h4HKICfiJsoThtnEcnN/p9WwE2os4iSdiBQBnpoEynapnjkI+2jYgIYSEYX0es5G2AbeD6u1b60/V7LR6kp1MfI4Vecaw/5LyIJS/T0MIIY2zkGlHoiuPXvXvLO0I5BaU3xYxId7EtxVICCGEEPI9hxErQgghhJCYoGNFCCGEEBITdKwIIYQQQmKCjhUhhBBCSEzQsSKEEEIIiQk6VoQQQgghMUHHihBCCCEkJuhYEUIIIYTEBB0rQgghhJCYoGNFCCGEEBIT/wdpBr0nnbOgfQAAAABJRU5ErkJggg==;" parent="1" vertex="1">
          <mxGeometry x="40" y="724.5" width="598" height="41" as="geometry" />
        </mxCell>
        <mxCell id="9gmffEgTV6Ri0BgAmOJX-2" value="" style="shape=image;html=1;verticalAlign=top;verticalLabelPosition=bottom;labelBackgroundColor=#ffffff;imageAspect=0;aspect=fixed;image=https://cdn4.iconfinder.com/data/icons/evil-icons-user-interface/64/magnifier-128.png" parent="1" vertex="1">
          <mxGeometry x="500" y="417.5" width="25" height="25" as="geometry" />
        </mxCell>
        <mxCell id="YLTMnbHiE6VjUVBNoFrl-1" value="" style="group" vertex="1" connectable="0" parent="1">
          <mxGeometry x="490" y="358.5" width="240" height="30" as="geometry" />
        </mxCell>
        <mxCell id="UWMbEhbp4-jFO4lP8396-15" value="&lt;font style=&quot;font-size: 12px;&quot;&gt;Type to search&lt;/font&gt;" style="verticalLabelPosition=middle;verticalAlign=middle;html=1;shape=mxgraph.basic.rect;fillColor2=none;strokeWidth=1;size=10;indent=5;labelPosition=center;align=left;spacingLeft=40;fontSize=16;rectStyle=rounded;absoluteCornerSize=0;strokeColor=#4D4D4D;" parent="YLTMnbHiE6VjUVBNoFrl-1" vertex="1">
          <mxGeometry width="240" height="30" as="geometry" />
        </mxCell>
        <mxCell id="UWMbEhbp4-jFO4lP8396-16" value="" style="shape=image;html=1;verticalAlign=top;verticalLabelPosition=bottom;labelBackgroundColor=#ffffff;imageAspect=0;aspect=fixed;image=https://cdn4.iconfinder.com/data/icons/evil-icons-user-interface/64/magnifier-128.png" parent="YLTMnbHiE6VjUVBNoFrl-1" vertex="1">
          <mxGeometry x="10" y="4" width="25" height="25" as="geometry" />
        </mxCell>
      </root>
    </mxGraphModel>
  </diagram>
</mxfile>
